<?xml version="1.0" encoding="UTF-8" standalone="no"?>
<!-- Created with Inkscape (http://www.inkscape.org/) -->

<svg
   width="48"
   height="98"
   id="svg3642"
   sodipodi:version="0.32"
   inkscape:version="1.2 (dc2aedaf03, 2022-05-15)"
   sodipodi:docname="scrollbar.svg"
   inkscape:output_extension="org.inkscape.output.svg.inkscape"
   version="1.0"
   xmlns:inkscape="http://www.inkscape.org/namespaces/inkscape"
   xmlns:sodipodi="http://sodipodi.sourceforge.net/DTD/sodipodi-0.dtd"
   xmlns="http://www.w3.org/2000/svg"
   xmlns:svg="http://www.w3.org/2000/svg"
   xmlns:rdf="http://www.w3.org/1999/02/22-rdf-syntax-ns#"
   xmlns:cc="http://creativecommons.org/ns#"
   xmlns:dc="http://purl.org/dc/elements/1.1/">
  <style
     id="current-color-scheme"
     type="text/css">.ColorScheme-Highlight { stop-colr:#5988cc;    color:#5988cc; }
</style>
  <sodipodi:namedview
     id="base"
     pagecolor="#eff0f1"
     bordercolor="#000000"
     borderopacity="1"
     inkscape:pageopacity="1"
     inkscape:pageshadow="2"
     inkscape:zoom="5.6568545"
     inkscape:cx="40.57025"
     inkscape:cy="43.663842"
     inkscape:current-layer="layer1"
     showgrid="false"
     inkscape:grid-bbox="true"
     inkscape:document-units="px"
     inkscape:window-width="1920"
     inkscape:window-height="1000"
     inkscape:window-x="0"
     inkscape:window-y="0"
     width="48px"
     height="48px"
     showguides="false"
     inkscape:guide-bbox="true"
     objecttolerance="9"
     gridtolerance="13"
     inkscape:window-maximized="1"
     inkscape:pagecheckerboard="0"
     inkscape:lockguides="true"
     guidecolor="#0000ff"
     guideopacity="0.62745098"
     guidehicolor="#ff0000"
     guidehiopacity="0.64705882"
     inkscape:showpageshadow="2"
     inkscape:deskcolor="#eff0f1">
    <inkscape:grid
       visible="true"
       enabled="true"
       id="grid2555"
       type="xygrid"
       empspacing="5"
       snapvisiblegridlinesonly="true"
       color="#0000ff"
       opacity="0.55294118"
       empcolor="#0000ff"
       empopacity="0.03921569" />
  </sodipodi:namedview>
  <defs
     id="defs3644">
    <style
       type="text/css"
       id="style4" />
  </defs>
  <metadata
     id="metadata3647">
    <rdf:RDF>
      <cc:Work
         rdf:about="">
        <dc:format>image/svg+xml</dc:format>
        <dc:type
           rdf:resource="http://purl.org/dc/dcmitype/StillImage" />
      </cc:Work>
      <cc:Work
         rdf:about="">
        <dc:format>image/svg+xml</dc:format>
        <dc:type
           rdf:resource="http://purl.org/dc/dcmitype/StillImage" />
      </cc:Work>
    </rdf:RDF>
  </metadata>
  <g
     inkscape:groupmode="layer"
     inkscape:label="Layer 1"
     id="layer1">
    <rect
       style="stroke:none;fill-rule:evenodd;fill-opacity:0.60000002;fill:currentColor;opacity:0.6;"
       id="slider-center"
       width="1"
       height="10"
       x="12.999993"
       y="13.999993"
       class="ColorScheme-Text  ColorScheme-Highlight" />
    <g
       transform="matrix(0,-0.75,-0.1,0,14.700001,19.75)"
       id="slider-top"
       style="opacity:1;fill:#5e81ac;fill-opacity:0.60000002">
      <rect
         style="opacity:0.01;fill:#5e81ac;fill-opacity:0.60000002;stroke:none"
         id="rect3850"
         width="1"
         height="7"
         x="24"
         y="12"
         transform="matrix(0,-10,-1.3333333,0,34.333333,257)" />
      <path
         inkscape:connector-curvature="0"
         id="path3909"
         d="m 9,7 v 10 h 4 V 7 Z"
         style="stroke:none;fill-rule:evenodd;fill-opacity:0.60000002;fill:currentColor;opacity:0.6;"
         class="ColorScheme-Text  ColorScheme-Highlight" />
    </g>
    <g
       id="slider-bottom"
       transform="matrix(0,0.75,-0.1,0,14.700001,18.25)"
       style="opacity:1;fill:#5e81ac;fill-opacity:0.60000002">
      <rect
         style="opacity:0.01;fill:#5e81ac;fill-opacity:0.60000002;stroke:none"
         id="rect3860"
         width="1"
         height="7"
         x="24"
         y="31"
         transform="matrix(0,-10,1.3333333,0,-32.333333,257)" />
      <path
         style="stroke:none;fill-rule:evenodd;fill-opacity:0.60000002;fill:currentColor;opacity:0.6;"
         d="m 9,7 v 10 h 4 V 7 Z"
         id="path3915"
         inkscape:connector-curvature="0"
         class="ColorScheme-Text  ColorScheme-Highlight" />
    </g>
    <rect
       ry="8.0000048"
       rx="0"
       y="74.240944"
       x="27.017803"
       height="10"
       width="10"
       id="hint-scrollbar-size"
       style="opacity:0.01;fill:#476c85;fill-opacity:1;fill-rule:nonzero;stroke:none;stroke-width:0.714283" />
    <rect
       style="opacity:0.01;fill:#476c85;fill-opacity:1;fill-rule:nonzero;stroke:none"
       id="hint-tile-center"
       width="2.0329318"
       height="2.077126"
       x="45.709991"
       y="0.16630076"
       rx="0"
       ry="2.077126" />
    <rect
       style="fill:#889e74;fill-opacity:1;fill-rule:evenodd;stroke:none"
       id="sunken-slider-center"
       width="1"
       height="10"
       x="12.999993"
       y="76.000031"
       class="ColorScheme-ButtonHover"
       inkscape:label="#slider-center-6" />
    <g
       id="sunken-slider-right"
       transform="matrix(0.75,0,0,1,8.2499934,69)"
       inkscape:label="#slider-right-9"
       style="fill:#889e74;fill-opacity:1">
      <path
         id="rect3838-4-8"
         d="m 9,7 v 10 h 4 V 7 Z"
         style="fill:#889e74;fill-opacity:1;fill-rule:evenodd;stroke:none"
         inkscape:connector-curvature="0"
         class="ColorScheme-ButtonHover" />
      <rect
         style="opacity:0.01;fill:#889e74;fill-opacity:1;stroke:none"
         id="rect3924"
         width="4"
         height="10"
         x="29"
         y="64"
         transform="matrix(1.3333333,0,0,1,-25.666667,-57)" />
    </g>
    <g
       id="sunken-slider-topright"
       transform="matrix(0.75,0,0,0.75,8.2499934,69.75)"
       inkscape:label="#slider-topright-4"
       style="fill:#889e74;fill-opacity:1">
      <rect
         style="opacity:0.01;fill:#889e74;fill-opacity:1;stroke:none"
         id="rect3920"
         width="7"
         height="7"
         x="26"
         y="56"
         transform="matrix(1.3333333,0,0,1.3333333,-25.666667,-77)" />
      <path
         id="rect3840-2-9"
         d="m 9,3 v 4 h 4 C 13,4.784 11.216,3 9,3 Z"
         style="fill:#889e74;fill-opacity:1;fill-rule:evenodd;stroke:none"
         inkscape:connector-curvature="0"
         class="ColorScheme-ButtonHover" />
    </g>
    <g
       id="sunken-slider-bottomright"
       transform="matrix(0.75,0,0,0.75,8.2499934,74.25)"
       inkscape:label="#slider-bottomright-7"
       style="fill:#889e74;fill-opacity:1">
      <rect
         style="opacity:0.01;fill:#889e74;fill-opacity:1;stroke:none"
         id="rect3930"
         width="7"
         height="7"
         x="26"
         y="75"
         transform="matrix(1.3333333,0,0,1.3333333,-25.666667,-83)" />
      <path
         inkscape:connector-curvature="0"
         style="fill:#889e74;fill-opacity:1;fill-rule:evenodd;stroke:none"
         d="m 9,21 v -4 h 4 c 0,2.216 -1.784,4 -4,4 z"
         id="path3871-1-7"
         class="ColorScheme-ButtonHover" />
    </g>
    <g
       id="sunken-slider-left"
       transform="matrix(-0.75,0,0,1,18.750001,69)"
       inkscape:label="#slider-left-5"
       style="fill:#889e74;fill-opacity:1">
      <path
         style="fill:#889e74;fill-opacity:1;fill-rule:evenodd;stroke:none"
         d="m 9,7 v 10 h 4 V 7 Z"
         id="path3891-9-4"
         inkscape:connector-curvature="0"
         class="ColorScheme-ButtonHover" />
      <rect
         style="opacity:0.01;fill:#889e74;fill-opacity:1;stroke:none"
         id="rect3922"
         width="4"
         height="10"
         x="16"
         y="64"
         transform="matrix(-1.3333333,0,0,1,39.666667,-57)" />
    </g>
    <g
       id="sunken-slider-topleft"
       transform="matrix(-0.75,0,0,0.75,18.750001,69.75)"
       inkscape:label="#slider-topleft-2"
       style="fill:#889e74;fill-opacity:1">
      <rect
         style="opacity:0.01;fill:#889e74;fill-opacity:1;stroke:none"
         id="rect3916"
         width="7"
         height="7"
         x="16"
         y="56"
         transform="matrix(-1.3333333,0,0,1.3333333,39.666667,-77)" />
      <path
         style="fill:#889e74;fill-opacity:1;fill-rule:evenodd;stroke:none"
         d="m 9,3 v 4 h 4 C 13,4.784 11.216,3 9,3 Z"
         id="path3895-2-1"
         inkscape:connector-curvature="0"
         class="ColorScheme-ButtonHover" />
    </g>
    <g
       id="sunken-slider-bottomleft"
       transform="matrix(-0.75,0,0,0.75,18.750001,74.25)"
       inkscape:label="#slider-bottomleft-5"
       style="fill:#889e74;fill-opacity:1">
      <rect
         style="opacity:0.01;fill:#889e74;fill-opacity:1;stroke:none"
         id="rect3926"
         width="7"
         height="7"
         x="16"
         y="75"
         transform="matrix(-1.3333333,0,0,1.3333333,39.666667,-83)" />
      <path
         id="path3901-9-9"
         d="m 9,21 v -4 h 4 c 0,2.216 -1.784,4 -4,4 z"
         style="fill:#889e74;fill-opacity:1;fill-rule:evenodd;stroke:none"
         inkscape:connector-curvature="0"
         class="ColorScheme-ButtonHover" />
    </g>
    <g
       transform="matrix(0,-0.75,-0.1,0,14.700001,81.75)"
       id="sunken-slider-top"
       inkscape:label="#slider-top-5"
       style="fill:#889e74;fill-opacity:1">
      <rect
         style="opacity:0.01;fill:#889e74;fill-opacity:1;stroke:none"
         id="rect3918"
         width="1"
         height="7"
         x="24"
         y="56"
         transform="matrix(0,-10,-1.3333333,0,93,257)" />
      <path
         inkscape:connector-curvature="0"
         id="path3909-6-1"
         d="m 9,7 v 10 h 4 V 7 Z"
         style="fill:#889e74;fill-opacity:1;fill-rule:evenodd;stroke:none"
         class="ColorScheme-ButtonHover" />
    </g>
    <g
       id="sunken-slider-bottom"
       transform="matrix(0,0.75,-0.1,0,14.700001,80.25)"
       inkscape:label="#slider-bottom-0"
       style="fill:#889e74;fill-opacity:1">
      <rect
         style="opacity:0.01;fill:#889e74;fill-opacity:1;stroke:none"
         id="rect3928"
         width="1"
         height="7"
         x="24"
         y="75"
         transform="matrix(0,-10,1.3333333,0,-91,257)" />
      <path
         style="fill:#889e74;fill-opacity:1;fill-rule:evenodd;stroke:none"
         d="m 9,7 v 10 h 4 V 7 Z"
         id="path3915-6-3"
         inkscape:connector-curvature="0"
         class="ColorScheme-ButtonHover" />
    </g>
    <rect
       inkscape:label="#slider-center-6"
       class="ColorScheme-ButtonHover  ColorScheme-Highlight"
       y="47.000031"
       x="12.999993"
       height="10"
       width="1"
       id="mouseover-slider-center"
       style="stroke:none;fill-rule:evenodd;fill-opacity:0.6;fill:currentColor;opacity:0.6;" />
    <g
       inkscape:label="#slider-top-5"
       id="mouseover-slider-top"
       transform="matrix(0,-0.75,-0.1,0,14.700002,52.75)"
       style="opacity:1;fill:#6e9ba8;fill-opacity:0.60000002">
      <rect
         transform="matrix(0,-10,-1.3333333,0,93,257)"
         y="56"
         x="24"
         height="7"
         width="1"
         id="rect3999"
         style="opacity:0.01;fill:#6e9ba8;fill-opacity:0.60000002;stroke:none" />
      <path
         class="ColorScheme-ButtonHover  ColorScheme-Highlight"
         style="stroke:none;fill-rule:evenodd;fill-opacity:0.60000002;fill:currentColor;opacity:0.6;"
         d="m 9,7 v 10 h 4 V 7 Z"
         id="path4001"
         inkscape:connector-curvature="0" />
    </g>
    <g
       inkscape:label="#slider-bottom-0"
       transform="matrix(0,0.75,-0.1,0,14.700002,51.25)"
       id="mouseover-slider-bottom"
       style="opacity:1;fill:#6e9ba8;fill-opacity:0.60000002">
      <rect
         transform="matrix(0,-10,1.3333333,0,-91,257)"
         y="75"
         x="24"
         height="7"
         width="1"
         id="rect4005"
         style="opacity:0.01;fill:#6e9ba8;fill-opacity:0.60000002;stroke:none" />
      <path
         class="ColorScheme-ButtonHover  ColorScheme-Highlight"
         inkscape:connector-curvature="0"
         id="path4007"
         d="m 9,7 v 10 h 4 V 7 Z"
         style="stroke:none;fill-rule:evenodd;fill-opacity:0.6;fill:currentColor;opacity:0.6;" />
    </g>
    <g
       id="g1946"
       transform="translate(-7.0000069,-5.9999984)">
      <g
         id="g1695">
        <g
           id="background-horizontal-top">
          <rect
             y="45"
             x="41"
             height="7"
             width="1"
             id="rect4336"
             style="opacity:0.01;fill:#13446c;fill-opacity:1;stroke:none" />
        </g>
      </g>
      <path
         class="ColorScheme-Text"
         style="opacity:1;fill:#192432;fill-opacity:0.01;fill-rule:evenodd;stroke:none;stroke-width:0.273861"
         d="m 42.000001,52.000001 h -1 v -3 h 1 z"
         id="path4338"
         inkscape:connector-curvature="0" />
      <path
         inkscape:connector-curvature="0"
         id="path4340"
         d="m 42.000001,52.000001 h -1 v -3 h 1 z"
         style="opacity:1;fill:#192432;fill-opacity:0.10196079;fill-rule:evenodd;stroke:none;stroke-width:0.273861"
         class="ColorScheme-ViewBackground" />
      <g
         id="g4008">
        <g
           id="background-horizontal-bottom">
          <rect
             y="64"
             x="41"
             height="7"
             width="1"
             id="rect4344"
             style="opacity:0.01;fill:#13446c;fill-opacity:1;stroke:none" />
        </g>
        <path
           class="ColorScheme-Text"
           inkscape:connector-curvature="0"
           id="path4346"
           d="m 42.000001,64.000001 h -1 v 3 h 1 z"
           style="opacity:1;fill:#192432;fill-opacity:0.01;fill-rule:evenodd;stroke:none;stroke-width:0.273861" />
        <path
           style="opacity:1;fill:#192432;fill-opacity:0.10196079;fill-rule:evenodd;stroke:none;stroke-width:0.273861"
           d="m 42.000001,64.000001 h -1 v 3 h 1 z"
           id="path4348"
           inkscape:connector-curvature="0"
           class="ColorScheme-ViewBackground" />
      </g>
      <g
         id="g1698">
        <rect
           style="opacity:1;fill:#192432;fill-opacity:0.01;fill-rule:evenodd;stroke:none"
           id="rect4352"
           width="1"
           height="10"
           x="41"
           y="53"
           class="ColorScheme-Text"
           inkscape:label="#slider-center-1" />
        <g
           id="background-horizontal-center">
          <rect
             inkscape:label="#slider-center-1"
             class="ColorScheme-ViewBackground"
             y="53"
             x="41"
             height="10"
             width="1"
             id="rect4354"
             style="opacity:1;fill:#192432;fill-opacity:0.10196079;fill-rule:evenodd;stroke:none" />
        </g>
      </g>
    </g>
    <g
       id="background-horizontal-topleft"
       transform="translate(-7.0000069,-5.9999984)">
      <rect
         y="45"
         x="33"
         height="7"
         width="7"
         id="rect4320"
         style="opacity:0.01;fill:#13446c;fill-opacity:1;stroke:none" />
      <path
         class="ColorScheme-Text"
         inkscape:connector-curvature="0"
         id="path4322"
         d="m 40.000001,49.000001 v 3 h -3 c 6e-6,-2.000003 1.000006,-3.000003 3,-3 z"
         style="opacity:1;fill:#192432;fill-opacity:0.01;fill-rule:evenodd;stroke:none;stroke-width:0.75"
         sodipodi:nodetypes="cccc" />
      <path
         style="fill:#192432;fill-opacity:0.10196079;fill-rule:evenodd;stroke:none;stroke-width:0.75"
         d="m 40.000001,49.000001 v 3 h -3 c -10e-7,-2.000001 1.000006,-3.000003 3,-3 z"
         id="path4324"
         inkscape:connector-curvature="0"
         class="ColorScheme-ViewBackground"
         sodipodi:nodetypes="cccc" />
      <path
         class="ColorScheme-Background  ColorScheme-Highlight"
         style="stroke-width:0.428566;fill-opacity:0.6;fill:currentColor;opacity:1;"
         sodipodi:nodetypes="cccccccc"
         d="m 37,52 h 0.7 v 0 C 37.73251,50.698736 38,49.702244 40,49.7 v 0 -0.7 0 c -1.999993,-2e-6 -3.007816,1 -3,3 z"
         id="path999-2" />
    </g>
    <g
       id="g1639"
       transform="translate(-7.0000069,-5.9999984)">
      <g
         id="g2984">
        <g
           id="g3676">
          <g
             id="g2587">
            <g
               id="g2583" />
          </g>
        </g>
        <g
           id="g3270">
          <g
             id="g1645">
            <g
               id="background-vertical-top">
              <rect
                 style="opacity:0.01;fill:#13436c;fill-opacity:1;stroke:none"
                 id="rect3866"
                 width="1"
                 height="7"
                 x="41"
                 y="12" />
            </g>
            <path
               inkscape:connector-curvature="0"
               id="path3909-8"
               d="m 42,19 h -1 v -3 h 1 z"
               style="opacity:1;fill:#192432;fill-opacity:0.1;fill-rule:evenodd;stroke:none;stroke-width:0.273861"
               class="ColorScheme-Text" />
          </g>
        </g>
        <g
           id="g1654">
          <g
             id="background-vertical-bottom">
            <rect
               style="opacity:0.01;fill:#13436c;fill-opacity:1;stroke:none"
               id="rect3876"
               width="1"
               height="7"
               x="41"
               y="31" />
            <path
               style="opacity:1;fill:#192432;fill-opacity:0.10196079;fill-rule:evenodd;stroke:none;stroke-width:0.273861"
               d="m 42,31 h -1 v 3 h 1 z"
               id="path3915-5"
               inkscape:connector-curvature="0"
               class="ColorScheme-Text" />
            <path
               class="ColorScheme-ViewBackground"
               inkscape:connector-curvature="0"
               id="path4282"
               d="m 42,31 h -1 v 3 h 1 z"
               style="opacity:0;fill:#13446c;fill-opacity:1;fill-rule:evenodd;stroke:none;stroke-width:0.273861" />
          </g>
        </g>
        <g
           id="g3472">
          <g
             id="g1648">
            <g
               id="background-vertical-center">
              <rect
                 inkscape:label="#slider-center-1"
                 class="ColorScheme-Text"
                 y="20"
                 x="41"
                 height="10"
                 width="1"
                 id="rect4272"
                 style="opacity:1;fill:#192432;fill-opacity:0.10196079;fill-rule:evenodd;stroke:none" />
            </g>
          </g>
          <rect
             style="opacity:0;fill:#13446c;fill-opacity:1;fill-rule:evenodd;stroke:none"
             id="rect4266"
             width="1"
             height="10"
             x="41"
             y="20"
             class="ColorScheme-ViewBackground"
             inkscape:label="#slider-center-1" />
        </g>
      </g>
    </g>
    <g
       id="background-vertical-topleft"
       transform="translate(-7.0000069,-5.9999984)">
      <rect
         style="opacity:0.01;fill:#13436c;fill-opacity:1;stroke:none"
         id="rect3864"
         width="7"
         height="7"
         x="33"
         y="12" />
      <path
         style="opacity:1;fill:#192432;fill-opacity:0.1;fill-rule:evenodd;stroke:none;stroke-width:0.75"
         d="m 40,16 v 3 h -3 c 0,-2 1,-3 3,-3 z"
         id="path3895-9"
         inkscape:connector-curvature="0"
         class="ColorScheme-Text"
         sodipodi:nodetypes="cccc" />
      <path
         class="ColorScheme-ViewBackground"
         inkscape:connector-curvature="0"
         id="path4274"
         d="M 40,16 V 16.948078 19 h -3 c 0,-1.662 1.338,-3 3,-3 z"
         style="opacity:0;fill:#13436c;fill-opacity:1;fill-rule:evenodd;stroke:none;stroke-width:0.75"
         sodipodi:nodetypes="ccccc" />
      <path
         class="ColorScheme-Background  ColorScheme-Highlight"
         style="stroke-width:0.428566;fill-opacity:0.6;fill:currentColor;"
         sodipodi:nodetypes="ccccccccc"
         d="M 37.000015,19 H 37.7 v 0 c 0.02568,-1.316534 0.3,-2.255434 2.300015,-2.3 v 0 V 16 L 40,16.000304 C 38,16 37,17 37,18.999574 Z"
         id="path999-2-5" />
    </g>
    <g
       id="background-vertical-topright"
       transform="translate(-7.0000069,-5.9999984)">
      <rect
         style="opacity:0.01;fill:#13436c;fill-opacity:1;stroke:none"
         id="rect3868"
         width="7"
         height="7"
         x="43"
         y="12" />
      <path
         id="rect3840-1"
         d="m 43,16 v 3 h 3 c 7e-6,-2.000002 -0.999993,-3.000002 -3,-3 z"
         style="opacity:0.01;fill:#192432;fill-opacity:1;fill-rule:evenodd;stroke:none;stroke-width:0.75"
         inkscape:connector-curvature="0"
         class="ColorScheme-Text"
         sodipodi:nodetypes="cccc" />
      <path
         class="ColorScheme-ViewBackground"
         inkscape:connector-curvature="0"
         style="opacity:1;fill:#192432;fill-opacity:0.10196079;fill-rule:evenodd;stroke:none;stroke-width:0.75"
         d="m 43,16 v 3 h 3 c 0,-2 -1,-3 -3,-3 z"
         id="path4278"
         sodipodi:nodetypes="cccc" />
      <path
         class="ColorScheme-Background  ColorScheme-Highlight"
         style="stroke-width:0.428566;fill-opacity:0.6;fill:currentColor;"
         sodipodi:nodetypes="cccccccc"
         d="m 43,16 v 0.7 0 c 2,-0.02814 2.273962,1.3 2.3,2.3 v 0 H 46 v 0 c 0,-2 -1,-3 -3,-3 z"
         id="path999-2-5-7" />
    </g>
    <g
       id="background-vertical-bottomleft"
       transform="translate(-7.0000069,-5.9999984)">
      <rect
         style="opacity:0.01;fill:#13436c;fill-opacity:1;stroke:none"
         id="rect3874"
         width="7"
         height="7"
         x="33"
         y="31" />
      <path
         id="path3901-7"
         d="m 40,34 v -3 h -3 c 7e-6,1.999998 1.000007,2.999998 3,3 z"
         style="opacity:1;fill:#192432;fill-opacity:0.01;fill-rule:evenodd;stroke:none;stroke-width:0.75"
         inkscape:connector-curvature="0"
         class="ColorScheme-Text"
         sodipodi:nodetypes="cccc" />
      <path
         class="ColorScheme-ViewBackground"
         inkscape:connector-curvature="0"
         style="fill:#192432;fill-opacity:0.10196079;fill-rule:evenodd;stroke:none;stroke-width:0.75"
         d="m 40,34.000021 v -3 h -3 c 0,2 1,3 3,3 z"
         id="path4280"
         sodipodi:nodetypes="cccc" />
      <path
         class="ColorScheme-Background  ColorScheme-Highlight"
         style="stroke-width:0.428566;fill-opacity:0.6;fill:currentColor;"
         sodipodi:nodetypes="ccccccccc"
         d="m 40,34 v -0.7 0 C 38.568386,33.276252 37.681457,32.801218 37.7,31 v 0 H 37 v 0.0079 C 36.9926,33 38,34.007462 39.99766,34 Z"
         id="path999-2-5-7-0" />
    </g>
    <g
       id="background-vertical-bottomright"
       transform="translate(-7.0000069,-5.9999984)">
      <rect
         style="opacity:0.01;fill:#13436c;fill-opacity:1;stroke:none"
         id="rect3878"
         width="7"
         height="7"
         x="43"
         y="31" />
      <path
         inkscape:connector-curvature="0"
         style="opacity:0.01;fill:#192432;fill-opacity:1;fill-rule:evenodd;stroke:none;stroke-width:0.75"
         d="m 43,34 v -3 h 3 c 7e-6,1.999998 -0.999993,2.999998 -3,3 z"
         id="path3871-2"
         class="ColorScheme-Text"
         sodipodi:nodetypes="cccc" />
      <path
         class="ColorScheme-ViewBackground"
         id="path4284"
         d="m 43,34 v -3 h 3 c 0,2 -1,3 -3,3 z"
         style="fill:#192432;fill-opacity:0.10196079;fill-rule:evenodd;stroke:none;stroke-width:0.75"
         inkscape:connector-curvature="0"
         sodipodi:nodetypes="cccc" />
      <path
         class="ColorScheme-Background  ColorScheme-Highlight"
         style="stroke-width:0.428566;fill-opacity:0.6;fill:currentColor;"
         sodipodi:nodetypes="cccccccc"
         d="m 46,31 h -0.7 v 0 c -0.01307,1.766872 -0.874654,2.274564 -2.3,2.3 v 0 0.7 0 c 2.02157,0 2.983488,-0.982993 3,-3 z"
         id="path999-2-5-7-0-9" />
    </g>
    <g
       id="background-horizontal-topright"
       transform="translate(-7.0000069,-5.9999984)">
      <rect
         y="45"
         x="43"
         height="7"
         width="7"
         id="rect4296"
         style="opacity:0.01;fill:#13446c;fill-opacity:1;stroke:none" />
      <path
         class="ColorScheme-Text"
         inkscape:connector-curvature="0"
         style="opacity:1;fill:#192432;fill-opacity:0.01;fill-rule:evenodd;stroke:none;stroke-width:0.75"
         d="m 43.000001,49.000001 v 3 h 3 c 6e-6,-2.000003 -0.999994,-3.000003 -3,-3 z"
         id="path4298"
         sodipodi:nodetypes="cccc" />
      <path
         id="path4300"
         d="m 43,49.000008 v 3 h 3 c -10e-7,-2.000001 -1.000001,-3.000001 -3,-3 z"
         style="fill:#192432;fill-opacity:0.10196079;fill-rule:evenodd;stroke:none;stroke-width:0.75"
         inkscape:connector-curvature="0"
         class="ColorScheme-ViewBackground"
         sodipodi:nodetypes="cccc" />
      <path
         class="ColorScheme-Background  ColorScheme-Highlight"
         style="stroke-width:0.428566;fill-opacity:0.60000002;fill:#5988cc"
         sodipodi:nodetypes="ccccccccc"
         d="M 43,49.000015 V 49.7 v 0 c 2,0.005 2.286165,0.980725 2.3,2.300015 v 0 H 46 V 52 c 0,-2 -1,-3 -3,-3 z"
         id="path999-2-5-7-3" />
    </g>
    <g
       id="background-horizontal-bottomright"
       transform="translate(-7.0000069,-5.9999984)">
      <rect
         y="64"
         x="43"
         height="7"
         width="7"
         id="rect4304"
         style="opacity:0.01;fill:#13446c;fill-opacity:1;stroke:none" />
      <path
         class="ColorScheme-Text"
         id="path4306"
         d="m 43.000001,67.000001 v -3 h 3 c 6e-6,1.999997 -0.999994,2.999997 -3,3 z"
         style="opacity:1;fill:#192432;fill-opacity:0.01;fill-rule:evenodd;stroke:none;stroke-width:0.75"
         inkscape:connector-curvature="0"
         sodipodi:nodetypes="cccc" />
      <path
         inkscape:connector-curvature="0"
         style="fill:#192432;fill-opacity:0.10196079;fill-rule:evenodd;stroke:none;stroke-width:0.75"
         d="m 43.000001,67.000001 v -3 h 3 C 46,66 45,67 43.000001,67.000001 Z"
         id="path4308"
         class="ColorScheme-ViewBackground"
         sodipodi:nodetypes="cccc" />
      <path
         class="ColorScheme-Background  ColorScheme-Highlight"
         style="stroke-width:0.428566;fill-opacity:0.60000002;fill:#5988cc"
         sodipodi:nodetypes="cccccccc"
         d="m 46,64 h -0.7 v 0 c -0.0068,2 -1.002138,2.270855 -2.3,2.3 v 0 0.7 h 0.0056 C 45,67 46,66 46,64 Z"
         id="path999-2-5-7-6" />
    </g>
    <g
       id="background-horizontal-bottomleft"
       transform="translate(-7.0000069,-5.9999984)">
      <rect
         y="64"
         x="33"
         height="7"
         width="7"
         id="rect4328"
         style="opacity:0.01;fill:#13446c;fill-opacity:1;stroke:none" />
      <path
         class="ColorScheme-Text"
         inkscape:connector-curvature="0"
         style="opacity:1;fill:#192432;fill-opacity:0.01;fill-rule:evenodd;stroke:none;stroke-width:0.75"
         d="m 40.000001,67.000001 v -3 L 37,64 c -10e-7,1.999999 1,3 3.000001,3.000001 z"
         id="path4330"
         sodipodi:nodetypes="cccc" />
      <path
         id="path4332"
         d="M 40.000001,67.000001 40,64 l -2.999999,10e-7 C 37,66 38,67 40.000001,67.000001 Z"
         style="fill:#192432;fill-opacity:0.10196079;fill-rule:evenodd;stroke:none;stroke-width:0.75"
         inkscape:connector-curvature="0"
         class="ColorScheme-ViewBackground"
         sodipodi:nodetypes="cccc" />
      <path
         class="ColorScheme-Background  ColorScheme-Highlight"
         style="stroke-width:0.428566;fill-opacity:0.60000002;fill:#5988cc"
         sodipodi:nodetypes="cccccccc"
         d="m 40,67 v -0.7 0 C 38,66.324189 37.727443,65.247405 37.7,64 H 37 v 0 0 c 0,2 1,3 3,3 z"
         id="path999-2-5-7-6-7" />
    </g>
    <g
       id="background-vertical-left">
      <path
         style="opacity:0.01;fill:#192432;fill-opacity:1;fill-rule:evenodd;stroke:none;stroke-width:0.866025"
         d="m 32.999993,14.000002 v 10 h -3 v -10 z"
         id="path3891-2"
         inkscape:connector-curvature="0"
         class="ColorScheme-Text" />
      <rect
         style="opacity:0.01;fill:#13436c;fill-opacity:1;stroke:none"
         id="rect3870"
         width="4"
         height="10"
         x="25.999992"
         y="14.000002" />
      <path
         class="ColorScheme-ViewBackground"
         inkscape:connector-curvature="0"
         id="path4262"
         d="m 32.999993,14.000002 v 10 h -3 v -10 z"
         style="opacity:1;fill:#192432;fill-opacity:0.10196079;fill-rule:evenodd;stroke:none;stroke-width:0.866025" />
      <rect
         inkscape:label="#slider-center-1"
         class="ColorScheme-Text  ColorScheme-Highlight"
         y="14"
         x="30"
         height="10"
         width="0.69999999"
         id="rect4272-3"
         style="stroke-width:0.83666;stroke:none;fill-rule:evenodd;fill-opacity:0.6;fill:currentColor;opacity:1;" />
    </g>
    <g
       id="background-vertical-right">
      <path
         id="rect3838-1"
         d="m 35.999993,14.000002 v 10 h 3 v -10 z"
         style="opacity:0.01;fill:#192432;fill-opacity:1;fill-rule:evenodd;stroke:none;stroke-width:0.866025"
         inkscape:connector-curvature="0"
         class="ColorScheme-Text" />
      <rect
         style="opacity:0.01;fill:#13436c;fill-opacity:1;stroke:none"
         id="rect3872"
         width="4"
         height="10"
         x="38.999992"
         y="14.000002" />
      <path
         class="ColorScheme-ViewBackground"
         inkscape:connector-curvature="0"
         style="opacity:1;fill:#192432;fill-opacity:0.10196079;fill-rule:evenodd;stroke:none;stroke-width:0.866025"
         d="m 35.999993,14.000002 v 10 h 3 v -10 z"
         id="path4264" />
      <rect
         inkscape:label="#slider-center-1"
         class="ColorScheme-Text  ColorScheme-Highlight"
         y="14"
         x="38.299999"
         height="10"
         width="0.69999999"
         id="rect4272-3-6"
         style="stroke-width:0.83666;stroke:none;fill-rule:evenodd;fill-opacity:0.6;fill:currentColor;" />
    </g>
    <g
       id="background-horizontal-left">
      <path
         class="ColorScheme-Text"
         inkscape:connector-curvature="0"
         id="path4312"
         d="m 33.000002,47 v 10 h -3 V 47 Z"
         style="opacity:1;fill:#192432;fill-opacity:0.01;fill-rule:evenodd;stroke:none;stroke-width:0.866025" />
      <rect
         y="47"
         x="26.000002"
         height="10"
         width="4"
         id="rect4314"
         style="opacity:0.01;fill:#13446c;fill-opacity:1;stroke:none" />
      <path
         style="fill:#192432;fill-opacity:0.10196079;fill-rule:evenodd;stroke:none;stroke-width:0.866025"
         d="m 33.000002,47 v 10 h -3 V 47 Z"
         id="path4316"
         inkscape:connector-curvature="0"
         class="ColorScheme-ViewBackground" />
      <rect
         inkscape:label="#slider-center-1"
         class="ColorScheme-Text  ColorScheme-Highlight"
         y="47"
         x="30"
         height="10"
         width="0.69999999"
         id="rect4272-3-6-3"
         style="fill:#5988cc;fill-opacity:0.60000002;fill-rule:evenodd;stroke:none;stroke-width:0.83666" />
    </g>
    <g
       id="background-horizontal-right">
      <path
         class="ColorScheme-Text"
         inkscape:connector-curvature="0"
         style="opacity:1;fill:#192432;fill-opacity:0.10196079;fill-rule:evenodd;stroke:none;stroke-width:0.866025"
         d="m 36.000002,47 v 10 h 3 V 47 Z"
         id="path4288" />
      <rect
         y="47"
         x="39.000004"
         height="10"
         width="4"
         id="rect4290"
         style="opacity:0.01;fill:#13446c;fill-opacity:1;stroke:none" />
      <path
         id="path4292"
         d="m 50.999992,46.453672 v 10 h 3 v -10 z"
         style="fill:#13436c;fill-opacity:0.0117647;fill-rule:evenodd;stroke:none;stroke-width:0.866025"
         inkscape:connector-curvature="0"
         class="ColorScheme-ViewBackground" />
      <rect
         inkscape:label="#slider-center-1"
         class="ColorScheme-Text  ColorScheme-Highlight"
         y="47"
         x="38.299999"
         height="10"
         width="0.69999999"
         id="rect4272-3-6-6"
         style="fill:#5988cc;fill-opacity:0.60000002;fill-rule:evenodd;stroke:none;stroke-width:0.83666" />
    </g>
    <g
       id="mouseover-slider-topleft">
      <rect
         y="39"
         x="5.0000019"
         height="7"
         width="7"
         id="rect3987"
         style="opacity:0.01;fill:#6e9ba8;fill-opacity:0.6;stroke:none" />
      <path
         class="ColorScheme-ButtonHover  ColorScheme-Highlight"
         inkscape:connector-curvature="0"
         id="path3989"
         d="m 12.000002,43 v 3 h -3 C 9,44 10,43 12.000002,43 Z"
         style="stroke-width:0.75;stroke:none;fill-rule:evenodd;fill-opacity:0.6;fill:currentColor;opacity:0.6"
         sodipodi:nodetypes="cccc" />
      <path
         class="ColorScheme-Background  ColorScheme-Highlight"
         style="stroke-width:0.428566;fill-opacity:1;fill:currentColor;"
         sodipodi:nodetypes="cccccccc"
         d="m 9.000002,46 h 0.7 v 0 c 0.03251,-1.301264 0.3,-2.297756 2.3,-2.3 v 0 -0.7 0 c -1.999993,-2e-6 -3.007816,1 -3,3 z"
         id="path999-2-3" />
    </g>
    <g
       id="mouseover-slider-topright">
      <rect
         y="39"
         x="14.999994"
         height="7"
         width="7"
         id="rect3969"
         style="opacity:0.01;fill:#6e9ba8;fill-opacity:0.6;stroke:none" />
      <path
         class="ColorScheme-ButtonHover  ColorScheme-Highlight"
         inkscape:connector-curvature="0"
         style="stroke-width:0.75;stroke:none;fill-rule:evenodd;fill-opacity:0.6;fill:currentColor;opacity:0.6"
         d="m 14.999994,43 v 3 h 3 C 18,44 17,43 14.999994,43 Z"
         id="path3971"
         sodipodi:nodetypes="cccc" />
      <path
         class="ColorScheme-Background  ColorScheme-Highlight"
         style="stroke-width:0.428566;fill-opacity:1;fill:currentColor;"
         sodipodi:nodetypes="ccccccccc"
         d="M 14.999994,43.000015 V 43.7 v 0 c 2,0.005 2.286165,0.980725 2.3,2.300015 v 0 h 0.7 V 46 c 0,-2 -1,-3 -3,-3 z"
         id="path999-2-5-7-3-6" />
    </g>
    <g
       id="mouseover-slider-left">
      <path
         class="ColorScheme-ButtonHover  ColorScheme-Highlight"
         inkscape:connector-curvature="0"
         id="path3981"
         d="m 12.000002,47 v 10 h -3 V 47 Z"
         style="stroke-width:0.866025;stroke:none;fill-rule:evenodd;fill-opacity:0.6;fill:currentColor;opacity:0.6" />
      <rect
         y="47"
         x="5.0000019"
         height="10"
         width="4"
         id="rect3983"
         style="opacity:0.01;fill:#6e9ba8;fill-opacity:0.6;stroke:none" />
      <rect
         inkscape:label="#slider-center-1"
         class="ColorScheme-Text  ColorScheme-Highlight"
         y="47"
         x="9.000001"
         height="10"
         width="0.69999999"
         id="rect4272-3-6-3-7"
         style="stroke-width:0.83666;stroke:none;fill-rule:evenodd;fill-opacity:1;fill:currentColor;" />
    </g>
    <g
       id="mouseover-slider-right">
      <path
         class="ColorScheme-ButtonHover  ColorScheme-Highlight"
         inkscape:connector-curvature="0"
         style="stroke-width:0.866025;stroke:none;fill-rule:evenodd;fill-opacity:0.6;fill:currentColor;opacity:0.6"
         d="m 14.999994,47 v 10 h 3 V 47 Z"
         id="path3963" />
      <rect
         y="47"
         x="17.999994"
         height="10"
         width="4"
         id="rect3965"
         style="opacity:0.01;fill:#6e9ba8;fill-opacity:0.6;stroke:none" />
      <rect
         inkscape:label="#slider-center-1"
         class="ColorScheme-Text  ColorScheme-Highlight"
         y="47"
         x="17.299994"
         height="10"
         width="0.69999999"
         id="rect4272-3-6-6-5"
         style="stroke-width:0.83666;stroke:none;fill-rule:evenodd;fill-opacity:1;fill:currentColor;" />
    </g>
    <g
       id="mouseover-slider-bottomleft">
      <rect
         y="58"
         x="5.0000019"
         height="7"
         width="7"
         id="rect3993"
         style="opacity:0.01;fill:#6e9ba8;fill-opacity:0.6;stroke:none" />
      <path
         class="ColorScheme-ButtonHover  ColorScheme-Highlight"
         inkscape:connector-curvature="0"
         style="stroke-width:0.75;stroke:none;fill-rule:evenodd;fill-opacity:0.6;fill:currentColor;opacity:0.6"
         d="m 12.000002,61 v -3 h -3 c -2e-6,2 0.999998,3 3,3 z"
         id="path3995"
         sodipodi:nodetypes="cccc" />
      <path
         class="ColorScheme-Background  ColorScheme-Highlight"
         style="stroke-width:0.428566;fill-opacity:1;fill:currentColor;"
         sodipodi:nodetypes="cccccccc"
         d="m 12.000002,61 v -0.7 0 c -2,0.02419 -2.272557,-1.052595 -2.3,-2.3 h -0.7 v 0 0 c 0,2 1,3 3,3 z"
         id="path999-2-5-7-6-7-3" />
    </g>
    <g
       id="mouseover-slider-bottomright">
      <rect
         y="58"
         x="14.999994"
         height="7"
         width="7"
         id="rect3975"
         style="opacity:0.01;fill:#6e9ba8;fill-opacity:0.6;stroke:none" />
      <path
         class="ColorScheme-ButtonHover  ColorScheme-Highlight"
         id="path3977"
         d="m 14.999994,61 v -3 h 3 c 6e-6,2 -0.999994,3 -3,3 z"
         style="stroke-width:0.75;stroke:none;fill-rule:evenodd;fill-opacity:0.6;fill:currentColor;opacity:0.6"
         inkscape:connector-curvature="0"
         sodipodi:nodetypes="cccc" />
      <path
         class="ColorScheme-Background  ColorScheme-Highlight"
         style="stroke-width:0.428566;fill-opacity:1;fill:currentColor;"
         sodipodi:nodetypes="cccccccc"
         d="m 17.999994,58 h -0.7 v 0 c -0.0068,2 -1.002138,2.270855 -2.3,2.3 v 0 0.7 h 0.0056 c 1.9944,0 2.9944,-1 2.9944,-3 z"
         id="path999-2-5-7-6-5" />
    </g>
    <g
       id="slider-topleft">
      <rect
         style="opacity:0.01;fill:#5e81ac;fill-opacity:0.6;stroke:none"
         id="rect3848"
         width="7"
         height="7"
         x="5.000001"
         y="6.0000019" />
      <path
         style="stroke-width:0.75;stroke:none;fill-rule:evenodd;fill-opacity:0.6;fill:currentColor;opacity:0.6;"
         d="m 12.000001,10.000002 v 3 h -3 C 9,11 10,10 12.000001,10.000002 Z"
         id="path3895"
         inkscape:connector-curvature="0"
         class="ColorScheme-Text  ColorScheme-Highlight"
         sodipodi:nodetypes="cccc" />
      <path
         class="ColorScheme-Background  ColorScheme-Highlight"
         style="stroke-width:0.428566;fill-opacity:0.8;fill:currentColor;"
         sodipodi:nodetypes="ccccccccc"
         d="m 9.0000085,13.000002 h 0.699985 v 0 c 0.02568,-1.316535 0.3,-2.255435 2.3000155,-2.300001 v 0 -0.699999 l -1.5e-5,3.04e-4 c -2.0000005,-3.04e-4 -3.0000005,0.999696 -3.0000005,2.999269 z"
         id="path999-2-5-6"
         inkscape:transform-center-x="6.128869"
         inkscape:transform-center-y="0.44194172" />
    </g>
    <g
       id="slider-topright">
      <rect
         style="opacity:0.01;fill:#5e81ac;fill-opacity:0.6;stroke:none"
         id="rect3852"
         width="7"
         height="7"
         x="14.999993"
         y="6.0000019" />
      <path
         id="rect3840"
         d="m 14.999993,10.000002 v 3 h 3 C 18,11 17,10 14.999993,10.000002 Z"
         style="stroke-width:0.75;stroke:none;fill-rule:evenodd;fill-opacity:0.6;fill:currentColor;opacity:0.6;"
         inkscape:connector-curvature="0"
         class="ColorScheme-Text  ColorScheme-Highlight"
         sodipodi:nodetypes="cccc" />
      <path
         class="ColorScheme-Background  ColorScheme-Highlight"
         style="stroke-width:0.428566;fill-opacity:0.8;fill:currentColor;"
         sodipodi:nodetypes="cccccccc"
         d="m 14.999993,10.000002 v 0.699999 0 c 2,-0.02814 2.273962,1.300001 2.3,2.300001 v 0 h 0.7 v 0 c 0,-2 -1,-3 -3,-3 z"
         id="path999-2-5-7-2" />
    </g>
    <g
       id="slider-left">
      <path
         style="stroke-width:0.866025;stroke:none;fill-rule:evenodd;fill-opacity:0.6;fill:currentColor;opacity:0.6;"
         d="m 12.000001,14.000002 v 9.999999 h -3 v -9.999999 z"
         id="path3891"
         inkscape:connector-curvature="0"
         class="ColorScheme-Text  ColorScheme-Highlight" />
      <rect
         style="opacity:0.01;fill:#5e81ac;fill-opacity:0.6;stroke:none"
         id="rect3854"
         width="4"
         height="10"
         x="5.000001"
         y="14.000002" />
      <rect
         inkscape:label="#slider-center-1"
         class="ColorScheme-Text  ColorScheme-Highlight"
         y="14.000002"
         x="9.000001"
         height="10"
         width="0.69999999"
         id="rect4272-3-9"
         style="stroke-width:0.83666;stroke:none;fill-rule:evenodd;fill-opacity:0.8;fill:currentColor;" />
    </g>
    <g
       id="slider-right">
      <path
         id="rect3838"
         d="m 14.999993,14.000002 v 9.999999 h 3 v -9.999999 z"
         style="stroke-width:0.866025;stroke:none;fill-rule:evenodd;fill-opacity:0.6;fill:currentColor;opacity:0.6;"
         inkscape:connector-curvature="0"
         class="ColorScheme-Text  ColorScheme-Highlight" />
      <rect
         style="opacity:0.01;fill:#5e81ac;fill-opacity:0.6;stroke:none"
         id="rect3856"
         width="4"
         height="10"
         x="17.999992"
         y="14.000002" />
      <rect
         inkscape:label="#slider-center-1"
         class="ColorScheme-Text  ColorScheme-Highlight"
         y="14.000002"
         x="17.299994"
         height="10"
         width="0.69999999"
         id="rect4272-3-6-1"
         style="stroke-width:0.83666;stroke:none;fill-rule:evenodd;fill-opacity:0.8;fill:currentColor;" />
    </g>
    <g
       id="slider-bottomleft">
      <rect
         style="opacity:0.01;fill:#5e81ac;fill-opacity:0.6;stroke:none"
         id="rect3858"
         width="7"
         height="7"
         x="5.000001"
         y="25" />
      <path
         id="path3901"
         d="m 12.000001,28 v -3 h -3 c -10e-7,2 0.999999,3 3,3 z"
         style="stroke-width:0.75;stroke:none;fill-rule:evenodd;fill-opacity:0.6;fill:currentColor;opacity:0.6;"
         inkscape:connector-curvature="0"
         class="ColorScheme-Text  ColorScheme-Highlight"
         sodipodi:nodetypes="cccc" />
      <path
         class="ColorScheme-Background  ColorScheme-Highlight"
         style="stroke-width:0.428566;fill-opacity:0.8;fill:currentColor;"
         sodipodi:nodetypes="ccccccccc"
         d="m 12.000021,27.999979 v -0.7 0 c -1.431614,-0.02375 -2.3185428,-0.498782 -2.2999998,-2.3 v 0 h -0.7 v 0.0079 c -0.0074,1.9921 0.9999998,2.999562 2.9976598,2.9921 z"
         id="path999-2-5-7-0-2" />
    </g>
    <g
       id="slider-bottomright">
      <rect
         style="opacity:0.01;fill:#5e81ac;fill-opacity:0.6;stroke:none"
         id="rect3862"
         width="7"
         height="7"
         x="14.999993"
         y="25" />
      <path
         inkscape:connector-curvature="0"
         style="stroke-width:0.75;stroke:none;fill-rule:evenodd;fill-opacity:0.6;fill:currentColor;opacity:0.6;"
         d="m 14.999993,28 v -3 h 3 c 7e-6,2 -0.999993,3 -3,3 z"
         id="path3871"
         class="ColorScheme-Text  ColorScheme-Highlight"
         sodipodi:nodetypes="cccc" />
      <path
         class="ColorScheme-Background  ColorScheme-Highlight"
         style="stroke-width:0.428566;fill-opacity:0.8;fill:currentColor;"
         sodipodi:nodetypes="cccccccc"
         d="m 17.999993,25 h -0.7 v 0 c -0.01307,1.766872 -0.874654,2.274564 -2.3,2.3 v 0 0.7 0 c 2.02157,0 2.983488,-0.982993 3,-3 z"
         id="path999-2-5-7-0-9-7" />
    </g>
  </g>
</svg>
