<?xml version="1.0" encoding="UTF-8" standalone="no"?>
<svg
   id="svg4"
   version="1.1"
   viewBox="0 0 18 18"
   sodipodi:docname="breeze-close-hover-symbolic.svg"
   inkscape:version="1.3.2 (091e20ef0f, 2023-11-25)"
   xmlns:inkscape="http://www.inkscape.org/namespaces/inkscape"
   xmlns:sodipodi="http://sodipodi.sourceforge.net/DTD/sodipodi-0.dtd"
   xmlns="http://www.w3.org/2000/svg"
   xmlns:svg="http://www.w3.org/2000/svg">
  <defs
     id="defs1" />
  <sodipodi:namedview
     id="namedview1"
     pagecolor="#ffffff"
     bordercolor="#000000"
     borderopacity="0.25"
     inkscape:showpageshadow="2"
     inkscape:pageopacity="0.0"
     inkscape:pagecheckerboard="0"
     inkscape:deskcolor="#cccccc"
     inkscape:zoom="15.141874"
     inkscape:cx="7.0004547"
     inkscape:cy="3.2690803"
     inkscape:window-width="1920"
     inkscape:window-height="994"
     inkscape:window-x="0"
     inkscape:window-y="0"
     inkscape:window-maximized="1"
     inkscape:current-layer="svg4" />
  <path
     id="path905"
     class="color"
     d="m9 0a9 9 0 0 0-9 9 9 9 0 0 0 9 9 9 9 0 0 0 9-9 9 9 0 0 0-9-9zm-3.6465 4.6465 3.6465 3.6465 3.6465-3.6465 0.70705 0.70705-3.6465 3.6465 3.6465 3.6465-0.70705 0.70705-3.6465-3.6465-3.6465 3.6465-0.70705-0.70705 3.6465-3.6465-3.6465-3.6465z"
     fill="#fff"
     stroke-width="1.125" />
  <path
     id="path905-3"
     class="error"
     d="m9 0a9 9 0 0 0-9 9 9 9 0 0 0 9 9 9 9 0 0 0 9-9 9 9 0 0 0-9-9zm-3.6465 4.6465 3.6465 3.6465 3.6465-3.6465 0.70705 0.70705-3.6465 3.6465 3.6465 3.6465-0.70705 0.70705-3.6465-3.6465-3.6465 3.6465-0.70705-0.70705 3.6465-3.6465-3.6465-3.6465z"
     fill="#ff0404"
     opacity=".5"
     stroke-width="1.125" />
</svg>
