<?xml version="1.0" encoding="UTF-8" standalone="no"?>
<svg
   inkscape:version="1.3.2 (091e20ef0f, 2023-11-25)"
   sodipodi:docname="alldesktops.svg"
   style="enable-background:new"
   version="1.1"
   height="22"
   width="22"
   id="svg4306"
   xmlns:inkscape="http://www.inkscape.org/namespaces/inkscape"
   xmlns:sodipodi="http://sodipodi.sourceforge.net/DTD/sodipodi-0.dtd"
   xmlns="http://www.w3.org/2000/svg"
   xmlns:svg="http://www.w3.org/2000/svg"
   xmlns:rdf="http://www.w3.org/1999/02/22-rdf-syntax-ns#"
   xmlns:cc="http://creativecommons.org/ns#"
   xmlns:dc="http://purl.org/dc/elements/1.1/">
  <metadata
     id="metadata28">
    <rdf:RDF>
      <cc:Work
         rdf:about="">
        <dc:format>image/svg+xml</dc:format>
        <dc:type
           rdf:resource="http://purl.org/dc/dcmitype/StillImage" />
      </cc:Work>
    </rdf:RDF>
  </metadata>
  <defs
     id="defs26" />
  <sodipodi:namedview
     inkscape:bbox-nodes="true"
     inkscape:snap-bbox="true"
     inkscape:current-layer="svg4306"
     inkscape:window-maximized="1"
     inkscape:window-y="48"
     inkscape:window-x="0"
     inkscape:cy="23.687499"
     inkscape:cx="34.374998"
     inkscape:zoom="8.0000005"
     showgrid="false"
     id="namedview24"
     inkscape:window-height="948"
     inkscape:window-width="1920"
     inkscape:pageshadow="2"
     inkscape:pageopacity="0"
     guidetolerance="10"
     gridtolerance="10"
     objecttolerance="10"
     borderopacity="1"
     bordercolor="#000000"
     pagecolor="#ffffff"
     inkscape:document-rotation="0"
     inkscape:snap-intersection-paths="true"
     inkscape:lockguides="false"
     showguides="false"
     inkscape:pagecheckerboard="0"
     inkscape:showpageshadow="2"
     inkscape:deskcolor="#cccccc">
    <inkscape:grid
       id="grid853"
       type="xygrid"
       originx="0"
       originy="0"
       spacingy="1"
       spacingx="1"
       units="px"
       visible="false" />
  </sodipodi:namedview>
  <style
     id="current-color-scheme"
     type="text/css">.ColorScheme-Highlight { color:#5e81ac; }
</style>
  <g
     id="pressed-center"
     transform="translate(44,22)">
    <rect
       style="opacity:0.00100002;fill:#000000;fill-opacity:1;fill-rule:nonzero;stroke:none;stroke-width:2;stroke-linecap:round;stroke-linejoin:round;stroke-miterlimit:4;stroke-dasharray:none;stroke-opacity:1"
       y="0"
       x="-22"
       height="22"
       width="22"
       id="rect4266-6"
       transform="scale(-1)" />
    <rect
       width="16.797171"
       height="16.797194"
       rx="5.3985863"
       ry="5.3869576"
       x="2.6014149"
       y="-19.3986"
       id="rect3000-9-3-3-6"
       style="color:#000000;display:inline;overflow:visible;visibility:visible;fill:#8fbcbb;fill-opacity:1;stroke:#000405;stroke-width:1.20283;stroke-opacity:0.01;marker:none;enable-background:accumulate" />
    <path
       d="M 15.000005,-11.000002 C 15.000005,-8.791021 13.208983,-7 11.000002,-7 8.791021,-7 7,-8.791021 7,-11.000002 c 0,-2.208981 1.791021,-4.000002 4.000002,-4.000002 2.208981,0 4.000003,1.791021 4.000003,4.000002 z"
       id="path4-3-7"
       style="fill:#000000;stroke-width:0.00816327;enable-background:new" />
  </g>
  <g
     id="pressed-inactive-center"
     transform="translate(44,22)">
    <rect
       transform="scale(-1)"
       id="rect4266-6-3"
       width="22"
       height="22"
       x="-22"
       y="-22"
       style="opacity:0.00100002;fill:#000000;fill-opacity:1;fill-rule:nonzero;stroke:none;stroke-width:2;stroke-linecap:round;stroke-linejoin:round;stroke-miterlimit:4;stroke-dasharray:none;stroke-opacity:1" />
    <rect
       width="16.797211"
       height="16.797197"
       rx="5.3986053"
       ry="5.3869567"
       x="2.6013951"
       y="2.6014018"
       id="rect3000-9-3-3-6-5"
       style="color:#000000;display:inline;overflow:visible;visibility:visible;fill:#8fbcbb;fill-opacity:0.5;stroke:#000405;stroke-width:1.20279;stroke-opacity:0.01;marker:none;enable-background:accumulate" />
    <path
       d="m 15,11 c 0,2.208981 -1.791022,4.000002 -4.000003,4.000002 -2.208981,0 -4.000002,-1.791021 -4.000002,-4.000002 0,-2.208981 1.791021,-4.000002 4.000002,-4.000002 C 13.208978,6.999998 15,8.791019 15,11 Z"
       id="path4-3-7-3"
       style="fill:#000000;stroke-width:0.00816327;enable-background:new" />
  </g>
  <g
     id="hover-center"
     transform="translate(22)">
    <rect
       transform="scale(-1)"
       id="rect4266-6-6"
       width="22"
       height="22"
       x="-22"
       y="-22"
       style="opacity:0.00100002;fill:#000000;fill-opacity:1;fill-rule:nonzero;stroke:none;stroke-width:2;stroke-linecap:round;stroke-linejoin:round;stroke-miterlimit:4;stroke-dasharray:none;stroke-opacity:1" />
    <rect
       width="16.797211"
       height="16.797197"
       rx="5.3986053"
       ry="5.3869567"
       x="2.6013951"
       y="2.6014018"
       id="rect3000-9-3-36"
       style="color:#000000;display:inline;overflow:visible;visibility:visible;fill:#8fbcbb;fill-opacity:0.999491;stroke:#4e4e7e;stroke-width:1.20279;stroke-opacity:0.01;marker:none;enable-background:accumulate" />
    <path
       d="M 16.789999,16.000001 H 5.0899996 c -0.3588,0 -0.65,-0.223999 -0.65,-0.5 0,-0.276001 0.2912,-0.5 0.65,-0.5 H 16.789999 c 0.3588,0 0.65,0.223999 0.65,0.5 0,0.276001 -0.2912,0.5 -0.65,0.5 z"
       id="path2-7-7"
       style="fill:#001723;fill-opacity:1;stroke-width:0.285044;enable-background:new" />
    <path
       d="M 16.789999,7 H 5.0899996 c -0.3588,0 -0.65,-0.2239994 -0.65,-0.5 0,-0.2760006 0.2912,-0.5 0.65,-0.5 H 16.789999 c 0.3588,0 0.65,0.2239994 0.65,0.5 0,0.2760006 -0.2912,0.5 -0.65,0.5 z"
       id="path2-7-3-5"
       style="fill:#001723;fill-opacity:1;stroke-width:0.285044;enable-background:new" />
    <path
       d="M 14.8675,12 H 7.0825 C 6.8437598,12 6.65,11.552001 6.65,11 c 0,-0.552001 0.1937598,-1 0.4325,-1 h 7.785 c 0.23874,0 0.4325,0.447999 0.4325,1 0,0.552001 -0.19376,1 -0.4325,1 z"
       id="path2-7-6-3"
       style="fill:#001723;fill-opacity:1;stroke-width:0.328825;enable-background:new" />
  </g>
  <g
     id="inactive-center"
     transform="translate(22)">
    <rect
       style="opacity:0.00100002;fill:#000000;fill-opacity:1;fill-rule:nonzero;stroke:none;stroke-width:2;stroke-linecap:round;stroke-linejoin:round;stroke-miterlimit:4;stroke-dasharray:none;stroke-opacity:1"
       y="-44"
       x="0"
       height="22"
       width="22"
       id="rect4266-8"
       transform="scale(-1)" />
    <rect
       width="16.797211"
       height="16.797197"
       rx="5.3986053"
       ry="5.3869576"
       x="-19.398605"
       y="24.6014"
       id="rect3000-9-3-5"
       style="color:#000000;display:inline;overflow:visible;visibility:visible;fill:#ffffff;fill-opacity:0.0117647;stroke:#000405;stroke-width:1.20279;stroke-opacity:0.317647;marker:none;enable-background:accumulate" />
    <path
       d="m -5,38 h -11.7 c -0.3588,0 -0.65,-0.223999 -0.65,-0.5 0,-0.276001 0.2912,-0.5 0.65,-0.5 H -5 c 0.3588,0 0.65,0.223999 0.65,0.5 0,0.276001 -0.2912,0.5 -0.65,0.5 z"
       id="path2-7-62"
       style="enable-background:new;stroke-width:0.285044;fill-opacity:1;fill:currentColor;"
       class="ColorScheme-Highlight" />
    <path
       d="m -5,29 h -11.7 c -0.3588,0 -0.65,-0.223999 -0.65,-0.5 0,-0.276001 0.2912,-0.5 0.65,-0.5 H -5 c 0.3588,0 0.65,0.223999 0.65,0.5 0,0.276001 -0.2912,0.5 -0.65,0.5 z"
       id="path2-7-3-9"
       style="enable-background:new;stroke-width:0.285044;fill-opacity:1;fill:currentColor;"
       class="ColorScheme-Highlight" />
    <path
       d="m -7.0325,34 h -7.785 c -0.23874,0 -0.4325,-0.447999 -0.4325,-1 0,-0.552001 0.19376,-1 0.4325,-1 h 7.785 c 0.2387402,0 0.4325,0.447999 0.4325,1 0,0.552001 -0.1937598,1 -0.4325,1 z"
       id="path2-7-6-1"
       style="enable-background:new;stroke-width:0.328825;fill-opacity:1;fill:currentColor;"
       class="ColorScheme-Highlight" />
  </g>
  <g
     id="hover-inactive-center"
     transform="translate(22)">
    <rect
       style="opacity:0.00100002;fill:#000000;fill-opacity:1;fill-rule:nonzero;stroke:none;stroke-width:2;stroke-linecap:round;stroke-linejoin:round;stroke-miterlimit:4;stroke-dasharray:none;stroke-opacity:1"
       y="-44"
       x="-22"
       height="22"
       width="22"
       id="rect4266-6-6-6"
       transform="scale(-1)" />
    <rect
       width="16.797211"
       height="16.797197"
       rx="5.3986053"
       ry="5.3869576"
       x="2.6013951"
       y="24.6014"
       id="rect3000-9-3-2"
       style="color:#000000;display:inline;overflow:visible;visibility:visible;fill:#8fbcbb;fill-opacity:0.5;stroke:#000405;stroke-width:1.20279;stroke-opacity:0.01;marker:none;enable-background:accumulate" />
    <path
       d="M 16.79,38.000001 H 5.09 c -0.3588,0 -0.65,-0.223999 -0.65,-0.5 0,-0.276001 0.2912,-0.5 0.65,-0.5 h 11.7 c 0.3588,0 0.65,0.223999 0.65,0.5 0,0.276001 -0.2912,0.5 -0.65,0.5 z"
       id="path2-7-70"
       style="fill:#001723;fill-opacity:1;stroke-width:0.285044;enable-background:new" />
    <path
       d="M 16.79,29 H 5.09 C 4.7312,29 4.44,28.776001 4.44,28.5 4.44,28.223999 4.7312,28 5.09,28 h 11.7 c 0.3588,0 0.65,0.223999 0.65,0.5 0,0.276001 -0.2912,0.5 -0.65,0.5 z"
       id="path2-7-3-93"
       style="fill:#001723;fill-opacity:1;stroke-width:0.285044;enable-background:new" />
    <path
       d="M 14.8675,34 H 7.0825 C 6.8437598,34 6.65,33.552001 6.65,33 c 0,-0.552001 0.1937598,-1 0.4325,-1 h 7.785 c 0.23874,0 0.4325,0.447999 0.4325,1 0,0.552001 -0.19376,1 -0.4325,1 z"
       id="path2-7-6-6"
       style="fill:#001723;fill-opacity:1;stroke-width:0.328825;enable-background:new" />
  </g>
  <g
     id="active-center"
     transform="translate(22)"
     style="fill:#ffffff;fill-opacity:1">
    <rect
       transform="scale(-1)"
       id="rect4266"
       width="22"
       height="22"
       x="0"
       y="-22"
       style="opacity:0.00100002;fill:#ffffff;fill-opacity:1;fill-rule:nonzero;stroke:none;stroke-width:2;stroke-linecap:round;stroke-linejoin:round;stroke-miterlimit:4;stroke-dasharray:none;stroke-opacity:1" />
    <rect
       width="16.797211"
       height="16.797197"
       rx="5.3986053"
       ry="5.3869576"
       x="-19.398605"
       y="2.6014009"
       id="rect3000-9-3"
       style="color:#000000;display:inline;overflow:visible;visibility:visible;fill:#ffffff;fill-opacity:0.01;stroke:#000405;stroke-width:1.20279;stroke-opacity:0.317647;marker:none;enable-background:accumulate" />
    <path
       d="m -5.15,16 h -11.7 c -0.3588,0 -0.65,-0.223999 -0.65,-0.5 0,-0.276001 0.2912,-0.5 0.65,-0.5 h 11.7 c 0.3588,0 0.65,0.223999 0.65,0.5 0,0.276001 -0.2912,0.5 -0.65,0.5 z"
       id="path2-7"
       style="fill:#ffffff;fill-opacity:1;stroke-width:0.285044;enable-background:new" />
    <path
       d="m -5.15,7 h -11.7 c -0.3588,0 -0.65,-0.2239994 -0.65,-0.5 0,-0.2760006 0.2912,-0.5 0.65,-0.5 h 11.7 c 0.3588,0 0.65,0.2239994 0.65,0.5 0,0.2760006 -0.2912,0.5 -0.65,0.5 z"
       id="path2-7-3"
       style="fill:#ffffff;fill-opacity:1;stroke-width:0.285044;enable-background:new" />
    <path
       d="m -7.0325,12 h -7.785 c -0.23874,0 -0.4325,-0.447999 -0.4325,-1 0,-0.552001 0.19376,-1 0.4325,-1 h 7.785 c 0.23874,0 0.4325,0.447999 0.4325,1 0,0.552001 -0.19376,1 -0.4325,1 z"
       id="path2-7-36"
       style="fill:#ffffff;fill-opacity:1;stroke-width:0.328825;enable-background:new" />
  </g>
</svg>
