<?xml version="1.0" encoding="UTF-8" standalone="no"?>
<svg
   id="svg50"
   width="21.999996"
   height="22"
   version="1.1"
   sodipodi:docname="audio.svg"
   inkscape:version="1.2 (dc2aedaf03, 2022-05-15)"
   xmlns:inkscape="http://www.inkscape.org/namespaces/inkscape"
   xmlns:sodipodi="http://sodipodi.sourceforge.net/DTD/sodipodi-0.dtd"
   xmlns="http://www.w3.org/2000/svg"
   xmlns:svg="http://www.w3.org/2000/svg"
   xmlns:rdf="http://www.w3.org/1999/02/22-rdf-syntax-ns#"
   xmlns:cc="http://creativecommons.org/ns#"
   xmlns:dc="http://purl.org/dc/elements/1.1/">
  <style
     id="current-color-scheme"
     type="text/css">.ColorScheme-Highlight { color:#cdd8e5; }
.ColorScheme-Text { color:#eff0f1; }
</style>
  <metadata
     id="metadata67">
    <rdf:RDF>
      <cc:Work
         rdf:about="">
        <dc:format>image/svg+xml</dc:format>
        <dc:type
           rdf:resource="http://purl.org/dc/dcmitype/StillImage" />
      </cc:Work>
    </rdf:RDF>
  </metadata>
  <defs
     id="defs65" />
  <sodipodi:namedview
     pagecolor="#b3b3b3"
     bordercolor="#000000"
     borderopacity="1"
     objecttolerance="10"
     gridtolerance="10"
     guidetolerance="10"
     inkscape:pageopacity="0"
     inkscape:pageshadow="2"
     inkscape:window-width="1920"
     inkscape:window-height="1000"
     id="namedview63"
     showgrid="false"
     inkscape:zoom="4.9062498"
     inkscape:cx="-66.242041"
     inkscape:cy="30.878982"
     inkscape:window-x="0"
     inkscape:window-y="0"
     inkscape:window-maximized="1"
     inkscape:current-layer="svg50"
     inkscape:document-rotation="0"
     inkscape:lockguides="true"
     inkscape:showpageshadow="false"
     inkscape:pagecheckerboard="0"
     inkscape:deskcolor="#b3b3b3">
    <inkscape:grid
       type="xygrid"
       id="grid902"
       originx="0"
       originy="22" />
  </sodipodi:namedview>
  <g
     id="audio-volume-high"
     transform="translate(-96.000003,22)">
    <path
       style="opacity:0.00100002"
       d="M 0,0 H 32.000001 V 32.000001 H 0 Z"
       id="path2" />
    <path
       id="Sound"
       class="st0  ColorScheme-Highlight"
       d="M 17.678322,28 H 15.964037 L 9.1068936,21.142857 V 10.857143 H 7.3926079 V 21.142857 H 2.2497508 v -6 c 0,-2.357143 1.928571,-4.285714 4.285714,-4.285714 L 7.3926079,9.142857 H 8.2497508 L 9.1068936,8.371428 9.5354651,10.428571 15.964037,4 h 1.714285 z"
       style="fill:currentColor;fill-opacity:1;stroke-width:0.428571" />
    <path
       id="Sound-s"
       class="st1  ColorScheme-Text"
       d="m 23.249751,25.514286 c 1.457143,-1.114286 2.657143,-2.571429 3.471429,-4.2 0.814285,-1.671429 1.242857,-3.471429 1.242857,-5.314286 0,-1.842857 -0.428572,-3.642857 -1.242857,-5.314286 C 25.906894,9.014286 24.706894,7.6 23.249751,6.485714 l 1.028571,-1.371428 c 1.671429,1.285714 3,2.914285 3.942858,4.8 C 29.206894,11.8 29.678322,13.9 29.678322,16 c 0,2.1 -0.471428,4.2 -1.414285,6.085714 -0.942857,1.885714 -2.271429,3.514286 -3.942857,4.8 z M 22.22118,18.871428 c -0.385715,0.942858 -0.942858,1.8 -1.671429,2.485715 l 1.2,1.2 c 0.857143,-0.857143 1.585714,-1.928572 2.057143,-3.042857 0.471428,-1.157143 0.728571,-2.357143 0.728571,-3.6 0,-1.242858 -0.257143,-2.442858 -0.728571,-3.6 -0.471429,-1.157143 -1.157143,-2.185715 -2.057143,-3.042857 l -1.2,1.2 c 0.728571,0.728571 1.285714,1.585714 1.671429,2.485714 0.385714,0.942857 0.6,1.928571 0.6,2.957143 0,1.028571 -0.214286,2.057142 -0.6,2.957142 z M 3.9640368,19.428571 v -5.142857 c 0,-1.885714 1.542857,-3.428571 3.4285711,-3.428571 V 9.142857 c -2.8285711,0 -5.1428571,2.314286 -5.1428571,5.142857 v 5.142857 z M 13.478322,4 9.1068936,8.371428 v 2.485715 L 14.72118,5.242857 Z"
       style="fill:currentColor;fill-opacity:1;stroke-width:0.428571" />
  </g>
  <g
     id="22-22-audio-volume-high"
     transform="translate(-96.000003)">
    <path
       style="opacity:0.00100002"
       d="M 0,0 H 22 V 22 H 0 Z"
       id="path7" />
    <path
       id="Sound-36"
       class="st0  ColorScheme-Highlight"
       d="M 12.125,19 H 11 L 6.5000005,14.428571 V 7.571429 H 5.3749996 v 6.857142 H 2 v -4 C 2,8.857143 3.2656248,7.571429 4.8125002,7.571429 L 5.3749996,6.428571 H 5.9375001 L 6.5000005,5.914285 6.7812502,7.285714 11,3 h 1.125 z"
       style="fill:currentColor;fill-opacity:1;stroke-width:0.283474" />
    <path
       id="Sound-s-7"
       class="st1  ColorScheme-Text"
       d="M 15.78125,17.342857 C 16.7375,16.6 17.525001,15.628571 18.059375,14.542857 18.59375,13.428571 18.875,12.228571 18.875,11 18.875,9.771429 18.59375,8.571429 18.059375,7.457143 17.525001,6.342857 16.7375,5.4 15.78125,4.657143 l 0.675,-0.914286 C 17.553126,4.6 18.425,5.685714 19.04375,6.942857 19.690626,8.2 20,9.6 20,11 c 0,1.4 -0.309374,2.8 -0.928125,4.057143 -0.618749,1.257142 -1.490625,2.342857 -2.5875,3.2 z m -0.675,-4.428572 c -0.253124,0.628572 -0.61875,1.2 -1.096875,1.657144 l 0.7875,0.8 c 0.562501,-0.571429 1.040625,-1.285715 1.35,-2.028572 0.309375,-0.771428 0.478125,-1.571428 0.478125,-2.4 0,-0.828572 -0.16875,-1.628572 -0.478125,-2.4 C 15.8375,7.771429 15.3875,7.085714 14.796875,6.514286 l -0.7875,0.8 C 14.4875,7.8 14.853126,8.371429 15.10625,8.971429 15.359376,9.6 15.5,10.257143 15.5,10.942857 c 0,0.685714 -0.140624,1.371428 -0.39375,1.971428 z M 3.1249999,13.285714 V 9.857143 C 3.1249999,8.6 4.1375005,7.571429 5.3749996,7.571429 V 6.428571 C 3.5187499,6.428571 2,7.971429 2,9.857143 v 3.428571 z M 9.3687499,3 6.5000005,5.914285 V 7.571429 L 10.184375,3.828571 Z"
       style="fill:currentColor;fill-opacity:1;stroke-width:0.283474" />
  </g>
  <g
     id="audio-volume-low"
     transform="translate(-32.000001)">
    <path
       style="opacity:0.00100002"
       d="M 0,22 H 32.000001 V 54.000001 H 0 Z"
       id="path38" />
    <path
       id="Sound-7"
       class="st0  ColorScheme-Highlight"
       d="M 17.678571,50 H 15.964286 L 9.107143,43.142857 V 32.857143 H 7.392857 V 43.142857 H 2.25 v -6 c 0,-2.357143 1.928571,-4.285714 4.285714,-4.285714 L 7.392857,31.142857 H 8.25 L 9.107143,30.371428 9.535714,32.428571 15.964286,26 h 1.714285 z"
       style="fill:currentColor;fill-opacity:1;stroke-width:0.428571" />
    <path
       id="Sound-s-5"
       class="st1  ColorScheme-Text"
       d="m 13.478571,26 v 0 L 14.721429,27.242857 13.478571,26 v 0 l 1.242858,1.242857 v 0 L 13.478571,26 l 1.242858,1.242857 v 0 z m 0,0 v 0 l 1.242858,1.242857 v 0 0 0 0 z M 3.964286,41.428571 v -5.142857 c 0,-1.885714 1.542857,-3.428571 3.428571,-3.428571 V 31.142857 C 4.564286,31.142857 2.25,33.457143 2.25,36.285714 v 5.142857 z M 13.478571,26 9.107143,30.371428 v 2.485715 l 5.614286,-5.614286 z"
       style="fill:currentColor;fill-opacity:1;stroke-width:0.428571"
       sodipodi:nodetypes="cccccccccccccccccccccccsccsccccccc" />
    <path
       id="Sound-s-3-6"
       class="st1  ColorScheme-Text"
       d="M 22.628571,47.514286 C 24.085714,46.4 25.285714,44.942858 26.1,43.314287 c 0.814285,-1.671429 1.242857,-3.47143 1.242857,-5.314286 0,-1.842856 -0.428572,-3.642857 -1.242857,-5.314285 C 25.285714,31.014288 24.085714,29.6 22.628571,28.485714 l 1.028571,-1.371428 c 1.671429,1.285714 3,2.914287 3.942858,4.8 0.985714,1.885716 1.457142,3.985716 1.457142,6.085716 0,2.1 -0.471428,4.2 -1.414285,6.085714 C 26.7,45.971429 25.371428,47.600001 23.7,48.885715 Z M 21.6,40.871428 c -0.385715,0.942859 -0.942858,1.8 -1.671429,2.485715 l 1.2,1.2 c 0.857143,-0.857142 1.585714,-1.928572 2.057143,-3.042857 0.471428,-1.157143 0.728571,-2.357142 0.728571,-3.599999 0,-1.242858 -0.257143,-2.442858 -0.728571,-3.6 -0.471429,-1.157143 -1.157143,-2.185715 -2.057143,-3.042857 l -1.2,1.2 c 0.728571,0.728571 1.285714,1.585714 1.671429,2.485714 0.385714,0.942857 0.6,1.928571 0.6,2.957143 0,1.028571 -0.214286,2.057142 -0.6,2.957141 z m 1.028571,-12.385714 v 0 0 l 1.028571,-1.371428 v 0 0 z m 1.028571,-1.371428 v 0 l -1.028571,1.371428 v 0 z"
       style="fill:currentColor;fill-opacity:0.3;stroke-width:0.428571"
       sodipodi:nodetypes="ccsscccssccccccsscccsccccccccccccc" />
  </g>
  <g
     id="audio-volume-medium"
     transform="translate(-32.000001)">
    <path
       style="opacity:0.00100002"
       d="M -32.000001,22 H 0 v 32.000001 h -32.000001 z"
       id="path31" />
    <path
       id="Sound-3"
       class="st0  ColorScheme-Highlight"
       d="m -14.32143,50 h -1.714285 l -6.857143,-6.857143 V 32.857143 h -1.714286 v 10.285714 h -5.142857 v -6 c 0,-2.357143 1.928571,-4.285714 4.285714,-4.285714 l 0.857143,-1.714286 h 0.857143 l 0.857143,-0.771429 0.428571,2.057143 L -16.035715,26 h 1.714285 z"
       style="fill:currentColor;fill-opacity:1;stroke-width:0.428571" />
    <path
       id="Sound-s-6"
       class="st1  ColorScheme-Text"
       d="m -18.52143,26 v 0 l 1.242858,1.242857 v 0 0 L -18.52143,26 v 0 0 0 l 1.242858,1.242857 z m 1.242858,1.242857 L -18.52143,26 -17.278572,27.242857 -18.52143,26 -17.278572,27.242857 -18.52143,26 l 1.242858,1.242857 v 0 0 L -18.52143,26 Z m -10.757143,14.185714 v -5.142857 c 0,-1.885714 1.542857,-3.428571 3.428571,-3.428571 v -1.714286 c -2.828571,0 -5.142857,2.314286 -5.142857,5.142857 v 5.142857 z M -18.52143,26 l -4.371428,4.371428 v 2.485715 l 5.614286,-5.614286 z"
       style="fill:currentColor;fill-opacity:1;stroke-width:0.428571"
       sodipodi:nodetypes="cccccccccccccccccccccccsccsccccccc" />
    <path
       id="Sound-s-3"
       class="st1  ColorScheme-Text"
       d="m -8.678571,47.514286 c 1.457143,-1.114286 2.657143,-2.571428 3.471429,-4.199999 0.814285,-1.671429 1.242857,-3.47143 1.242857,-5.314286 0,-1.842857 -0.428572,-3.642857 -1.242857,-5.314286 C -6.021428,31.014286 -7.221428,29.6 -8.678571,28.485714 L -7.65,27.114286 c 1.671429,1.285714 3,2.914285 3.942858,4.8 0.985714,1.885715 1.457142,3.985715 1.457142,6.085715 0,2.1 -0.471428,4.2 -1.414285,6.085714 -0.942857,1.885714 -2.271429,3.514285 -3.942857,4.799999 z m -1.028571,-6.642858 c -0.385715,0.942859 -0.942858,1.8 -1.671429,2.485715 l 1.2,1.2 c 0.857143,-0.857143 1.585714,-1.928572 2.057143,-3.042857 0.471428,-1.157143 0.728571,-2.357143 0.728571,-3.6 0,-1.242858 -0.257143,-2.442858 -0.728571,-3.6 -0.471429,-1.157143 -1.157143,-2.185715 -2.057143,-3.042857 l -1.2,1.2 c 0.728571,0.728571 1.285714,1.585714 1.671429,2.485714 0.385714,0.942857 0.6,1.928571 0.6,2.957143 0,1.028571 -0.214286,2.057142 -0.6,2.957142 z m 1.028571,-12.385714 v 0 0 L -7.65,27.114286 v 0 0 z M -7.65,27.114286 v 0 l -1.028571,1.371428 v 0 z"
       style="fill:currentColor;fill-opacity:0.6;stroke-width:0.428571"
       sodipodi:nodetypes="ccsscccssccccccsscccsccccccccccccc" />
  </g>
  <g
     id="22-22-audio-volume-medium"
     transform="translate(-32.000001)">
    <g
       id="g2654">
      <path
         style="opacity:0.00100002;fill:#c8b7b7"
         d="m -32.000001,0 h 22 v 22 h -22 z"
         id="path12" />
      <path
         id="Sound-3-6"
         class="st0  ColorScheme-Highlight"
         d="m -19.9013,19 h -1.122078 l -4.488313,-4.571429 V 7.571429 h -1.12207 v 6.857142 h -3.36624 v -4 c 0,-1.571428 1.26234,-2.857142 2.80519,-2.857142 l 0.56105,-1.142858 h 0.56103 l 0.56104,-0.514286 0.28052,1.371429 L -21.023378,3 h 1.122078 z"
         style="fill:currentColor;fill-opacity:1;stroke-width:0.283105" />
      <path
         id="Sound-s-6-2"
         class="st1  ColorScheme-Text"
         d="m -22.650391,3 v 0 l 0.81351,0.828571 v 0 0 L -22.650391,3 v 0 0 0 l 0.81351,0.828571 z m 0.81351,0.828571 L -22.650391,3 -21.836881,3.828571 -22.650391,3 -21.836881,3.828571 -22.650391,3 l 0.81351,0.828571 v 0 0 L -22.650391,3 Z m -7.04104,9.457143 V 9.857143 c 0,-1.257143 1.00987,-2.285714 2.24416,-2.285714 V 6.428571 c -1.85143,0 -3.36624,1.542858 -3.36624,3.428572 v 3.428571 z M -22.650391,3 l -2.8613,2.914285 v 1.657144 l 3.67481,-3.742858 z"
         style="stroke-width:0.283105;fill-opacity:1;fill:currentColor"
         sodipodi:nodetypes="cccccccccccccccccccccccsccsccccccc" />
      <path
         id="Sound-s-3-9"
         class="st1  ColorScheme-Text"
         d="m -16.207793,17.342857 c 0.953767,-0.742857 1.739221,-1.714285 2.272208,-2.799999 0.532987,-1.114286 0.813507,-2.314287 0.813507,-3.542857 0,-1.228572 -0.28052,-2.428572 -0.813507,-3.542858 -0.532987,-1.114286 -1.318441,-2.057143 -2.272208,-2.8 l 0.673247,-0.914286 c 1.094026,0.857143 1.963636,1.942857 2.580779,3.2 0.645195,1.257144 0.953766,2.657144 0.953766,4.057144 0,1.4 -0.308571,2.8 -0.925714,4.057142 -0.617143,1.257143 -1.486753,2.342857 -2.580779,3.2 z m -0.673246,-4.428572 c -0.252468,0.628573 -0.617144,1.2 -1.094026,1.657144 l 0.785454,0.8 c 0.561039,-0.571429 1.037922,-1.285715 1.346494,-2.028572 0.308571,-0.771428 0.476882,-1.571428 0.476882,-2.4 0,-0.828572 -0.168311,-1.628572 -0.476882,-2.4 -0.308572,-0.771428 -0.757403,-1.457143 -1.346494,-2.028571 l -0.785454,0.8 c 0.476882,0.485714 0.841558,1.057143 1.094026,1.657143 0.252467,0.628571 0.392727,1.285714 0.392727,1.971428 0,0.685714 -0.14026,1.371428 -0.392727,1.971428 z m 0.673246,-8.257142 v 0 0 l 0.673247,-0.914286 v 0 0 z m 0.673247,-0.914286 v 0 l -0.673247,0.914286 v 0 z"
         style="fill:currentColor;fill-opacity:0.6;stroke-width:0.283105"
         sodipodi:nodetypes="ccsscccssccccccsscccsccccccccccccc" />
    </g>
  </g>
  <g
     id="22-22-audio-volume-low"
     transform="translate(-32.000001)">
    <path
       style="opacity:0.00100002"
       d="M 0,0 H 22 V 22 H 0 Z"
       id="path19" />
    <path
       id="Sound-3-6-9"
       class="st0  ColorScheme-Highlight"
       d="M 12.098699,19 H 10.976621 L 6.48831,14.428571 V 7.571429 H 5.36624 v 6.857142 H 2 v -4 C 2,8.857143 3.26234,7.571429 4.80519,7.571429 L 5.36624,6.428571 H 5.92727 L 6.48831,5.914285 6.76883,7.285714 10.976621,3 h 1.122078 z"
       style="fill:currentColor;fill-opacity:1;stroke-width:0.283105" />
    <path
       id="Sound-s-6-2-3"
       class="st1  ColorScheme-Text"
       d="m 9.34961,3 v 0 l 0.81351,0.828571 v 0 0 L 9.34961,3 v 0 0 0 l 0.81351,0.828571 z M 10.16312,3.828571 9.34961,3 10.16312,3.828571 9.34961,3 10.16312,3.828571 9.34961,3 10.16312,3.828571 v 0 0 L 9.34961,3 Z M 3.12208,13.285714 V 9.857143 C 3.12208,8.6 4.13195,7.571429 5.36624,7.571429 V 6.428571 C 3.51481,6.428571 2,7.971429 2,9.857143 v 3.428571 z M 9.34961,3 6.48831,5.914285 v 1.657144 l 3.67481,-3.742858 z"
       style="stroke-width:0.283105;fill-opacity:1;fill:currentColor;"
       sodipodi:nodetypes="cccccccccccccccccccccccsccsccccccc" />
    <path
       id="Sound-s-3-9-6"
       class="st1  ColorScheme-Text"
       d="m 15.792206,17.342857 c 0.953767,-0.742857 1.739221,-1.714285 2.272208,-2.799999 0.532987,-1.114286 0.813507,-2.314287 0.813507,-3.542857 0,-1.228572 -0.28052,-2.428572 -0.813507,-3.542858 C 17.531427,6.342857 16.745973,5.4 15.792206,4.657143 l 0.673247,-0.914286 c 1.094026,0.857143 1.963636,1.942857 2.580779,3.2 0.645195,1.257144 0.953766,2.657144 0.953766,4.057144 0,1.4 -0.308571,2.8 -0.925714,4.057142 -0.617143,1.257143 -1.486753,2.342857 -2.580779,3.2 z M 15.11896,12.914285 c -0.252468,0.628573 -0.617144,1.2 -1.094026,1.657144 l 0.785454,0.8 C 15.371427,14.8 15.84831,14.085714 16.156882,13.342857 c 0.308571,-0.771428 0.476882,-1.571428 0.476882,-2.4 0,-0.828572 -0.168311,-1.628572 -0.476882,-2.4 C 15.84831,7.771429 15.399479,7.085714 14.810388,6.514286 l -0.785454,0.8 C 14.501816,7.8 14.866492,8.371429 15.11896,8.971429 c 0.252467,0.628571 0.392727,1.285714 0.392727,1.971428 0,0.685714 -0.14026,1.371428 -0.392727,1.971428 z m 0.673246,-8.257142 v 0 0 l 0.673247,-0.914286 v 0 0 z m 0.673247,-0.914286 v 0 l -0.673247,0.914286 v 0 z"
       style="fill:currentColor;fill-opacity:0.3;stroke-width:0.283105"
       sodipodi:nodetypes="ccsscccssccccccsscccsccccccccccccc" />
  </g>
  <g
     id="22-22-audio-volume-muted">
    <path
       style="opacity:0.00100002"
       d="M 0,0 H 21.999997 V 22 H 0 Z"
       id="path26" />
    <path
       id="Sound-3-6-9-8"
       class="st0  ColorScheme-Highlight"
       d="M 12.098699,19 H 10.976621 L 6.48831,14.428571 V 7.571429 H 5.36624 v 6.857142 H 2 v -4 C 2,8.857143 3.26234,7.571429 4.80519,7.571429 L 5.36624,6.428571 H 5.92727 L 6.48831,5.914285 6.76883,7.285714 10.976621,3 h 1.122078 z"
       style="fill:currentColor;fill-opacity:1;stroke-width:0.283105" />
    <path
       id="Sound-s-6-2-3-9"
       class="st1  ColorScheme-Text"
       d="m 9.34961,3 v 0 l 0.81351,0.828571 v 0 0 L 9.34961,3 v 0 0 0 l 0.81351,0.828571 z M 10.16312,3.828571 9.34961,3 10.16312,3.828571 9.34961,3 10.16312,3.828571 9.34961,3 10.16312,3.828571 v 0 0 L 9.34961,3 Z M 3.12208,13.285714 V 9.857143 C 3.12208,8.6 4.13195,7.571429 5.36624,7.571429 V 6.428571 C 3.51481,6.428571 2,7.971429 2,9.857143 v 3.428571 z M 9.34961,3 6.48831,5.914285 v 1.657144 l 3.67481,-3.742858 z"
       style="stroke-width:0.283105;fill-opacity:1;fill:currentColor;"
       sodipodi:nodetypes="cccccccccccccccccccccccsccsccccccc" />
    <path
       id="path29"
       d="m 14.001217,8.0547057 h 0.749703 c 0.0077,-7.5e-5 0.01562,-2.775e-4 0.02339,0 0.191137,0.00675 0.382251,0.096492 0.515421,0.2344433 L 17,10 18.733694,8.289149 c 0.199142,-0.172945 0.334872,-0.2291934 0.515424,-0.2344433 h 0.749705 v 0.7499785 c 0,0.2149289 -0.02569,0.4130282 -0.187426,0.5624839 l -1.710268,1.7109189 1.68684,1.687451 c 0.141084,0.141139 0.210848,0.340093 0.210854,0.53904 v 0.749986 h -0.749701 c -0.198897,-7e-6 -0.397783,-0.06937 -0.538851,-0.210924 l -1.710267,-1.710866 -1.710267,1.710866 c -0.141065,0.141131 -0.339959,0.210924 -0.53885,0.210924 h -0.749704 v -0.749986 c -3e-6,-0.198939 0.06976,-0.397901 0.210862,-0.53904 L 15.922312,11.078087 14.212045,9.3671681 C 14.054056,9.2212973 13.984758,9.0152782 14.001183,8.8046842 Z"
       style="color:#eff0f1;fill:#da4453;fill-opacity:1;stroke-width:0.937303"
       class="ColorScheme-Text" />
  </g>
  <g
     id="audio-volume-muted">
    <path
       style="opacity:0.00100002"
       d="M 0,22 H 31.999997 V 54.000001 H 0 Z"
       id="path45" />
    <path
       id="Sound-7-2"
       class="st0  ColorScheme-Highlight"
       d="M 17.678571,50 H 15.964286 L 9.107143,43.142857 V 32.857143 H 7.392857 V 43.142857 H 2.25 v -6 c 0,-2.357143 1.928571,-4.285714 4.285714,-4.285714 L 7.392857,31.142857 H 8.25 L 9.107143,30.371428 9.535714,32.428571 15.964286,26 h 1.714285 z"
       style="fill:currentColor;fill-opacity:1;stroke-width:0.428571" />
    <path
       id="Sound-s-5-3"
       class="st1  ColorScheme-Text"
       d="m 13.478571,26 v 0 L 14.721429,27.242857 13.478571,26 v 0 l 1.242858,1.242857 v 0 L 13.478571,26 l 1.242858,1.242857 v 0 z m 0,0 v 0 l 1.242858,1.242857 v 0 0 0 0 z M 3.964286,41.428571 v -5.142857 c 0,-1.885714 1.542857,-3.428571 3.428571,-3.428571 V 31.142857 C 4.564286,31.142857 2.25,33.457143 2.25,36.285714 v 5.142857 z M 13.478571,26 9.107143,30.371428 v 2.485715 l 5.614286,-5.614286 z"
       style="fill:currentColor;fill-opacity:1;stroke-width:0.428571"
       sodipodi:nodetypes="cccccccccccccccccccccccsccsccccccc" />
    <path
       id="path29-7"
       d="m 20.002036,32.757845 h 1.249505 c 0.01287,-1.25e-4 0.02603,-4.63e-4 0.03898,0 0.318564,0.01125 0.637086,0.16082 0.859036,0.390738 L 25,36 27.889489,33.148583 c 0.331902,-0.288241 0.558119,-0.381989 0.859039,-0.390738 h 1.249507 v 1.249963 c 0,0.358215 -0.04282,0.68838 -0.312376,0.937473 l -2.850444,2.851529 2.811398,2.812418 c 0.235139,0.23523 0.351413,0.566821 0.351422,0.898399 v 1.249976 h -1.2495 c -0.331495,-1.3e-5 -0.662972,-0.115622 -0.898084,-0.35154 l -2.850444,-2.851442 -2.850443,2.851442 c -0.235109,0.235218 -0.566598,0.35154 -0.898082,0.35154 h -1.249508 v -1.249976 c -3e-6,-0.331566 0.116267,-0.663169 0.351437,-0.898399 l 2.850443,-2.812418 -2.850443,-2.851529 c -0.26331,-0.243118 -0.378807,-0.586483 -0.351433,-0.937473 z"
       style="color:#eff0f1;fill:#da4453;fill-opacity:1;stroke-width:1.56217"
       class="ColorScheme-Text" />
  </g>
</svg>
