<?xml version="1.0" encoding="UTF-8" standalone="no"?>
<svg
   width="22"
   height="22"
   version="1"
   id="svg1154"
   sodipodi:docname="cadence.svg"
   inkscape:version="1.2.1 (9c6d41e410, 2022-07-14)"
   xmlns:inkscape="http://www.inkscape.org/namespaces/inkscape"
   xmlns:sodipodi="http://sodipodi.sourceforge.net/DTD/sodipodi-0.dtd"
   xmlns="http://www.w3.org/2000/svg"
   xmlns:svg="http://www.w3.org/2000/svg">
  <style
     id="current-color-scheme"
     type="text/css">.ColorScheme-Text { color:#eff0f1; }
.ColorScheme-Highlight { color:#cdd8e5; }
</style>
  <sodipodi:namedview
     id="namedview1156"
     pagecolor="#ffffff"
     bordercolor="#666666"
     borderopacity="1.0"
     inkscape:showpageshadow="2"
     inkscape:pageopacity="0.0"
     inkscape:pagecheckerboard="0"
     inkscape:deskcolor="#d1d1d1"
     showgrid="false"
     inkscape:zoom="7.375"
     inkscape:cx="25.491525"
     inkscape:cy="6.3050847"
     inkscape:window-width="1920"
     inkscape:window-height="1004"
     inkscape:window-x="0"
     inkscape:window-y="0"
     inkscape:window-maximized="1"
     inkscape:current-layer="svg1154" />
  <defs
     id="l4k1">
    <style
       type="text/css"
       id="current-color-scheme" />
  </defs>
  <g
     id="g1711"
     style="fill:#d1d5e9;fill-opacity:1"
     transform="translate(22,-10)">
    <rect
       style="opacity:0.00100002;fill:#d1d5e9;fill-opacity:1"
       width="32"
       height="32"
       x="0"
       y="0"
       id="rect1149" />
  </g>
  <g
     id="cadence"
     transform="translate(22,-10)">
    <path
       id="External"
       class="st0  ColorScheme-Highlight "
       d="m 5,4 h 22.285714 v 18 c 0,2.357143 -1.928571,4.285714 -4.285714,4.285714 H 5 Z"
       style="fill:currentColor;fill-opacity:1;stroke-width:0.428571" />
    <path
       id="External-s"
       class="st1  -Text  ColorScheme-Text "
       d="m 16.742857,15.742857 z m 8.828572,-3.171428 v 10.285714 c 0,1.885714 -1.542858,3.428571 -3.428572,3.428571 H 6.714286 V 28 h 15.428571 c 2.828572,0 5.142857,-2.314286 5.142857,-5.142857 V 12.571429 Z"
       sodipodi:nodetypes="cccccccccccssccsscc"
       style="fill:currentColor;fill-opacity:1;stroke-width:0.428571" />
    <path
       style="stroke-width:0.666661;fill-opacity:1;fill:currentColor;"
       d="m 16.142742,7.484 c -0.90495,0.01507 -2.284954,0.22552 -2.642558,0.615245 -0.381361,0.415603 -0.463967,0.999922 -0.357419,1.646502 0.203125,1.232684 1.905347,2.743963 2.914041,4.103574 -0.0071,0.0081 -0.01443,0.01851 -0.02148,0.02739 -0.508071,0.632284 -1.567719,1.212297 -2.062485,1.703147 0.07975,-0.359242 0.137172,-1.149462 0.150389,-1.39846 0.01133,-0.213295 0.0056,-0.378794 -0.06055,-0.513673 -0.03308,-0.06747 -0.09242,-0.132105 -0.173827,-0.158205 -0.0814,-0.02619 -0.165397,-0.0081 -0.238281,0.02535 -0.196784,0.504934 -0.522263,1.184187 -0.787103,1.818381 -0.243542,0.404485 -0.415713,1.128743 -0.52734,1.386742 -0.05748,0.132855 -0.100288,0.24871 -0.126952,0.349614 -0.02512,0.09509 -0.03744,0.178586 -0.0332,0.255861 0.139119,0.187597 0.364066,0.160155 0.546871,0.171878 0.07935,-0.0012 0.162268,-0.01494 0.253905,-0.07027 0.215047,-0.130096 0.478399,-0.33568 0.75976,-0.576183 -0.20067,0.664211 -0.234612,0.875998 -0.554684,1.619165 -0.0044,0.01037 -0.01113,0.02095 -0.01562,0.03124 -1.688887,-0.229903 -3.4501458,-0.08413 -4.6425458,0.326171 -0.62546,0.215258 -1.107125,0.694966 -1.294911,1.224625 -0.187792,0.529673 -0.07338,1.202628 0.398437,2.037141 0.471848,0.834516 0.992337,1.217043 1.546854,1.33596 0.55452,0.1189 1.1083178,-0.03656 1.6210898,-0.45119 0.977563,-0.790365 1.859013,-2.62403 2.544903,-4.168014 0.01127,0.0023 0.02392,0.0028 0.03516,0.0043 0.807734,0.119161 1.582556,1.20628 2.259751,1.38478 -0.354599,0.111341 -0.769438,0.226617 -0.994135,0.339849 -0.192385,0.09693 -0.33492,0.184477 -0.419918,0.308599 -0.04249,0.06203 -0.07058,0.145727 -0.05273,0.228516 0.01785,0.08274 0.07625,0.146035 0.142576,0.19141 0.132644,0.09071 0.320903,0.140708 0.601558,0.181641 0.280654,0.04088 0.750684,0.06591 1.226554,0.07228 0.0014,1.8e-5 0.0024,-1.8e-5 0.004,0 0.0014,-1.8e-5 0.0024,1.8e-5 0.004,0 0.47587,-0.0072 0.9459,-0.03128 1.226553,-0.07228 0.280656,-0.04088 0.468915,-0.09086 0.601559,-0.181641 0.06632,-0.04547 0.124727,-0.108618 0.142577,-0.19141 0.01785,-0.08274 -0.01023,-0.166457 -0.05273,-0.228516 -0.085,-0.124122 -0.227535,-0.211648 -0.41992,-0.308599 -0.224697,-0.113231 -0.639536,-0.228508 -0.994133,-0.339849 0.677194,-0.1785 1.452014,-1.265619 2.259749,-1.38478 0.01125,-0.0023 0.02391,-0.0027 0.03516,-0.0043 0.685891,1.543984 1.567341,3.377649 2.544905,4.168014 0.512766,0.41458 1.066565,0.57009 1.621082,0.45119 0.554517,-0.118917 1.075011,-0.501444 1.546863,-1.33596 0.471857,-0.834513 0.586228,-1.507468 0.398438,-2.037141 -0.187794,-0.529659 -0.669455,-1.009367 -1.294915,-1.224625 -1.192409,-0.410376 -2.953664,-0.556074 -4.642546,-0.326171 -0.0044,-0.01037 -0.01123,-0.02094 -0.01561,-0.03124 -0.320074,-0.743167 -0.354013,-0.954954 -0.554683,-1.619165 0.281361,0.240503 0.544713,0.446087 0.75976,0.576183 0.09164,0.05534 0.174555,0.06953 0.253905,0.07027 0.182805,-0.0118 0.407751,0.01568 0.54687,-0.171878 0.0042,-0.07735 -0.0081,-0.160801 -0.0332,-0.255861 -0.02665,-0.100904 -0.06947,-0.216759 -0.126952,-0.349614 -0.111627,-0.257999 -0.283798,-0.982257 -0.52734,-1.386742 -0.26484,-0.634194 -0.59032,-1.313447 -0.787104,-1.818381 -0.07289,-0.03414 -0.156881,-0.05153 -0.23828,-0.02535 -0.0814,0.02617 -0.140747,0.09072 -0.173827,0.158205 -0.06616,0.13488 -0.07187,0.300378 -0.06055,0.513673 0.01321,0.248998 0.07064,1.039218 0.15039,1.39846 -0.494766,-0.490844 -1.554413,-1.070861 -2.062485,-1.703145 -0.0072,-0.008 -0.01449,-0.01849 -0.02148,-0.02739 1.008685,-1.359612 2.710908,-2.870894 2.914034,-4.103575 C 19.249496,9.099167 19.166882,8.51485 18.785529,8.099247 18.427924,7.709518 17.047921,7.498994 16.14297,7.484002 Z"
       id="path1151-3"
       class="ColorScheme-Text" />
    <path
       id="path14"
       d="M 0,0 V 32 H 32 V 0 Z"
       style="fill:none" />
  </g>
  <g
     id="22-22-cadence">
    <rect
       style="opacity:0.00100002;fill:#d1d5e9;fill-opacity:1"
       width="22"
       height="22"
       x="0"
       y="0"
       id="rect1144" />
    <path
       id="External-3"
       class="st0  ColorScheme-Highlight"
       d="m 3.5,3 h 14.857143 v 12.000001 c 0,1.571427 -1.285714,2.857142 -2.857142,2.857142 H 3.5 Z"
       style="fill:currentColor;fill-opacity:1;stroke-width:0.285714" />
    <path
       id="External-s-6"
       class="st1  ColorScheme-Text "
       d="m 11.328572,10.828572 z m 5.885713,-2.114286 v 6.857142 c 0,1.257142 -1.028572,2.285714 -2.285714,2.285714 H 4.642857 v 1.142857 h 10.285715 c 1.885713,0 3.42857,-1.542857 3.42857,-3.428571 V 8.714286 Z"
       sodipodi:nodetypes="cccccccccccssccsscc"
       style="fill:currentColor;fill-opacity:1;stroke-width:0.285714" />
    <path
       style="stroke-width:0.416657;fill-opacity:1;fill:currentColor;"
       d="M 10.824931,5.500003 C 10.259338,5.509453 9.3968417,5.6409516 9.17334,5.8845278 8.9349898,6.1442786 8.88336,6.5094759 8.9499514,6.9135852 9.0769075,7.6840119 10.140789,8.6285551 10.771222,9.478309 c -0.0049,0.005 -0.009,0.01153 -0.01346,0.01715 -0.317546,0.395177 -0.979825,0.757684 -1.2890499,1.064466 0.049816,-0.224529 0.08573,-0.718414 0.093994,-0.87404 0.00709,-0.133305 0.00368,-0.236741 -0.037809,-0.32104 -0.020666,-0.04219 -0.057758,-0.08256 -0.1086435,-0.09888 -0.050849,-0.01639 -0.1033705,-0.0049 -0.1489187,0.01581 -0.1229928,0.315587 -0.3264158,0.740117 -0.4919411,1.136486 -0.1522118,0.252801 -0.2598183,0.705461 -0.3295858,0.866707 -0.0359,0.08303 -0.062674,0.155444 -0.079358,0.218508 -0.0157,0.05947 -0.023428,0.111621 -0.020749,0.159917 0.086943,0.117243 0.2275353,0.100097 0.3417908,0.107422 0.049557,-0.001 0.1014171,-0.0094 0.1586871,-0.04389 0.1344048,-0.08132 0.2989978,-0.209802 0.4748489,-0.360115 -0.1254155,0.41513 -0.146628,0.547496 -0.3466758,1.011966 -0.00265,0.0063 -0.007,0.01314 -0.00975,0.01954 -1.055563,-0.143691 -2.1563396,-0.05257 -2.9015869,0.203853 -0.3909075,0.134538 -0.6919501,0.434354 -0.8093143,0.765382 -0.1173696,0.33105 -0.045826,0.751643 0.2490193,1.273211 0.2949041,0.521574 0.6202099,0.760651 0.9667829,0.834974 0.34657,0.07432 0.6926941,-0.02279 1.0131705,-0.281999 0.6109758,-0.493973 1.1618811,-1.640007 1.5905582,-2.604991 0.0071,0.002 0.014935,0.0021 0.021965,0.0026 0.5048302,0.07449 0.9890943,0.753923 1.4123373,0.865486 -0.221624,0.06954 -0.480896,0.141632 -0.621331,0.212402 -0.120242,0.06054 -0.209322,0.115299 -0.2624481,0.192875 -0.02653,0.03873 -0.04415,0.09109 -0.03294,0.14282 0.01119,0.0517 0.04764,0.09127 0.08911,0.11963 0.0829,0.05668 0.2005651,0.08794 0.3759731,0.113527 0.175405,0.02552 0.469171,0.04122 0.766595,0.04523 0.0012,1.3e-5 0.0016,-1.3e-5 0.0024,0 0.0012,-1.3e-5 0.0016,1.3e-5 0.0024,0 0.297414,-0.0051 0.591184,-0.01952 0.76659,-0.04523 0.175405,-0.02552 0.293068,-0.05675 0.375971,-0.113527 0.04144,-0.02844 0.07794,-0.06783 0.08912,-0.11963 0.01122,-0.0517 -0.0061,-0.104034 -0.03293,-0.14282 -0.05319,-0.07756 -0.14221,-0.132279 -0.262448,-0.192875 -0.140437,-0.07076 -0.399707,-0.142817 -0.62133,-0.212402 0.423242,-0.111564 0.907503,-0.791009 1.412333,-0.865486 0.007,-0.002 0.01491,-0.002 0.02196,-0.0026 0.42868,0.964986 0.979584,2.111019 1.590555,2.604991 0.320478,0.259111 0.666598,0.356305 1.013177,0.282 0.346565,-0.07435 0.671875,-0.313401 0.966784,-0.834974 0.294907,-0.521568 0.366385,-0.942161 0.249017,-1.273211 -0.11737,-0.331032 -0.418401,-0.630848 -0.809311,-0.765386 -0.745257,-0.25649 -1.846034,-0.347544 -2.901584,-0.203853 -0.0027,-0.0063 -0.007,-0.01313 -0.0097,-0.01954 -0.200048,-0.46447 -0.221259,-0.596836 -0.346673,-1.011966 0.175848,0.150313 0.340442,0.278803 0.474845,0.360112 0.05727,0.03454 0.109097,0.04346 0.158688,0.04389 0.114257,-0.0074 0.254845,0.0098 0.34179,-0.107421 0.0025,-0.04836 -0.0051,-0.1005 -0.02072,-0.159917 -0.01665,-0.06308 -0.04348,-0.135472 -0.0794,-0.218508 -0.0698,-0.16124 -0.177408,-0.6139 -0.329623,-0.866701 -0.165521,-0.396369 -0.368942,-0.820899 -0.491932,-1.136486 -0.04551,-0.02135 -0.09806,-0.03219 -0.148921,-0.01581 -0.05081,0.01637 -0.08796,0.0567 -0.10865,0.09888 -0.04139,0.0843 -0.04487,0.187735 -0.0378,0.32104 0.0079,0.155626 0.04421,0.649511 0.09399,0.874039 -0.309305,-0.306775 -0.971578,-0.669284 -1.289122,-1.06446 -0.0049,-0.0049 -0.0091,-0.01152 -0.01346,-0.01716 0.630427,-0.8497548 1.694309,-1.7942979 1.821263,-2.5647249 0.06658,-0.4041096 0.01495,-0.7693053 -0.223385,-1.0290563 C 12.252874,5.6409486 11.390378,5.50937 10.824787,5.5 Z"
       id="path1151-5"
       class="ColorScheme-Text" />
  </g>
</svg>
