<?xml version="1.0" encoding="UTF-8" standalone="no"?>
<svg
   width="32"
   height="32"
   version="1.1"
   id="svg12"
   sodipodi:docname="device.svg"
   inkscape:version="1.2 (dc2aedaf03, 2022-05-15)"
   xmlns:inkscape="http://www.inkscape.org/namespaces/inkscape"
   xmlns:sodipodi="http://sodipodi.sourceforge.net/DTD/sodipodi-0.dtd"
   xmlns="http://www.w3.org/2000/svg"
   xmlns:svg="http://www.w3.org/2000/svg"
   xmlns:rdf="http://www.w3.org/1999/02/22-rdf-syntax-ns#"
   xmlns:cc="http://creativecommons.org/ns#"
   xmlns:dc="http://purl.org/dc/elements/1.1/">
  <style
     id="current-color-scheme"
     type="text/css">.ColorScheme-Highlight { color:#cdd8e5; }
.ColorScheme-Text { color:#eff0f1; }
</style>
  <g
     id="22-22-device-notifier"
     transform="translate(32,10.000001)">
    <rect
       style="opacity:0.00100002"
       width="22"
       height="22"
       x="0"
       y="-4.6325681e-08"
       id="rect2" />
    <path
       id="Save-3"
       class="st0  ColorScheme-Highlight"
       d="M 14.428575,12.008137 H 7.5714228 v 5.179136 H 14.428575 Z M 8.4285777,4.757345 H 5 v 13.242654 h 9.857142 C 16.035718,17.999999 17,17.057794 17,15.633533 V 4.757345 H 14.428575 13.571426 V 8.900654 H 8.4285777 Z"
       sodipodi:nodetypes="ccccccccsscccccc"
       style="clip-rule:evenodd;fill:currentColor;fill-opacity:1;fill-rule:evenodd;stroke-width:0.235565" />
    <path
       id="Save-s-6"
       class="st1  ColorScheme-Text"
       d="M 12.463505,3.084916 V 7.864827 H 9.5446847 V 3.084916 Z M 16,8.900654 v 7.250791 c 0,1.139411 -0.628574,1.848554 -1.571425,1.848554 H 5.8571423 v 1 l 8.5714327,-1.4e-5 C 15.842857,18.999983 17,17.860559 17,16.151443 V 8.900654 Z"
       sodipodi:nodetypes="ccccccssccsscc"
       style="fill:currentColor;fill-opacity:1;stroke-width:0.235565" />
    <path
       d="M 9.7386302,3 C 9.4545362,3 9.2285282,3.359959 9.2285443,3.681661 V 5.03716 h 0.5101021 l -1.62e-5,-0.679079 c 0.014583,-0.80438 0,-0.859918 0.5101048,-0.859918 h 1.534438 c 0.505944,-3.4e-5 0.508403,0.06601 0.505944,0.859918 l 2.4e-5,0.679079 h 0.510092 l -1.1e-5,-1.35812 C 12.799222,3.270033 12.585936,3 12.296212,3.000034 Z M 10.248738,4.358121 V 5.03716 h 0.510107 V 4.358121 Z m 1.020206,0 V 5.03716 H 11.77904 V 4.358121 Z"
       style="stroke-width:0.58854;fill-rule:evenodd;fill-opacity:0.40392157;fill:currentColor;solid-color:#d5c289;"
       id="path4-7-3-7"
       sodipodi:nodetypes="ccccccccccccccccccccccc"
       class="ColorScheme-Text" />
  </g>
  <metadata
     id="metadata18">
    <rdf:RDF>
      <cc:Work
         rdf:about="">
        <dc:format>image/svg+xml</dc:format>
        <dc:type
           rdf:resource="http://purl.org/dc/dcmitype/StillImage" />
      </cc:Work>
    </rdf:RDF>
  </metadata>
  <defs
     id="defs16" />
  <sodipodi:namedview
     pagecolor="#b2b2b2"
     bordercolor="#666666"
     borderopacity="1"
     objecttolerance="10"
     gridtolerance="10"
     guidetolerance="10"
     inkscape:pageopacity="0"
     inkscape:pageshadow="2"
     inkscape:window-width="1920"
     inkscape:window-height="1000"
     id="namedview14"
     showgrid="false"
     inkscape:zoom="11.313709"
     inkscape:cx="24.439377"
     inkscape:cy="25.941979"
     inkscape:window-x="0"
     inkscape:window-y="0"
     inkscape:window-maximized="1"
     inkscape:current-layer="svg12"
     inkscape:document-rotation="0"
     showguides="false"
     inkscape:guide-bbox="true"
     inkscape:pagecheckerboard="0"
     inkscape:lockguides="false"
     inkscape:showpageshadow="2"
     inkscape:deskcolor="#b2b2b2">
    <inkscape:grid
       type="xygrid"
       id="grid849"
       originx="0"
       originy="0" />
    <sodipodi:guide
       position="-30.165605,19.66879"
       orientation="1,0"
       id="guide850"
       inkscape:locked="false" />
  </sodipodi:namedview>
  <g
     id="device-notifier">
    <rect
       style="opacity:0.00100002;fill:#eff0f1;fill-opacity:1"
       width="32"
       height="32"
       x="0"
       y="0"
       id="rect7" />
    <path
       id="Save"
       class="st0  ColorScheme-Highlight"
       d="M 21.142861,17.512205 H 10.857139 v 7.768704 H 21.142861 Z M 12.142862,6.6360182 H 7 V 27 H 21.785713 C 23.553575,27 25,25.08669 25,22.950299 V 6.6360182 h -3.857139 -1.285722 v 6.2149628 h -7.714277 z"
       sodipodi:nodetypes="ccccccccsscccccc"
       style="clip-rule:evenodd;fill:currentColor;fill-opacity:1;fill-rule:evenodd;stroke-width:0.353348" />
    <path
       id="Save-s"
       class="st1  ColorScheme-Text"
       d="M 18.195258,4.1273741 V 11.29724 H 13.817024 V 4.1273741 Z M 24,12.850981 V 23.727168 C 24,25.436284 23,27 21.142861,27 H 8.2857138 v 0.961112 l 12.8571472,0.03887 C 23.264277,28.006355 25,26.290843 25,23.72717 V 12.850981 Z"
       sodipodi:nodetypes="ccccccssccsscc"
       style="fill:currentColor;fill-opacity:1;stroke-width:0.353348" />
    <path
       d="m 14.107947,4 c -0.426144,0 -0.765152,0.5399389 -0.765129,1.0224919 v 2.0332476 h 0.765152 l -2.3e-5,-1.018619 c 0.02187,-1.2065699 0,-1.2898768 0.765153,-1.2898768 h 2.301658 c 0.75892,-4.97e-5 0.762606,0.09902 0.75892,1.2898768 l 3.3e-5,1.018619 h 0.76514 l -2.6e-5,-2.0371799 C 18.698835,4.4050504 18.378902,4 17.944319,4.0000507 Z m 0.765158,2.0371817 v 1.0185578 h 0.76516 V 6.0371817 Z m 1.530311,0 v 1.0185578 h 0.765143 V 6.0371817 Z"
       style="solid-color:#d5c289;fill:currentColor;fill-opacity:0.403922;fill-rule:evenodd;stroke-width:0.882813"
       id="path4-7-3"
       sodipodi:nodetypes="ccccccccccccccccccccccc"
       class="ColorScheme-Text" />
  </g>
</svg>
