<?xml version="1.0" encoding="UTF-8" standalone="no"?>
<svg
   width="32"
   height="32"
   version="1.1"
   id="svg16"
   sodipodi:docname="dropbox.svg"
   inkscape:version="1.3 (0e150ed6c4, 2023-07-21)"
   xmlns:inkscape="http://www.inkscape.org/namespaces/inkscape"
   xmlns:sodipodi="http://sodipodi.sourceforge.net/DTD/sodipodi-0.dtd"
   xmlns="http://www.w3.org/2000/svg"
   xmlns:svg="http://www.w3.org/2000/svg"
   xmlns:rdf="http://www.w3.org/1999/02/22-rdf-syntax-ns#"
   xmlns:cc="http://creativecommons.org/ns#"
   xmlns:dc="http://purl.org/dc/elements/1.1/">
  <style
     id="current-color-scheme"
     type="text/css">.ColorScheme-Highlight { color:#cdd8e5; }&#10;.ColorScheme-Text { &#10;    color:#eff0f1;&#10;}&#10;</style>
  <metadata
     id="metadata22">
    <rdf:RDF>
      <cc:Work
         rdf:about="">
        <dc:format>image/svg+xml</dc:format>
        <dc:type
           rdf:resource="http://purl.org/dc/dcmitype/StillImage" />
      </cc:Work>
    </rdf:RDF>
  </metadata>
  <defs
     id="defs20">
    <linearGradient
       id="oomox"
       x1="131.53468"
       x2="131.53468"
       y1="146.39674"
       y2="160.8511"
       gradientTransform="scale(1.0377491,0.96362406)"
       gradientUnits="userSpaceOnUse">
      <stop
         offset="0%"
         style="stop-color:#303b3d; stop-opacity:1"
         id="stop18" />
      <stop
         offset="100%"
         style="stop-color:#bc985d; stop-opacity:1"
         id="stop20" />
    </linearGradient>
  </defs>
  <sodipodi:namedview
     pagecolor="#ffffff"
     bordercolor="#000000"
     borderopacity="1"
     objecttolerance="10"
     gridtolerance="10"
     guidetolerance="10"
     inkscape:pageopacity="0"
     inkscape:pageshadow="2"
     inkscape:window-width="1920"
     inkscape:window-height="994"
     id="namedview18"
     showgrid="false"
     inkscape:zoom="9.8623732"
     inkscape:cx="22.002818"
     inkscape:cy="15.766996"
     inkscape:window-x="0"
     inkscape:window-y="0"
     inkscape:window-maximized="1"
     inkscape:current-layer="svg16"
     inkscape:document-rotation="0"
     inkscape:showpageshadow="false"
     inkscape:pagecheckerboard="false"
     inkscape:deskcolor="#cccccc">
    <inkscape:grid
       type="xygrid"
       id="grid876"
       originx="0"
       originy="0"
       spacingy="1"
       spacingx="1"
       units="px"
       visible="false" />
  </sodipodi:namedview>
  <g
     id="dropbox">
    <rect
       style="opacity:0.00100002;fill:#eff0f1;fill-opacity:1"
       width="32"
       height="32"
       x="0"
       y="0"
       id="rect9" />
    <path
       id="External"
       class="st0  ColorScheme-Highlight "
       d="m 5,4 h 22 v 17.999999 c 0,2.357143 -1.903846,4.285714 -4.230769,4.285714 H 5 Z"
       style="fill:currentColor;fill-opacity:1;stroke-width:0.425815" />
    <path
       id="External-s"
       class="st1  -Text  ColorScheme-Text "
       d="m 16.592308,15.742856 z m 8.715384,-3.171428 v 10.285714 c 0,1.885714 -1.523077,3.428571 -3.384615,3.428571 H 6.692308 v 1.714286 H 21.923077 C 24.715386,27.999999 27,25.685713 27,22.857142 V 12.571428 Z"
       sodipodi:nodetypes="cccccccccccssccsscc"
       style="fill:currentColor;fill-opacity:1;stroke-width:0.425815" />
    <path
       style="fill:currentColor;fill-opacity:1;stroke-width:0.305029"
       d="M 11.462545,9.183324 8.33523,11.201277 c -0.425586,0.274722 -0.449215,0.751997 -0.0522,1.065833 l 1.791019,1.417573 c 0.396751,0.314139 1.069342,0.354772 1.501677,0.09067 l 3.140818,-1.91668 c 0.432647,-0.263804 0.466699,-0.738956 0.07642,-1.060982 L 12.939662,9.268836 C 12.549665,8.947115 11.888119,8.908908 11.462528,9.183316 Z"
       id="path190-9"
       class="ColorScheme-Text" />
    <path
       style="fill:currentColor;fill-opacity:1;stroke-width:0.305029"
       d="m 8.33523,17.305178 3.127315,2.01765 c 0.425591,0.274721 1.087136,0.236212 1.477438,-0.08552 l 1.853315,-1.528858 c 0.3903,-0.32202 0.35593,-0.796869 -0.07668,-1.060977 l -3.140817,-1.916682 c -0.432645,-0.263806 -1.104931,-0.223476 -1.501675,0.09067 l -1.791028,1.417572 c -0.397049,0.314442 -0.373424,0.791413 0.0522,1.066135 z"
       id="path192-2"
       class="ColorScheme-Text" />
    <path
       style="fill:currentColor;fill-opacity:1;stroke-width:0.305029"
       d="m 16.206602,17.708462 1.853617,1.528858 c 0.390301,0.322026 1.051845,0.36023 1.47743,0.08552 l 3.127014,-2.01765 c 0.425585,-0.274721 0.449213,-0.751997 0.05217,-1.065832 l -1.791022,-1.417574 c -0.39675,-0.314139 -1.069032,-0.354774 -1.501677,-0.09066 l -3.140815,1.916679 c -0.432649,0.263805 -0.467005,0.738651 -0.07668,1.060674 z"
       id="path194-2"
       class="ColorScheme-Text" />
    <path
       style="fill:currentColor;fill-opacity:1;stroke-width:0.305029"
       d="M 22.664968,11.201277 19.537649,9.183324 C 19.112064,8.908602 18.45052,8.947112 18.060219,9.268844 l -1.853617,1.528853 c -0.3903,0.322025 -0.355943,0.796873 0.07642,1.060679 l 3.140816,1.916678 c 0.432646,0.263805 1.104927,0.223476 1.501676,-0.09067 l 1.791019,-1.417569 c 0.397356,-0.313838 0.374036,-0.790808 -0.05155,-1.065531 z"
       id="path196-8"
       class="ColorScheme-Text" />
    <path
       style="fill:currentColor;fill-opacity:1;stroke-width:0.305029"
       d="m 14.801274,18.286103 -1.859449,1.524916 c -0.391223,0.32081 -1.022084,0.378424 -1.409319,0.128569 -0.387234,-0.249856 -0.70113,-0.225298 -0.70113,0.05486 0,0.280175 0.353479,0.71652 0.789503,0.974864 l 3.099386,1.836929 c 0.436024,0.258345 1.142979,0.258345 1.579002,0 l 3.099691,-1.836929 c 0.436023,-0.258344 0.789501,-0.694989 0.789501,-0.974864 0,-0.279878 -0.313893,-0.304437 -0.700824,-0.05486 -0.387227,0.249855 -1.018092,0.192241 -1.409309,-0.128569 l -1.859765,-1.524916 c -0.391833,-0.320809 -1.026072,-0.320809 -1.417287,0 z"
       id="path198-9"
       class="ColorScheme-Text" />
  </g>
  <g
     id="22-22-dropbox"
     transform="translate(32,10)">
    <rect
       style="opacity:0.00100002;fill:#eff0f1;fill-opacity:1"
       width="22"
       height="22"
       x="0"
       y="0"
       id="rect2" />
    <path
       id="External-3"
       class="st0  ColorScheme-Highlight "
       d="m 4,3 h 14 v 12 c 0,1.571429 -1.211537,2.857143 -2.692306,2.857143 H 4 Z"
       style="fill:currentColor;fill-opacity:1;stroke-width:0.27735" />
    <path
       id="External-s-6"
       class="st1  ColorScheme-Text "
       d="m 11.376924,10.828571 z m 5.546151,-2.114285 v 6.857143 c 0,1.257142 -0.969232,2.285714 -2.153844,2.285714 H 5.076923 V 19 h 9.692308 C 16.546156,19 18,17.457143 18,15.571429 V 8.714286 Z"
       sodipodi:nodetypes="cccccccccccssccsscc"
       style="fill:currentColor;fill-opacity:1;stroke-width:0.27735" />
    <path
       style="fill:currentColor;fill-opacity:1;stroke-width:0.173263"
       d="m 8.4552683,7.1047557 -1.7659681,1.153112 c -0.240327,0.156984 -0.253668,0.429711 -0.02946,0.609046 l 1.011378,0.810038 c 0.224038,0.1795083 0.603847,0.2027273 0.8479841,0.05181 L 10.2928,8.6335187 c 0.244309,-0.150745 0.263545,-0.42226 0.04314,-0.606273 L 9.2893933,7.1536187 c -0.220226,-0.183839 -0.593797,-0.205672 -0.834122,-0.04886 z"
       id="path190-3-7"
       class="ColorScheme-Text" />
    <path
       style="fill:currentColor;fill-opacity:1;stroke-width:0.173263"
       d="m 6.6893002,11.745796 1.7659681,1.152946 c 0.240326,0.156975 0.613897,0.134973 0.834297,-0.04892 l 1.0465517,-0.873598 c 0.220399,-0.184008 0.200991,-0.455341 -0.04333,-0.606265 L 8.5192053,10.274731 c -0.2443101,-0.150745 -0.6239461,-0.1277 -0.8479841,0.05181 l -1.011378,0.81004 c -0.224211,0.17968 -0.21087,0.452238 0.02946,0.609217 z"
       id="path192-6-3"
       class="ColorScheme-Text" />
    <path
       style="fill:currentColor;fill-opacity:1;stroke-width:0.173263"
       d="m 11.134197,11.97625 1.046721,0.873625 c 0.2204,0.18401 0.593983,0.205842 0.834307,0.04893 l 1.765789,-1.152937 c 0.240323,-0.156984 0.253667,-0.429708 0.02939,-0.609047 l -1.011318,-0.810102 c -0.224026,-0.17951 -0.603672,-0.202728 -0.847981,-0.05181 l -1.773591,1.095237 c -0.244307,0.150752 -0.263718,0.42209 -0.04336,0.606107 z"
       id="path194-7-6"
       class="ColorScheme-Text" />
    <path
       style="fill:currentColor;fill-opacity:1;stroke-width:0.173263"
       d="m 14.781187,8.2578677 -1.765962,-1.153112 c -0.240324,-0.156984 -0.613907,-0.134976 -0.834307,0.04887 l -1.046721,0.873629 c -0.2204,0.184012 -0.20099,0.455353 0.04311,0.606099 l 1.773593,1.09524 c 0.24431,0.1507463 0.623945,0.1277003 0.847986,-0.0518 l 1.011387,-0.81004 c 0.224385,-0.179336 0.211214,-0.451889 -0.02915,-0.608873 z"
       id="path196-5-1"
       class="ColorScheme-Text" />
    <path
       style="fill:currentColor;fill-opacity:1;stroke-width:0.173263"
       d="m 10.340621,12.30633 -1.0500157,0.871379 c -0.22092,0.183307 -0.577164,0.216242 -0.795831,0.07342 -0.2186671,-0.142775 -0.3959221,-0.128737 -0.3959221,0.03142 0,0.160114 0.199607,0.409436 0.4458241,0.557075 l 1.7502027,1.049655 c 0.246215,0.14763 0.645426,0.14763 0.891644,0 l 1.750385,-1.049662 c 0.246215,-0.147637 0.445822,-0.397147 0.445822,-0.557074 0,-0.159927 -0.177255,-0.173955 -0.395748,-0.03143 -0.218674,0.142773 -0.574922,0.109854 -0.795826,-0.07342 l -1.0502,-0.871363 c -0.221263,-0.18332 -0.579414,-0.18332 -0.800335,0 z"
       id="path198-3-2"
       class="ColorScheme-Text" />
  </g>
</svg>
