<?xml version="1.0" encoding="UTF-8" standalone="no"?>
<svg
   width="32"
   height="32"
   version="1.1"
   id="svg2222"
   sodipodi:docname="emblem.svg"
   inkscape:version="1.2.2 (b0a8486541, 2022-12-01)"
   xmlns:inkscape="http://www.inkscape.org/namespaces/inkscape"
   xmlns:sodipodi="http://sodipodi.sourceforge.net/DTD/sodipodi-0.dtd"
   xmlns="http://www.w3.org/2000/svg"
   xmlns:svg="http://www.w3.org/2000/svg">
  <style
     id="current-color-scheme"
     type="text/css">.ColorScheme-Highlight { color:#cdd8e5; }
.ColorScheme-Text { color:#eff0f1; }
</style>
  <defs
     id="defs2226" />
  <sodipodi:namedview
     id="namedview2224"
     pagecolor="#cccccc"
     bordercolor="#000000"
     borderopacity="1"
     inkscape:showpageshadow="2"
     inkscape:pageopacity="0"
     inkscape:pagecheckerboard="0"
     inkscape:deskcolor="#808080"
     showgrid="false"
     inkscape:zoom="10.429825"
     inkscape:cx="-3.7392765"
     inkscape:cy="8.6770392"
     inkscape:window-width="1920"
     inkscape:window-height="1000"
     inkscape:window-x="0"
     inkscape:window-y="0"
     inkscape:window-maximized="1"
     inkscape:current-layer="svg2222">
    <inkscape:grid
       type="xygrid"
       id="grid2709"
       originx="0"
       originy="0" />
  </sodipodi:namedview>
  <g
     id="emblem-shared-symbolic">
    <rect
       style="opacity:0.00100002"
       width="32"
       height="32"
       x="0"
       y="0"
       id="rect2217" />
    <path
       id="Share"
       class="st0  ColorScheme-Highlight"
       d="m 26.5,7.75 c 0,2.0625 -1.6875,3.75 -3.75,3.75 C 20.6875,11.5 19,9.8125 19,7.75 19,5.6875 20.6875,4 22.75,4 24.8125,4 26.5,5.6875 26.5,7.75 Z M 12.775,14.725 14.1625,13.9 13.375,12.625 11.9875,13.45 c -0.675,-0.75 -1.65,-1.2 -2.7375,-1.2 -2.0625,0 -3.75,1.6875 -3.75,3.75 0,2.0625 1.6875,3.75 3.75,3.75 2.0625,0 3.75,-1.6875 3.75,-3.75 0,-0.45 -0.075,-0.8625 -0.225,-1.275 z M 22.75,28 c 2.0625,0 3.75,-1.6875 3.75,-3.75 0,-2.0625 -1.6875,-3.75 -3.75,-3.75 -1.0875,0 -2.0625,0.45 -2.7375,1.2 l -1.3875,-0.8625 -0.7875,1.275 1.3875,0.825 C 19.075,23.3875 19,23.8 19,24.25 19,26.3125 20.6875,28 22.75,28 Z"
       style="stroke-width:0.375;fill-opacity:1;fill:currentColor;" />
    <path
       id="Share-s"
       class="st1  ColorScheme-Text"
       d="m 19.225,9.025 v 0 C 19.4875,9.7 19.9,10.3 20.4625,10.7125 21.1,11.2 21.925,11.5 22.75,11.5 V 13 c -1.1625,0 -2.2875,-0.375 -3.1875,-1.0875 -0.3,-0.225 -0.6,-0.525 -0.8625,-0.825 l -4.575,2.775 -0.75,-1.2375 z m -1.3875,13.0875 0.7875,-1.275 -5.85,-3.5625 C 12.925,16.8625 13,16.45 13,16 c 0,-0.5625 -0.15,-1.125 -0.375,-1.65 -0.15,-0.3375 -0.375,-0.6375 -0.6375,-0.9 l -1.3125,0.825 c 0.525,0.4125 0.825,1.05 0.825,1.7625 0,0.7125 -0.3375,1.35 -0.825,1.7625 z m 3.4875,0.375 -1.3125,-0.825 C 19.375,22.375 19,23.275 19,24.25 19,26.3125 20.6875,28 22.75,28 v -1.5 c -1.2375,0 -2.25,-1.0125 -2.25,-2.25 0,-0.7125 0.3375,-1.35 0.825,-1.7625 z"
       style="stroke-width:0.375;fill-opacity:1;fill:currentColor;" />
  </g>
  <g
     id="22-22-emblem-shared-symbolic"
     transform="translate(32.000001,10.000001)">
    <rect
       style="opacity:0.00100002"
       width="22"
       height="22"
       x="0"
       y="0"
       id="rect2212" />
    <path
       id="Share-3"
       class="st0  ColorScheme-Highlight"
       d="M 18,5.5 C 18,6.874999 16.874999,8 15.5,8 14.125001,8 13,6.874999 13,5.5 13,4.125001 14.125001,3 15.5,3 16.874999,3 18,4.125001 18,5.5 Z M 8.85,10.15 9.774999,9.6 9.25,8.75 8.325001,9.3 C 7.874999,8.8 7.225001,8.5 6.5,8.5 5.125,8.5 4,9.625001 4,11 4,12.374999 5.125,13.5 6.5,13.5 7.874999,13.5 9,12.374999 9,11 9,10.7 8.94995,10.425001 8.85,10.15 Z M 15.5,19 C 16.874999,19 18,17.874999 18,16.5 18,15.125001 16.874999,14 15.5,14 c -0.725001,0 -1.374999,0.3 -1.825001,0.8 L 12.75,14.225001 12.225001,15.074999 13.15,15.625001 C 13.05,15.925001 13,16.2 13,16.5 c 0,1.374999 1.125001,2.5 2.5,2.5 z"
       style="stroke-width:0.250003;fill-opacity:1;fill:currentColor;" />
    <path
       id="Share-s-6"
       class="st1  ColorScheme-Text"
       d="m 13.15,6.35 v 0 C 13.325001,6.8 13.6,7.2 13.974999,7.474999 14.4,7.8 14.95,8 15.5,8 V 9 C 14.725001,9 13.974999,8.75 13.374999,8.274999 13.174999,8.125001 12.974999,7.925001 12.8,7.725001 L 9.75,9.574999 9.25,8.75 Z M 12.225001,15.074999 12.75,14.225001 8.85,11.85 C 8.95,11.574999 9,11.3 9,11 9,10.625001 8.9,10.25 8.75,9.9 8.65,9.674999 8.5,9.474999 8.325001,9.3 L 7.45,9.85 C 7.8,10.125001 8,10.55 8,11.025001 8,11.5 7.774999,11.925001 7.45,12.2 Z M 14.55,15.325001 13.674999,14.774999 C 13.25,15.25 13,15.85 13,16.5 13,17.874999 14.125001,19 15.5,19 V 18 C 14.674999,18 14,17.325001 14,16.5 c 0,-0.474999 0.225001,-0.9 0.55,-1.174999 z"
       style="stroke-width:0.250003;fill-opacity:1;fill:currentColor;" />
  </g>
</svg>
