<?xml version="1.0" encoding="UTF-8" standalone="no"?>
<svg
   width="32"
   height="32"
   version="1.1"
   id="svg14"
   sodipodi:docname="face.svg"
   inkscape:version="1.2.1 (9c6d41e410, 2022-07-14)"
   xmlns:inkscape="http://www.inkscape.org/namespaces/inkscape"
   xmlns:sodipodi="http://sodipodi.sourceforge.net/DTD/sodipodi-0.dtd"
   xmlns="http://www.w3.org/2000/svg"
   xmlns:svg="http://www.w3.org/2000/svg">
  <sodipodi:namedview
     id="namedview16"
     pagecolor="#ffffff"
     bordercolor="#000000"
     borderopacity="1"
     inkscape:showpageshadow="2"
     inkscape:pageopacity="0"
     inkscape:pagecheckerboard="0"
     inkscape:deskcolor="#cccccc"
     showgrid="false"
     inkscape:zoom="10.429825"
     inkscape:cx="22.819175"
     inkscape:cy="15.052985"
     inkscape:window-width="1920"
     inkscape:window-height="1011"
     inkscape:window-x="0"
     inkscape:window-y="0"
     inkscape:window-maximized="1"
     inkscape:current-layer="svg14">
    <inkscape:grid
       type="xygrid"
       id="grid191"
       originx="0"
       originy="0" />
  </sodipodi:namedview>
  <defs
     id="defs5">
    <style
       id="current-color-scheme"
       type="text/css">.ColorScheme-Background { color:#181818; }
.ColorScheme-ButtonBackground { color:#343434; }
.ColorScheme-Highlight { color:#cdd8e5; }
.ColorScheme-Text { color:#eff0f1; }
.ColorScheme-ViewBackground { color:#242424; }
.ColorScheme-NegativeText { color:#f44336; }
.ColorScheme-PositiveText { color:#4caf50; }
.ColorScheme-NeutralText { color:#ff9800; }
</style>
  </defs>
  <g
     id="face-laughing">
    <rect
       style="opacity:0.00100002"
       width="32"
       height="32"
       x="0"
       y="0"
       id="rect9" />
    <path
       id="External"
       class="st0  ColorScheme-Highlight"
       d="m 5,4 h 22 v 17.999999 c 0,2.357143 -1.903846,4.285714 -4.230769,4.285714 H 5 Z"
       style="fill:currentColor;fill-opacity:1;stroke-width:0.425815" />
    <path
       id="External-s"
       class="st1  -Text  ColorScheme-Text "
       d="m 16.592308,15.742856 z m 8.715384,-3.171428 v 10.285714 c 0,1.885714 -1.523077,3.428571 -3.384615,3.428571 H 6.692308 v 1.714286 H 21.923077 C 24.715386,27.999999 27,25.685713 27,22.857142 V 12.571428 Z"
       sodipodi:nodetypes="cccccccccccssccsscc"
       style="fill:currentColor;fill-opacity:1;stroke-width:0.425815" />
    <path
       d="m 16.00007,8 c -4.412112,0 -8,3.587888 -8,8 0,4.412111 3.587888,8 8,8 4.412113,0 8,-3.587889 8,-8 0,-4.412112 -3.587887,-8 -8,-8 z m 0,1.043541 c 3.848133,0 6.95652,3.108384 6.95652,6.956521 0,3.848136 -3.108387,6.956522 -6.95652,6.956522 -3.848137,0 -6.956522,-3.108386 -6.956522,-6.956522 0,-3.848137 3.108385,-6.956521 6.956522,-6.956521 z m -2.782673,3.47826 c -0.672296,0 -1.217358,0.545062 -1.217358,1.21736 0,0.672298 0.545062,1.217361 1.217358,1.217361 0.6723,0 1.21736,-0.545063 1.21736,-1.217361 0,-0.672298 -0.54506,-1.21736 -1.21736,-1.21736 z m 5.56522,0 c -0.6723,0 -1.21736,0.545062 -1.21736,1.21736 0,0.672298 0.54506,1.217361 1.21736,1.217361 0.6723,0 1.21736,-0.545063 1.21736,-1.217361 0,-0.672298 -0.54506,-1.21736 -1.21736,-1.21736 z m -6.663044,5.043478 c -0.167652,0.0097 -0.320621,0.104451 -0.413074,0.27174 -0.08807,0.16826 -0.07618,0.382359 0.03263,0.538012 0.93264,1.395092 2.495031,2.320714 4.260871,2.320714 1.76584,0 3.32826,-0.925622 4.260867,-2.320714 0.152247,-0.227582 0.08637,-0.570528 -0.141327,-0.722764 -0.2277,-0.152236 -0.575993,-0.08637 -0.728233,0.141329 -0.753227,1.126739 -1.988073,1.858757 -3.3913,1.858757 -1.403233,0 -2.638047,-0.731863 -3.391307,-1.858757 -0.141208,-0.165711 -0.32149,-0.238015 -0.48913,-0.22831 z"
       id="path330-3-3-6-7"
       style="fill:currentColor;fill-opacity:1;stroke-width:0.0310559"
       class="ColorScheme-Text" />
  </g>
  <g
     id="22-22-face-laughing"
     transform="translate(32.000001,10.000001)">
    <rect
       style="opacity:0.00100002"
       width="22"
       height="22"
       x="0"
       y="0"
       id="rect4" />
    <path
       id="External-3"
       class="st0  ColorScheme-Highlight"
       d="m 4,3 h 14 v 12 c 0,1.571429 -1.211537,2.857143 -2.692306,2.857143 H 4 Z"
       style="fill:currentColor;fill-opacity:1;stroke-width:0.27735" />
    <path
       id="External-s-6"
       class="st1  ColorScheme-Text"
       d="m 11.376924,10.828571 z m 5.546151,-2.114285 v 6.857143 c 0,1.257142 -0.969232,2.285714 -2.153844,2.285714 H 5.076923 V 19 h 9.692308 C 16.546156,19 18,17.457143 18,15.571429 V 8.714286 Z"
       sodipodi:nodetypes="cccccccccccssccsscc"
       style="fill:currentColor;fill-opacity:1;stroke-width:0.27735" />
    <path
       d="m 11,6 c -2.7575696,0 -5,2.2424304 -5,5 0,2.757568 2.2424304,5 5,5 2.75757,0 5,-2.242432 5,-5 0,-2.7575696 -2.24243,-5 -5,-5 z m 0,0.6522148 c 2.405083,0 4.347827,1.9427352 4.347827,4.3478252 0,2.405084 -1.942744,4.347822 -4.347827,4.347822 -2.4050852,0 -4.3478264,-1.942738 -4.3478264,-4.347822 C 6.6521736,8.59495 8.5949148,6.6522148 11,6.6522148 Z M 9.2608294,8.8261236 c -0.4201852,0 -0.760849,0.3406636 -0.760849,0.7608528 0,0.4201846 0.3406638,0.7608486 0.760849,0.7608486 0.4201872,0 0.7608496,-0.340664 0.7608496,-0.7608486 0,-0.4201892 -0.3406624,-0.7608528 -0.7608496,-0.7608528 z m 3.4782626,0 c -0.420187,0 -0.760849,0.3406636 -0.760849,0.7608528 0,0.4201846 0.340662,0.7608486 0.760849,0.7608486 0.420187,0 0.760851,-0.340664 0.760851,-0.7608486 0,-0.4201892 -0.340664,-0.7608528 -0.760851,-0.7608528 z M 8.5746892,11.978299 c -0.1047824,0.0059 -0.2003882,0.06526 -0.2581716,0.169839 -0.055048,0.105161 -0.047618,0.238975 0.020392,0.336253 0.582901,0.871935 1.5593952,1.450452 2.6630444,1.450452 1.103651,0 2.080164,-0.578517 2.663043,-1.450452 0.09516,-0.14224 0.05398,-0.356576 -0.08834,-0.451727 -0.142312,-0.09515 -0.359996,-0.05397 -0.455145,0.08834 -0.470767,0.704218 -1.242547,1.161726 -2.119564,1.161726 -0.877019,0 -1.6487787,-0.457412 -2.119566,-1.161726 -0.088254,-0.103568 -0.2009313,-0.148756 -0.3057068,-0.14269 z"
       id="path330-3-5"
       style="fill:currentColor;fill-opacity:1;stroke-width:0.0194099"
       class="ColorScheme-Text" />
  </g>
</svg>
