<?xml version="1.0" encoding="UTF-8" standalone="no"?>
<svg
   width="32"
   height="32"
   version="1"
   id="svg14"
   sodipodi:docname="internet.svg"
   inkscape:version="1.2.1 (9c6d41e410, 2022-07-14)"
   xmlns:inkscape="http://www.inkscape.org/namespaces/inkscape"
   xmlns:sodipodi="http://sodipodi.sourceforge.net/DTD/sodipodi-0.dtd"
   xmlns="http://www.w3.org/2000/svg"
   xmlns:svg="http://www.w3.org/2000/svg">
  <style
     id="style1288">.ColorScheme-Text { color:#eff0f1; }
.ColorScheme-Highlight { color:#cdd8e5; }
</style>
  <sodipodi:namedview
     id="namedview16"
     pagecolor="#ffffff"
     bordercolor="#000000"
     borderopacity="1"
     inkscape:showpageshadow="2"
     inkscape:pageopacity="0.0"
     inkscape:pagecheckerboard="0"
     inkscape:deskcolor="#cccccc"
     showgrid="false"
     inkscape:zoom="7.375"
     inkscape:cx="50.169492"
     inkscape:cy="35.864407"
     inkscape:window-width="1920"
     inkscape:window-height="1002"
     inkscape:window-x="0"
     inkscape:window-y="0"
     inkscape:window-maximized="1"
     inkscape:current-layer="svg14" />
  <defs
     id="l4k1">
    <style
       type="text/css"
       id="current-color-scheme" />
  </defs>
  <g
     id="22-22-internet-web-browser"
     transform="translate(32,10)">
    <rect
       style="opacity:0.00100002"
       width="22"
       height="22"
       x="0"
       y="0"
       id="rect981" />
    <path
       id="External-3"
       class="st0  ColorScheme-Highlight"
       d="m 3.5,3 h 14.857143 v 12 c 0,1.571429 -1.285714,2.857143 -2.857143,2.857143 h -12 z"
       style="fill:currentColor;fill-opacity:1;stroke-width:0.285714" />
    <path
       id="External-s-6"
       class="st1  ColorScheme-Text"
       d="m 11.328571,10.828571 z m 5.885715,-2.114285 v 6.857143 c 0,1.257142 -1.028572,2.285714 -2.285715,2.285714 H 4.642857 V 19 h 10.285714 c 1.885715,0 3.428572,-1.542857 3.428572,-3.428571 V 8.714286 Z"
       sodipodi:nodetypes="cccccccccccssccsscc"
       style="fill:currentColor;fill-opacity:1;stroke-width:0.285714" />
    <path
       style="fill:currentColor;fill-opacity:1;stroke-width:0.61875"
       d="M 10.950821,5.7 C 9.1412216,5.700218 7.3590415,6.74761 6.5557635,8.382851 5.7406704,9.899508 5.8346644,11.827 6.7554455,13.274802 c 1.093889,1.788094 3.4014595,2.723706 5.4289365,2.163196 1.80189,-0.432344 3.237621,-1.981731 3.602214,-3.788276 0.319559,-1.391664 -0.05161,-2.894558 -0.92028,-4.01937 -0.910672,-1.202359 -2.410318,-1.93535 -3.918013,-1.92843 m 0,0.618339 c 0.704324,0.0047 1.401597,0.189843 2.030193,0.503286 -0.318617,0.104617 0.149618,0.409114 -0.08923,0.569595 0.247423,0.161548 0.578135,-0.148123 0.235744,-0.309316 -0.302396,-0.477401 0.772894,0.14151 0.215186,0.311718 -0.189911,0.172602 -0.65288,0.103805 -0.275941,0.417572 0.03039,0.30471 -0.660114,-0.06117 -0.573687,0.440263 0.03337,0.225557 0.126126,0.301776 -0.208713,0.504286 -0.264083,0.366399 -0.756735,0.670057 -0.67469,1.224855 -0.132606,0.438741 0.336071,0.664461 0.713907,0.759006 0.391635,-0.02575 1.324595,-0.279799 1.485008,0.210474 -0.166635,0.434001 0.729799,0.864096 0.351185,1.295093 -0.245722,0.403307 0.04829,0.543337 -0.03025,0.958345 0.302957,0.436065 -0.786245,1.075169 -1.118107,1.270098 -1.002079,0.588605 -2.286873,0.66549 -3.3894644,0.284988 -0.433379,-0.262693 0.09752,-0.46866 0.234393,-0.601147 -0.18946,-0.36182 0.105942,-0.142857 0.108806,-0.527078 0.0045,-0.581103 0.7752784,-0.486162 0.7206514,-1.090161 0.01615,-0.360039 0.576138,-0.85032 -0.04288,-0.996417 -0.46274,-0.08822 -0.8407604,-0.05891 -1.0831294,-0.459427 -0.421586,-0.05601 -0.426565,-0.499669 -0.9197271,-0.419592 -0.348006,-0.207165 -0.822217,0.52703 -1.03454,-2.9e-4 0.07997,-0.270075 -0.07771,-0.693594 -0.312519,-0.639236 0.112549,-0.202366 0.11122,-0.601533 -0.149265,-0.275959 -0.423198,0.375147 -0.520353,-0.260244 -0.304622,-0.53105 0.271759,-0.354295 0.926571,-0.332258 1.146123,-0.01345 -0.02228,-0.51625 0.533531,-0.592604 0.7752091,-0.989983 0.274636,-0.141485 0.555577,-0.466608 0.821871,-0.314342 0.185247,-0.02708 0.378685,-0.239361 0.07466,-0.130626 -0.14568,-0.07107 0.143457,-0.315876 -0.116338,-0.251643 0.216902,-0.05597 0.444261,-0.09682 0.6633724,-0.105681 -0.4804424,0.284331 0.543134,0.375972 0.114818,0.06132 C 10.444419,7.146063 10.1965,7.052775 10.111646,6.774756 9.8781356,6.783956 9.8573746,6.859646 9.7276226,6.626543 9.2693116,6.364045 10.168996,6.701283 10.231292,6.472611 10.407825,6.276645 10.715207,6.343227 10.950825,6.32163 M 9.4038976,6.61162 C 9.3020496,6.96208 9.0048866,7.216057 8.7705176,7.325434 8.7047475,7.13066 8.7893976,7.074928 8.5877565,7.029042 8.8139866,6.823532 9.1303946,6.742386 9.4020276,6.61162 m 3.3258954,0.46364 c -0.374277,0.105956 0.03137,0.445081 0.111318,0.07358 0.0016,-0.05637 -0.06654,-0.07958 -0.111924,-0.07301 m 1.314904,0.714106 c 0.317118,0.161458 0.853747,0.785648 0.700456,0.998713 -0.272499,-0.06631 -0.18119,0.285325 -0.483925,0.07102 C 13.852833,8.797089 13.849364,8.204894 13.356037,8.450263 13.179528,8.574425 12.47852,8.622226 13.003772,8.415323 13.233664,8.16644 13.589648,7.715343 13.990723,8.027388 14.111067,8.16722 14.350096,8.445587 14.363048,8.150203 14.272278,8.066383 13.871404,7.953602 14.04411,7.787954 m -7.2501165,2.241909 c 0.394475,0.119808 0.66189,0.826697 1.004617,0.892599 0.457061,-0.137854 0.04428,0.621023 -0.05367,0.812456 0.08822,0.473812 0.402912,0.684918 0.824982,0.935367 0.2285311,0.522627 0.0975,1.13319 0.2019961,1.682834 -0.5395491,-0.248549 -1.0196861,-0.754273 -1.3803131,-1.249876 -0.558863,-0.792073 -0.825702,-1.784116 -0.760812,-2.74822 0.03327,-0.106947 0.03041,-0.295352 0.165648,-0.324851"
       id="path6-3"
       class="ColorScheme-Text" />
  </g>
  <g
     id="internet-web-browser">
    <rect
       style="opacity:0.00100002"
       width="32"
       height="32"
       x="0"
       y="0"
       id="rect976" />
    <path
       id="External"
       class="st0  ColorScheme-Highlight "
       d="m 5,4 h 22.285714 v 18 c 0,2.357143 -1.928571,4.285714 -4.285714,4.285714 H 5 Z"
       style="fill:currentColor;fill-opacity:1;stroke-width:0.428571" />
    <path
       id="External-s"
       class="st1  ColorScheme-Text"
       d="m 16.742857,15.742857 z m 8.828572,-3.171428 v 10.285714 c 0,1.885714 -1.542858,3.428571 -3.428572,3.428571 H 6.714286 V 28 h 15.428571 c 2.828572,0 5.142857,-2.314286 5.142857,-5.142857 V 12.571429 Z"
       sodipodi:nodetypes="cccccccccccssccsscc"
       style="fill:currentColor;fill-opacity:1;stroke-width:0.428571" />
    <path
       style="fill:currentColor;fill-opacity:1"
       d="m 16.001324,7.1 c -2.924616,3.4e-4 -5.804895,1.693112 -7.1031115,4.335929 -1.317338,2.451156 -1.16542,5.566299 0.322719,7.906166 1.7678815,2.889856 5.4972995,4.401956 8.7740225,3.496087 2.912142,-0.698751 5.23253,-3.202809 5.821775,-6.122483 0.516443,-2.24914 -0.08333,-4.678064 -1.487322,-6.495937 C 20.8576,8.276543 18.433927,7.091927 15.997263,7.103099 m 0,0.999345 c 1.138278,0.0065 2.265193,0.306823 3.281119,0.813392 -0.514953,0.169076 0.24179,0.661183 -0.144188,0.920545 0.399882,0.261101 0.934358,-0.239378 0.381005,-0.499897 -0.488731,-0.771543 1.24912,0.228696 0.347781,0.503789 -0.306948,0.278943 -1.055162,0.167766 -0.445986,0.674868 0.04914,0.492444 -1.066826,-0.09897 -0.927166,0.711532 0.05393,0.364533 0.203838,0.487722 -0.337317,0.815003 -0.426785,0.592171 -1.223001,1.082929 -1.090407,1.97958 -0.214307,0.709065 0.54316,1.07387 1.153792,1.226664 0.632948,-0.04161 2.14076,-0.45221 2.400025,0.340161 -0.269321,0.701412 1.179458,1.396518 0.567569,2.093073 -0.397132,0.651812 0.07816,0.878122 -0.04898,1.548846 0.489629,0.70474 -1.270699,1.737658 -1.80704,2.052693 -1.619521,0.951273 -3.695961,1.075535 -5.477921,0.460568 -0.700414,-0.424546 0.157627,-0.757423 0.378815,-0.971543 -0.306194,-0.584756 0.17123,-0.230886 0.175852,-0.851852 0.0063,-0.939154 1.25298,-0.785718 1.164689,-1.761878 0.02609,-0.58187 0.93113,-1.374249 -0.06929,-1.610359 -0.747871,-0.142556 -1.358818,-0.0953 -1.75052,-0.742508 -0.681351,-0.09061 -0.689403,-0.807536 -1.486419,-0.67813 -0.562444,-0.334818 -1.328843,0.851755 -1.671987,-4.57e-4 0.129303,-0.436499 -0.125593,-1.120958 -0.505096,-1.033109 0.181906,-0.327054 0.179761,-0.972176 -0.2412265,-0.446009 -0.683948,0.606314 -0.840985,-0.42059 -0.492318,-0.858264 0.439207,-0.572602 1.4974945,-0.536982 1.8523175,-0.02168 -0.03604,-0.834347 0.862277,-0.957751 1.252873,-1.599976 0.443851,-0.228661 0.897901,-0.754113 1.328267,-0.508026 0.299396,-0.04373 0.612024,-0.386848 0.12061,-0.211124 -0.235444,-0.114871 0.23185,-0.510503 -0.188021,-0.406696 0.35054,-0.09037 0.718,-0.156474 1.072112,-0.170788 -0.77647,0.459529 0.877788,0.607624 0.185569,0.09914 C 15.18279,9.437163 14.782117,9.286401 14.644977,8.837071 14.267587,8.851971 14.234035,8.974258 14.024332,8.597529 13.283628,8.173297 14.737665,8.71836 14.838343,8.348758 15.123647,8.032043 15.620427,8.139659 16.001224,8.104746 M 13.50114,8.573427 C 13.336542,9.139827 12.856277,9.550285 12.477499,9.727056 12.371225,9.41227 12.507969,9.3222 12.18213,9.248038 12.547749,8.915899 13.059119,8.784759 13.49812,8.573427 m 5.375187,0.749308 c -0.604893,0.171241 0.05071,0.719332 0.179907,0.118899 0.0016,-0.09114 -0.107439,-0.128601 -0.180897,-0.117999 m 2.125103,1.154108 c 0.512518,0.260944 1.379796,1.269736 1.132056,1.614083 -0.440411,-0.107181 -0.292842,0.46113 -0.782107,0.114767 -0.65603,-0.101044 -0.661634,-1.058218 -1.458932,-0.661652 -0.285266,0.200662 -1.418211,0.277921 -0.569316,-0.05647 0.371541,-0.402234 0.946867,-1.131297 1.595068,-0.626984 0.194503,0.226006 0.580808,0.675893 0.601741,0.198509 -0.146663,-0.135482 -0.79458,-0.317744 -0.51546,-0.585458 M 9.2831205,14.097814 c 0.637523,0.193634 1.0697195,1.336086 1.6236185,1.442584 0.738681,-0.222783 0.07159,1.003674 -0.08665,1.313067 0.142561,0.765758 0.65116,1.106931 1.333299,1.511698 0.369336,0.844647 0.157576,1.831434 0.326452,2.719747 -0.871998,-0.401699 -1.647983,-1.219029 -2.230809,-2.020005 -0.9032115,-1.280115 -1.3344675,-2.883429 -1.2295865,-4.441573 0.05383,-0.172846 0.04916,-0.477341 0.267709,-0.525018"
       id="path6-3-6"
       class="ColorScheme-Text" />
  </g>
</svg>
