<?xml version="1.0" encoding="UTF-8" standalone="no"?>
<!-- Created with Inkscape (http://www.inkscape.org/) -->

<svg
   width="32"
   height="32"
   viewBox="0 0 32 32"
   version="1.1"
   id="SVGRoot"
   sodipodi:docname="juk.svg"
   inkscape:version="1.2.2 (b0a8486541, 2022-12-01)"
   xmlns:inkscape="http://www.inkscape.org/namespaces/inkscape"
   xmlns:sodipodi="http://sodipodi.sourceforge.net/DTD/sodipodi-0.dtd"
   xmlns="http://www.w3.org/2000/svg"
   xmlns:svg="http://www.w3.org/2000/svg">
    <style
       id="current-color-scheme"
       type="text/css">.ColorScheme-Highlight { color:#cdd8e5; }
.ColorScheme-Text { color:#eff0f1; }
</style>
  <sodipodi:namedview
     id="namedview1681"
     pagecolor="#ffffff"
     bordercolor="#000000"
     borderopacity="0.25"
     inkscape:showpageshadow="2"
     inkscape:pageopacity="0.0"
     inkscape:pagecheckerboard="0"
     inkscape:deskcolor="#d1d1d1"
     inkscape:document-units="px"
     showgrid="false"
     inkscape:zoom="6.7277216"
     inkscape:cx="25.78882"
     inkscape:cy="51.50332"
     inkscape:window-width="1920"
     inkscape:window-height="1002"
     inkscape:window-x="0"
     inkscape:window-y="0"
     inkscape:window-maximized="1"
     inkscape:current-layer="layer1">
    <inkscape:grid
       type="xygrid"
       id="grid1804"
       originx="0"
       originy="0" />
  </sodipodi:namedview>
  <defs
     id="defs1676" />
  <g
     inkscape:label="Layer 1"
     inkscape:groupmode="layer"
     id="layer1">
    <g
       id="juk">
      <rect
         style="opacity:0.00100002;fill:#eff0f1;fill-opacity:1"
         width="32"
         height="32"
         x="0"
         y="0"
         id="rect7" />
      <path
         id="External-9-8"
         class="st0  ColorScheme-Highlight "
         d="m 5,4 h 22.285714 v 18 c 0,2.357143 -1.928571,4.285714 -4.285714,4.285714 H 5 Z"
         style="fill:currentColor;fill-opacity:1;stroke-width:0.428571" />
      <path
         id="External-s-3-7"
         class="st1  ColorScheme-Text"
         d="m 16.742857,15.742857 z m 8.828572,-3.171428 v 10.285714 c 0,1.885714 -1.542858,3.428571 -3.428572,3.428571 H 6.714286 V 28 h 15.428571 c 2.828572,0 5.142857,-2.314286 5.142857,-5.142857 V 12.571429 Z"
         sodipodi:nodetypes="cccccccccccssccsscc"
         style="fill:currentColor;fill-opacity:1;stroke-width:0.428571" />
      <path
         style="fill:currentColor;fill-opacity:1;stroke-width:1"
         class="  ColorScheme-Text"
         d="m 16,7.3 c -4.424,0 -8,3.576001 -8,8 0,4.424 3.576,8 8,8 4.423999,0 7.999999,-3.576 7.999999,-8 0,-4.423999 -3.576,-8 -7.999999,-8 z m 0,0.9999999 c 3.869992,0 6.999999,3.1299981 6.999999,7.0000001 0,3.869988 -3.130007,7 -6.999999,7 -3.870008,0 -7,-3.130012 -7,-7 0,-3.870002 3.129992,-7.0000001 7,-7.0000001 z m 0.749992,5.7190011 v 0 0 0 0 0 c 0,0 -0.03396,0.0078 0,0 z m -0.780995,4.5 z"
         id="path58-36-6-9"
         sodipodi:nodetypes="ssssssssssccccccccccccccccc" />
      <path
         d="m 18.052377,15.299811 c 0,-1.058427 -0.86288,-1.919297 -1.923495,-1.919297 -1.060611,0 -1.923495,0.86087 -1.923495,1.919297 0,1.058425 0.862884,1.919528 1.923495,1.919528 1.060615,0 1.923495,-0.861103 1.923495,-1.919528 z m -3.203388,0 c 0,-0.70403 0.574188,-1.277089 1.279893,-1.277089 0.705706,0 1.27989,0.573014 1.27989,1.277089 0,0.704261 -0.574184,1.27726 -1.27989,1.27726 -0.705705,0 -1.279893,-0.573014 -1.279893,-1.27726 z"
         id="path70-7-0-2"
         style="fill:currentColor;fill-opacity:1;stroke-width:0.057404"
         class="ColorScheme-Text" />
      <path
         d="m 16.044016,11.961721 c 0.177778,-0.0051 0.318071,-0.152097 0.313568,-0.329294 -0.0047,-0.17472 -0.147695,-0.312936 -0.321877,-0.312936 h -0.008 c -0.478562,0.01234 -0.948372,0.109988 -1.396201,0.290991 -0.446909,0.180549 -0.851845,0.436135 -1.204278,0.759601 -0.131079,0.120071 -0.139163,0.323237 -0.01901,0.453839 0.06353,0.06901 0.150167,0.103715 0.23704,0.103715 0.07787,0 0.156232,-0.028 0.217732,-0.08466 0.295393,-0.271267 0.635045,-0.48587 1.010106,-0.637282 0.375762,-0.151648 0.76973,-0.233861 1.171048,-0.243945 z"
         id="path72-5-6-0"
         style="fill:currentColor;fill-opacity:1;stroke-width:0.057404"
         class="ColorScheme-Text" />
      <path
         d="m 16.649097,10.637613 c 0.178907,0.01903 0.336043,-0.1073 0.355785,-0.28359 0.01983,-0.176298 -0.10752,-0.335347 -0.284165,-0.355053 -0.875409,-0.09721 -1.775515,0.02577 -2.598235,0.358406 -0.822663,0.332433 -1.554001,0.867355 -2.115592,1.547416 -0.113145,0.136641 -0.09361,0.339373 0.04377,0.451816 0.05995,0.04928 0.132208,0.07345 0.204266,0.07345 0.09293,0 0.185181,-0.03988 0.248484,-0.116924 0.493604,-0.597423 1.136922,-1.068064 1.860618,-1.360414 0.723928,-0.292782 1.514296,-0.402096 2.285111,-0.315182 z"
         id="path74-3-2-2"
         style="fill:currentColor;fill-opacity:1;stroke-width:0.057404"
         class="ColorScheme-Text" />
      <path
         d="m 16.215818,18.637896 c -0.177777,0.0045 -0.318072,0.152102 -0.313569,0.329294 0.0047,0.174726 0.147699,0.312931 0.321442,0.312931 h 0.008 c 0.478341,-0.01233 0.947466,-0.110432 1.394424,-0.290975 0.44781,-0.180545 0.853851,-0.436813 1.205821,-0.760752 0.130637,-0.120515 0.138947,-0.323237 0.01861,-0.453842 -0.120314,-0.130146 -0.323679,-0.138209 -0.454768,-0.0186 -0.295172,0.271502 -0.635033,0.486101 -1.011019,0.637976 -0.375541,0.151871 -0.769046,0.233857 -1.169505,0.243941 z"
         id="path76-5-6-3"
         style="fill:currentColor;fill-opacity:1;stroke-width:0.057404"
         class="ColorScheme-Text" />
      <path
         d="m 19.753881,18.28637 c -0.4936,0.597656 -1.13693,1.068069 -1.861093,1.360413 -0.723464,0.293226 -1.513353,0.402759 -2.284651,0.315177 -0.177544,-0.01813 -0.335575,0.10752 -0.355775,0.283589 -0.01981,0.176289 0.107521,0.335337 0.284183,0.355052 0.195057,0.02172 0.391474,0.03274 0.587857,0.03274 0.685309,0 1.370791,-0.132395 2.009913,-0.391121 0.822655,-0.332197 1.554227,-0.867349 2.115821,-1.547407 0.113134,-0.136647 0.09361,-0.339372 -0.04381,-0.451829 -0.137148,-0.112897 -0.339853,-0.09318 -0.452522,0.04349 z"
         id="path78-6-1-7"
         style="fill:currentColor;fill-opacity:1;stroke-width:0.057404"
         class="ColorScheme-Text" />
    </g>
    <g
       id="22-22-juk">
      <rect
         style="opacity:0.00100002;fill:#eff0f1;fill-opacity:1"
         width="22"
         height="22"
         x="47"
         y="10"
         id="rect2" />
      <path
         id="External-3"
         class="st0  ColorScheme-Highlight "
         d="m 50.500151,13 h 14.857143 v 12 c 0,1.571429 -1.285714,2.857143 -2.857143,2.857143 h -12 z"
         style="fill:currentColor;fill-opacity:1;stroke-width:0.285714" />
      <path
         id="External-s-6"
         class="st1  ColorScheme-Text "
         d="m 58.328722,20.828571 z m 5.885715,-2.114285 v 6.857143 c 0,1.257142 -1.028572,2.285714 -2.285715,2.285714 H 51.643008 V 29 h 10.285714 c 1.885715,0 3.428572,-1.542857 3.428572,-3.428571 v -6.857143 z"
         sodipodi:nodetypes="cccccccccccssccsscc"
         style="fill:currentColor;fill-opacity:1;stroke-width:0.285714" />
      <path
         style="fill:currentColor;fill-opacity:1;stroke-width:0.625"
         d="m 58,15.5 c -2.765,0 -5,2.235 -5,4.999999 0,2.765003 2.235,5 5,5 2.765001,0 5,-2.234998 5,-5 C 63,17.735 60.765001,15.5 58,15.5 Z m 0,0.625 c 2.418748,0 4.375,1.956249 4.375,4.374999 0,2.418749 -1.956252,4.375001 -4.375,4.375001 -2.418756,0 -4.375,-1.956252 -4.375,-4.375001 0,-2.41875 1.956244,-4.374999 4.375,-4.374999 z m 0.468748,3.574377 v 0 0 0 0 0 c 0,0 -0.02119,0.0049 0,0 z m -0.48813,2.812499 z"
         id="path58-3-2"
         sodipodi:nodetypes="ssssssssssccccccccccccccccc"
         class="ColorScheme-Text " />
      <path
         d="m 59.17505,20.521987 c 0,-0.622912 -0.507835,-1.129566 -1.132026,-1.129566 -0.624206,0 -1.132037,0.506654 -1.132037,1.129566 0,0.622911 0.507831,1.129688 1.132037,1.129688 0.624191,0 1.132026,-0.506777 1.132026,-1.129688 z m -1.885289,0 c 0,-0.414341 0.337934,-0.751605 0.753263,-0.751605 0.415326,0 0.753251,0.337231 0.753251,0.751605 0,0.414467 -0.337925,0.751699 -0.753251,0.751699 -0.415329,0 -0.753263,-0.337235 -0.753263,-0.751699 z"
         id="path70-6-9"
         style="fill:currentColor;fill-opacity:1;stroke-width:0.0337841"
         class="ColorScheme-Text " />
      <path
         d="m 57.993059,18.557422 c 0.10464,-0.0033 0.187195,-0.08951 0.184559,-0.1938 -0.0037,-0.102824 -0.08693,-0.184169 -0.189441,-0.184169 h -0.0049 c -0.281893,0.0078 -0.558398,0.06475 -0.821954,0.171258 -0.263021,0.106263 -0.501335,0.256676 -0.708745,0.447043 -0.07712,0.07063 -0.08191,0.190238 -0.01117,0.267095 0.0374,0.0406 0.08833,0.06106 0.13951,0.06106 0.04586,0 0.09194,-0.01649 0.12814,-0.04986 0.17385,-0.159664 0.373737,-0.285962 0.594471,-0.375079 0.221145,-0.08922 0.453011,-0.137618 0.6892,-0.14356 z"
         id="path72-7-1"
         style="fill:currentColor;fill-opacity:1;stroke-width:0.0337841"
         class="ColorScheme-Text " />
      <path
         d="m 58.349185,17.778151 c 0.105275,0.01115 0.197764,-0.06313 0.209377,-0.166902 0.01159,-0.103759 -0.06332,-0.197363 -0.167236,-0.208962 -0.515208,-0.05718 -1.044938,0.01516 -1.529134,0.210929 -0.484153,0.195657 -0.914577,0.510471 -1.245086,0.910699 -0.06658,0.08037 -0.0551,0.199734 0.02575,0.265911 0.03529,0.02902 0.07786,0.0432 0.120216,0.0432 0.05467,0 0.108991,-0.02356 0.14624,-0.06886 0.290493,-0.351602 0.669114,-0.628591 1.09503,-0.800637 0.426056,-0.172318 0.891194,-0.236658 1.344855,-0.185495 z"
         id="path74-5-2"
         style="fill:currentColor;fill-opacity:1;stroke-width:0.0337841"
         class="ColorScheme-Text " />
      <path
         d="m 58.094188,22.486543 c -0.104636,0.0036 -0.187199,0.08956 -0.184552,0.193802 0.0036,0.102831 0.08692,0.184167 0.189178,0.184167 h 0.005 c 0.281512,-0.0075 0.557605,-0.06498 0.820655,-0.171255 0.263552,-0.106245 0.502512,-0.257076 0.709656,-0.447718 0.07688,-0.0709 0.0818,-0.190232 0.01098,-0.267097 -0.07084,-0.0766 -0.190495,-0.08133 -0.267651,-0.01094 -0.173719,0.159786 -0.373735,0.286075 -0.595015,0.375465 -0.221014,0.08936 -0.452603,0.137626 -0.688279,0.143568 z"
         id="path76-3-7"
         style="fill:currentColor;fill-opacity:1;stroke-width:0.0337841"
         class="ColorScheme-Text " />
      <path
         d="m 60.176425,22.279658 c -0.290484,0.351737 -0.669107,0.628591 -1.0953,0.800649 -0.425775,0.172568 -0.890648,0.237034 -1.344576,0.185481 -0.104498,-0.01062 -0.197498,0.0633 -0.20939,0.166899 -0.01162,0.103764 0.06327,0.197363 0.167253,0.208964 0.114789,0.01282 0.230395,0.01922 0.345971,0.01922 0.403328,0 0.806743,-0.0779 1.182891,-0.230181 0.484151,-0.195514 0.914701,-0.510465 1.245214,-0.910698 0.06656,-0.08039 0.05509,-0.199729 -0.02576,-0.265903 -0.08075,-0.06645 -0.200013,-0.05487 -0.26632,0.02547 z"
         id="path78-5-0"
         style="fill:currentColor;fill-opacity:1;stroke-width:0.0337841"
         class="ColorScheme-Text " />
    </g>
  </g>
</svg>
