<?xml version="1.0" encoding="UTF-8" standalone="no"?>
<svg
   id="svg4153"
   version="1.1"
   inkscape:version="1.2 (dc2aedaf03, 2022-05-15)"
   width="22"
   height="22"
   sodipodi:docname="kteatime.svg"
   viewBox="0 0 22 22"
   xmlns:inkscape="http://www.inkscape.org/namespaces/inkscape"
   xmlns:sodipodi="http://sodipodi.sourceforge.net/DTD/sodipodi-0.dtd"
   xmlns="http://www.w3.org/2000/svg"
   xmlns:svg="http://www.w3.org/2000/svg"
   xmlns:rdf="http://www.w3.org/1999/02/22-rdf-syntax-ns#"
   xmlns:cc="http://creativecommons.org/ns#"
   xmlns:dc="http://purl.org/dc/elements/1.1/">
  <style
     id="style737">
.ColorScheme-Text { 
    color:#eff0f1;
}
.ColoeScheme-Highlight { color:#cdd8e5; }
</style>
  <metadata
     id="metadata4159">
    <rdf:RDF>
      <cc:Work
         rdf:about="">
        <dc:format>image/svg+xml</dc:format>
        <dc:type
           rdf:resource="http://purl.org/dc/dcmitype/StillImage" />
      </cc:Work>
    </rdf:RDF>
  </metadata>
  <defs
     id="defs4157">
    <style
       type="text/css"
       id="current-color-scheme" />
  </defs>
  <sodipodi:namedview
     pagecolor="#b3b3b3"
     bordercolor="#000000"
     borderopacity="1"
     objecttolerance="10"
     gridtolerance="10000"
     guidetolerance="10"
     inkscape:pageopacity="0"
     inkscape:pageshadow="2"
     inkscape:window-width="1920"
     inkscape:window-height="1000"
     id="namedview4155"
     inkscape:document-units="px"
     showgrid="false"
     inkscape:showpageshadow="false"
     borderlayer="true"
     inkscape:zoom="11.313708"
     inkscape:cx="2.0771263"
     inkscape:cy="13.656"
     inkscape:window-x="0"
     inkscape:window-y="0"
     inkscape:window-maximized="1"
     inkscape:current-layer="svg4153"
     inkscape:document-rotation="0"
     inkscape:pagecheckerboard="0"
     inkscape:deskcolor="#b3b3b3">
    <inkscape:grid
       type="xygrid"
       id="grid1237" />
  </sodipodi:namedview>
  <inkscape:clipboard
     style="opacity:0.01000001;fill:#00000f;fill-opacity:0;stroke-width:1;stroke-linecap:butt;stroke-linejoin:miter;stroke-miterlimit:4;stroke-dasharray:none;stroke-dashoffset:0;stroke-opacity:1;stroke:none"
     min="0,0"
     max="22,22" />
  <g
     id="kteatime">
    <rect
       y="0"
       x="0"
       height="22"
       width="22"
       id="rect817"
       style="clip-rule:evenodd;fill:#ffffff;fill-opacity:0;fill-rule:evenodd;stroke-width:1.17623;stroke-linejoin:round;stroke-miterlimit:1.41421" />
    <path
       id="Cup"
       class="st0  ColoeScheme-Highlight"
       d="M 5.3750005,3 H 16.624995 v 6.8571437 c 0,1.8857113 -1.518753,3.4285643 -3.374987,3.4285643 H 8.7499987 c -1.8562486,0 -3.3749982,-1.542853 -3.3749982,-3.4285643 z m 0,14.857145 H 17.750004 C 18.987501,17.857145 20,16.828563 20,15.571437 v -1.142874 h -1.125008 v 1.142874 H 13.250008 V 14.428563 H 2 c 0,1.885729 1.51875,3.428582 3.3750005,3.428582 z"
       style="stroke-width:0.283469;fill-opacity:1;fill:currentColor;" />
    <path
       id="Cup-s"
       class="st1  ColorScheme-Text"
       d="M 20,15.571437 C 20,17.457145 18.481253,19 16.624995,19 H 5.3750005 V 17.857145 H 16.624995 c 1.237498,0 2.249997,-1.028582 2.249997,-2.285708 z M 2.5625004,7 c 0,-1.2571437 1.0125,-2.2857145 2.2499996,-2.2857145 H 5.3750005 V 5.8571437 H 4.8125 C 4.1937493,5.8571437 3.6874992,6.3714291 3.6874992,7 V 9.2857144 H 2.5625004 Z M 16.624995,4.1428563 V 11 c 0,1.885708 -1.518753,3.428563 -3.374987,3.428563 H 12.125 v -1.142855 h 1.125008 c 1.237497,0 2.249997,-1.028563 2.249997,-2.285708 V 4.1428563 Z"
       style="stroke-width:0.283469;fill-opacity:1;fill:currentColor;" />
  </g>
</svg>
