<?xml version="1.0" encoding="UTF-8" standalone="no"?>
<!-- Created with Inkscape (http://www.inkscape.org/) -->

<svg
   width="32"
   height="32"
   viewBox="0 0 32 32"
   version="1.1"
   id="SVGRoot"
   sodipodi:docname="nulloy.svg"
   inkscape:version="1.2.1 (9c6d41e410, 2022-07-14)"
   xmlns:inkscape="http://www.inkscape.org/namespaces/inkscape"
   xmlns:sodipodi="http://sodipodi.sourceforge.net/DTD/sodipodi-0.dtd"
   xmlns="http://www.w3.org/2000/svg"
   xmlns:svg="http://www.w3.org/2000/svg">
  <style
     id="style1633">
.ColorScheme-Text { 
    color:#eff0f1;
}
.ColorScheme-Highlight { color:#cdd8e5; }
</style>
  <sodipodi:namedview
     id="namedview1332"
     pagecolor="#ffffff"
     bordercolor="#666666"
     borderopacity="1.0"
     inkscape:showpageshadow="2"
     inkscape:pageopacity="0.0"
     inkscape:pagecheckerboard="0"
     inkscape:deskcolor="#d1d1d1"
     inkscape:document-units="px"
     showgrid="true"
     inkscape:zoom="13.455443"
     inkscape:cx="17.613689"
     inkscape:cy="23.893676"
     inkscape:window-width="1920"
     inkscape:window-height="1010"
     inkscape:window-x="0"
     inkscape:window-y="0"
     inkscape:window-maximized="1"
     inkscape:current-layer="layer1">
    <inkscape:grid
       type="xygrid"
       id="grid1556"
       originx="0"
       originy="3.1590464e-09" />
  </sodipodi:namedview>
  <defs
     id="defs1327" />
  <g
     inkscape:label="Layer 1"
     inkscape:groupmode="layer"
     id="layer1"
     transform="translate(0,-0.083)">
    <g
       id="nulloy">
      <rect
         style="opacity:0.00100002;fill:#d3dae3;fill-opacity:1"
         width="32"
         height="32"
         x="0"
         y="0.082999997"
         id="rect7" />
      <path
         id="External"
         class="st0  Colorscheme-Highlight  ColorScheme-Highlight"
         d="m 5,4.083 h 22 v 18 c 0,2.357143 -1.903846,4.285714 -4.230769,4.285714 H 5 Z"
         style="fill:currentColor;fill-opacity:1;stroke-width:0.425815" />
      <path
         id="External-s"
         class="st1  ColorScheme-Text"
         d="m 16.592308,15.825857 z m 8.715384,-3.171428 v 10.285714 c 0,1.885714 -1.523077,3.428571 -3.384615,3.428571 H 6.692308 V 28.083 H 21.923077 C 24.715386,28.083 27,25.768714 27,22.940143 V 12.654429 Z"
         sodipodi:nodetypes="cccccccccccssccsscc"
         style="fill:currentColor;fill-opacity:1;stroke-width:0.425815" />
      <path
         style="fill:currentColor;fill-opacity:1;stroke-width:0.575101"
         d="m 9.02658,9.083 0.01328,0.0957 c 0.329636,2.247652 0.518923,4.102423 0.76412,5.229504 0.245202,1.127043 0.550191,1.798483 1.122925,2.170401 0.572728,0.371902 1.388467,0.435462 2.64287,0.394761 1.2544,-0.0407 2.9514,-0.363305 5.294005,-0.4375 l 0.07643,-0.003 -0.01008,-0.07519 c -0.22058,-1.726068 -0.294064,-3.011353 -0.443415,-3.872982 -0.149345,-0.86164 -0.383119,-1.399342 -0.91861,-1.76366 -0.5355,-0.364322 -1.355521,-0.555982 -2.687716,-0.779296 C 13.548234,9.818422 11.702013,9.566316 9.117941,9.100087 Z m 11.225912,0 c -0.936486,0 -1.700996,0.781499 -1.700996,1.75 0,0.968607 0.764516,1.75 1.700996,1.75 0.936475,0 1.700994,-0.781393 1.700994,-1.75 0,-0.968501 -0.764508,-1.75 -1.700994,-1.75 z m 2.747509,3.088139 -0.137865,0.08369 c -1.103499,0.678835 -1.918945,0.800553 -2.549836,1.156988 -0.31546,0.178217 -0.582664,0.418292 -0.800662,0.810047 -0.218014,0.391762 -0.389059,0.932685 -0.526592,1.720947 l -0.01996,0.121333 0.109635,-0.0427 c 1.712934,-0.659579 2.474158,-0.717743 2.935214,-1.06128 0.23051,-0.171768 0.372574,-0.414578 0.503323,-0.816891 0.13074,-0.402309 0.253196,-0.968954 0.448496,-1.811526 z m -0.14119,2.949711 -0.182724,0.06147 c -1.830476,0.628387 -2.580701,0.80914 -2.965132,1.097163 -0.19221,0.144035 -0.283723,0.319602 -0.353824,0.567395 -0.07011,0.247797 -0.124565,0.573999 -0.250822,1.049307 l -0.02999,0.111093 0.109635,-0.02567 c 1.10856,-0.251679 1.619113,-0.311868 2.051495,-0.625481 0.43238,-0.313612 0.760097,-0.860914 1.516613,-2.069568 z m -3.867115,1.78416 -0.09303,0.007 c -2.784062,0.149271 -4.233776,0.168292 -5.199333,0.803215 -0.482765,0.31745 -0.832274,0.831004 -1.151155,1.657727 -0.318899,0.826713 -0.611888,1.680739 -0.985053,3.277831 l -0.02657,0.116202 0.111294,-0.03422 c 1.661592,-0.502221 2.840293,-0.719347 3.700978,-0.861329 0.860703,-0.141977 1.406156,-0.205433 1.810633,-0.416995 0.404493,-0.211556 0.648817,-0.572174 0.89203,-1.26294 0.243216,-0.690768 0.49238,-1.605672 0.915291,-3.192382 z m 3.342196,0.06665 c -0.817607,0.882518 -1.515553,1.042073 -2.056492,1.237307 -0.270457,0.09762 -0.505624,0.206037 -0.682706,0.422113 -0.177083,0.216102 -0.290996,0.532462 -0.335563,1.033932 l -0.007,0.08718 0.08305,-0.0103 c 0.994327,-0.132386 1.552433,-0.234675 1.975095,-0.599847 0.422658,-0.36519 0.691926,-0.974363 1.134545,-2.096923 z m -10.024921,1.650876 -0.121259,0.03252 C 10.925217,18.980448 10.342935,19.37925 9.981732,20.039302 9.620524,20.699325 9.475286,21.60062 9.04153,22.953115 L 9,23.083 9.127907,23.03856 c 0.573125,-0.194978 0.979598,-0.335828 1.290695,-0.49561 0.311103,-0.15974 0.527468,-0.340936 0.702658,-0.610098 0.350379,-0.538288 0.54692,-1.406699 1.146176,-3.190658 z m 9.757475,0.789558 -0.12292,0.04793 c -1.013273,0.396908 -1.569593,0.574151 -1.87376,0.845926 -0.152075,0.135901 -0.23618,0.299705 -0.265774,0.509282 -0.02968,0.209579 -0.01022,0.225029 0.02997,0.565683 l 0.0082,0.07866 0.07481,-0.0188 c 0.345844,-0.08997 0.597222,-0.08931 0.799006,-0.08033 0.201788,0.0091 0.360377,0.03186 0.508307,-0.03938 0.147929,-0.07122 0.260918,-0.230064 0.380398,-0.53662 0.119489,-0.306576 0.248732,-0.530882 0.428572,-1.242433 z"
         id="path9-6"
         class="ColorScheme-Text " />
    </g>
    <g
       id="22-22-nulloy">
      <rect
         style="opacity:0.00100002;fill:#d3dae3;fill-opacity:1"
         width="22"
         height="22"
         x="32"
         y="10.083"
         id="rect2" />
      <path
         id="External-3"
         class="st0  Colorscheme-Highlight  ColorScheme-Highlight"
         d="m 35.999997,13.083 h 14 v 11.999999 c 0,1.571429 -1.211537,2.857143 -2.692306,2.857143 H 35.999997 Z"
         style="fill:currentColor;fill-opacity:1;stroke-width:0.27735" />
      <path
         id="External-s-6"
         class="st1  ColorScheme-Text"
         d="m 43.376921,20.911571 z m 5.546151,-2.114285 v 6.857143 c 0,1.257142 -0.969232,2.285714 -2.153844,2.285714 H 37.07692 V 29.083 h 9.692308 c 1.776925,0 3.230769,-1.542857 3.230769,-3.428571 v -6.857143 z"
         sodipodi:nodetypes="cccccccccccssccsscc"
         style="fill:currentColor;fill-opacity:1;stroke-width:0.27735" />
      <path
         style="fill:currentColor;fill-opacity:1;stroke-width:0.616188"
         d="m 38.01898,16.082999 0.0095,0.06835 c 0.235459,1.605465 0.370664,2.9303 0.545798,3.735349 0.175144,0.805039 0.392995,1.284633 0.802089,1.550286 0.409101,0.265645 0.991758,0.311041 1.887749,0.281982 0.896006,-0.02907 2.108157,-0.259513 3.781453,-0.3125 l 0.05456,-0.0013 -0.0072,-0.05373 c -0.15768,-1.23379 -0.210172,-2.15184 -0.316852,-2.767299 -0.106681,-0.615456 -0.27365,-0.999536 -0.656148,-1.25976 -0.382498,-0.260228 -0.96824,-0.397129 -1.919795,-0.556641 -0.95155,-0.159509 -2.270276,-0.339585 -4.116041,-0.672607 z m 8.018509,0 c -0.668912,0 -1.214996,0.558214 -1.214996,1.250001 0,0.691856 0.546091,1.249994 1.214996,1.249994 0.668912,0 1.215001,-0.558138 1.215001,-1.249994 0,-0.691787 -0.546084,-1.250001 -1.215001,-1.250001 z m 1.962508,2.205806 -0.09846,0.05983 c -0.788215,0.484883 -1.370675,0.571815 -1.82131,0.826414 -0.225319,0.127299 -0.416192,0.298781 -0.571907,0.578612 -0.155716,0.279832 -0.277897,0.666206 -0.376123,1.229244 l -0.01426,0.08668 0.07835,-0.0305 c 1.223532,-0.471136 1.767261,-0.512674 2.096581,-0.758051 0.16466,-0.122696 0.266133,-0.296132 0.35952,-0.583497 0.0934,-0.287369 0.180858,-0.692107 0.320356,-1.293945 z m -0.100866,2.106935 -0.130518,0.04391 c -1.307476,0.448839 -1.843342,0.577945 -2.117933,0.783687 -0.137304,0.102877 -0.202678,0.228282 -0.252735,0.405275 -0.05003,0.176994 -0.08901,0.409994 -0.179167,0.749509 l -0.02135,0.07935 0.07836,-0.0183 c 0.791826,-0.179767 1.15651,-0.22276 1.465356,-0.446768 0.30884,-0.224007 0.542924,-0.614932 1.083292,-1.478268 z m -2.762222,1.274403 -0.06643,0.0046 c -1.988617,0.106622 -3.024141,0.120205 -3.713817,0.573725 -0.344829,0.226749 -0.594479,0.59357 -0.822255,1.184085 -0.227781,0.590511 -0.437064,1.200531 -0.703606,2.341303 l -0.01893,0.08301 0.07952,-0.02437 c 1.186854,-0.358731 2.028781,-0.513822 2.643566,-0.615237 0.614783,-0.101387 1.004392,-0.146733 1.293308,-0.297851 0.288913,-0.15111 0.463438,-0.408693 0.637166,-0.902097 0.173723,-0.493402 0.35169,-1.146904 0.653773,-2.280265 z m 2.387281,0.04763 c -0.584003,0.630368 -1.082533,0.744335 -1.468914,0.883789 -0.193182,0.06975 -0.361171,0.147168 -0.487662,0.301513 -0.126486,0.154347 -0.207842,0.380329 -0.239677,0.738525 l -0.0052,0.06223 0.05936,-0.0075 c 0.710231,-0.0946 1.108876,-0.167623 1.410773,-0.42847 0.301901,-0.260845 0.494239,-0.695964 0.810396,-1.497798 z m -7.160659,1.179198 -0.0866,0.02318 c -0.90178,0.23245 -1.317701,0.517313 -1.575701,0.988768 -0.257998,0.471461 -0.361747,1.115238 -0.671573,2.081292 l -0.02966,0.09279 0.09136,-0.03175 c 0.409375,-0.139273 0.699712,-0.239877 0.921929,-0.354003 0.222209,-0.114111 0.376759,-0.243549 0.501899,-0.435794 0.25027,-0.384493 0.390658,-1.004775 0.818698,-2.279049 z m 6.969631,0.563965 -0.08778,0.03416 c -0.723765,0.283508 -1.121142,0.410114 -1.338399,0.604239 -0.108626,0.09707 -0.168696,0.214075 -0.189841,0.363771 -0.02117,0.149697 -0.0074,0.160736 0.02135,0.404052 l 0.0061,0.05613 0.05336,-0.01342 c 0.247028,-0.06423 0.426583,-0.06384 0.570717,-0.05734 0.144134,0.0065 0.257408,0.02285 0.363076,-0.02811 0.105662,-0.05089 0.186366,-0.164333 0.271713,-0.383297 0.08537,-0.218976 0.177665,-0.379203 0.306123,-0.887454 z"
         id="path4-3"
         class="ColorScheme-Text " />
    </g>
  </g>
</svg>
