<?xml version="1.0" encoding="UTF-8" standalone="no"?>
<svg
   width="32"
   height="32"
   version="1.1"
   id="svg3204"
   sodipodi:docname="office.svg"
   inkscape:version="1.2.1 (9c6d41e410, 2022-07-14)"
   xmlns:inkscape="http://www.inkscape.org/namespaces/inkscape"
   xmlns:sodipodi="http://sodipodi.sourceforge.net/DTD/sodipodi-0.dtd"
   xmlns="http://www.w3.org/2000/svg"
   xmlns:svg="http://www.w3.org/2000/svg">
  <sodipodi:namedview
     id="namedview3206"
     pagecolor="#cccccc"
     bordercolor="#000000"
     borderopacity="1"
     inkscape:showpageshadow="2"
     inkscape:pageopacity="0"
     inkscape:pagecheckerboard="0"
     inkscape:deskcolor="#808080"
     showgrid="false"
     inkscape:zoom="10.429825"
     inkscape:cx="13.902438"
     inkscape:cy="18.648443"
     inkscape:window-width="1920"
     inkscape:window-height="1004"
     inkscape:window-x="0"
     inkscape:window-y="0"
     inkscape:window-maximized="1"
     inkscape:current-layer="svg3204">
    <inkscape:grid
       type="xygrid"
       id="grid3410" />
  </sodipodi:namedview>
  <defs
     id="defs199">
    <style
       id="current-color-scheme"
       type="text/css">.ColorScheme-Background { color:#181818; }
.ColorScheme-ButtonBackground { color:#343434; }
.ColorScheme-Highlight { color:#cdd8e5; }
.ColorScheme-Text { color:#eff0f1; }
.ColorScheme-ViewBackground { color:#242424; }
.ColorScheme-NegativeText { color:#f44336; }
.ColorScheme-PositiveText { color:#4caf50; }
.ColorScheme-NeutralText { color:#ff9800; }
</style>
  </defs>
  <rect
     style="opacity:0.00100002"
     width="32"
     height="32"
     x="0"
     y="0"
     id="rect3197" />
  <path
     id="External"
     class="st0  ColorScheme-Highlight "
     d="m 5,4 h 22.285714 v 18 c 0,2.357143 -1.928571,4.285714 -4.285714,4.285714 H 5 Z"
     style="fill:currentColor;fill-opacity:1;stroke-width:0.428571" />
  <path
     id="External-s"
     class="st1  ColorScheme-Text "
     d="m 16.742857,15.742857 z m 8.828572,-3.171428 v 10.285714 c 0,1.885714 -1.542858,3.428571 -3.428572,3.428571 H 6.714286 V 28 h 15.428571 c 2.828572,0 5.142857,-2.314286 5.142857,-5.142857 V 12.571429 Z"
     sodipodi:nodetypes="cccccccccccssccsscc"
     style="fill:currentColor;fill-opacity:1;stroke-width:0.428571" />
  <path
     d="M 24.806275,13.072477 C 24.741425,12.879419 24.568887,12.738662 24.36121,12.709502 L 19.040491,11.961547 16.660989,7.2972766 C 16.568134,7.1152529 16.376452,7 16.16663,7 15.956813,7 15.765179,7.1152529 15.672275,7.2972766 l -2.379501,4.6642694 -5.3207231,0.747956 c -0.2076717,0.02928 -0.3802381,0.169917 -0.4450707,0.362975 -0.06482,0.193059 -0.01073,0.405011 0.1395389,0.546715 l 3.8500829,3.63063 -0.908852,5.126557 c -0.03553,0.200119 0.04948,0.402357 0.2193,0.521645 0.169742,0.119311 0.394782,0.135111 0.580565,0.04073 l 3.387058,-1.722659 c 0.269532,-0.137036 0.37312,-0.459531 0.23144,-0.720231 -0.141626,-0.260695 -0.475051,-0.360854 -0.744476,-0.223895 l -2.398362,1.219765 0.769063,-4.337775 c 0.03076,-0.173027 -0.02855,-0.349547 -0.158548,-0.472065 L 9.2360664,13.609822 13.738167,12.976914 c 0.179549,-0.02517 0.334746,-0.134338 0.415065,-0.291723 l 2.013398,-3.9466335 2.013399,3.9466335 c 0.08042,0.157482 0.235783,0.266662 0.415515,0.291782 l 4.501714,0.632848 -3.257719,3.072012 c -0.129946,0.122519 -0.18926,0.29904 -0.158553,0.472053 l 0.769047,4.337773 -2.311956,-1.175823 c -0.26949,-0.137117 -0.602842,-0.0368 -0.744538,0.223895 -0.141674,0.260681 -0.03803,0.583195 0.231441,0.72025 l 3.300719,1.678702 C 21.006404,22.979647 21.094397,23 21.182163,23 c 0.114287,0 0.228017,-0.03436 0.324054,-0.101914 0.169804,-0.119356 0.254803,-0.321594 0.219297,-0.521656 l -0.90886,-5.126554 3.850098,-3.630623 c 0.150271,-0.141704 0.204414,-0.353655 0.139523,-0.54671 z"
     id="path20-3"
     style="stroke-miterlimit:1.41421;stroke-linejoin:round;stroke-width:0.0542243;fill-rule:evenodd;fill-opacity:1;fill:currentColor;clip-rule:evenodd;"
     class="ColorScheme-Text" />
</svg>
