<?xml version="1.0" encoding="UTF-8" standalone="no"?>
<svg
   width="32"
   height="32"
   version="1.1"
   id="svg4049"
   sodipodi:docname="onboard.svg"
   inkscape:version="1.2.1 (9c6d41e410, 2022-07-14)"
   xmlns:inkscape="http://www.inkscape.org/namespaces/inkscape"
   xmlns:sodipodi="http://sodipodi.sourceforge.net/DTD/sodipodi-0.dtd"
   xmlns="http://www.w3.org/2000/svg"
   xmlns:svg="http://www.w3.org/2000/svg">
  <sodipodi:namedview
     id="namedview4051"
     pagecolor="#cccccc"
     bordercolor="#000000"
     borderopacity="1"
     inkscape:showpageshadow="2"
     inkscape:pageopacity="0"
     inkscape:pagecheckerboard="0"
     inkscape:deskcolor="#808080"
     showgrid="false"
     inkscape:zoom="8"
     inkscape:cx="28.9375"
     inkscape:cy="16.9375"
     inkscape:window-width="1920"
     inkscape:window-height="1004"
     inkscape:window-x="0"
     inkscape:window-y="0"
     inkscape:window-maximized="1"
     inkscape:current-layer="svg4049">
    <inkscape:grid
       type="xygrid"
       id="grid5163"
       originx="0"
       originy="0" />
  </sodipodi:namedview>
  <defs
     id="defs5">
    <style
       id="current-color-scheme"
       type="text/css">.ColorScheme-Background { color:#181818; }
.ColorScheme-ButtonBackground { color:#343434; }
.ColorScheme-Highlight { color:#cdd8e5; }
.ColorScheme-Text { color:#eff0f1; }
.ColorScheme-ViewBackground { color:#242424; }
.ColorScheme-NegativeText { color:#f44336; }
.ColorScheme-PositiveText { color:#4caf50; }
.ColorScheme-NeutralText { color:#ff9800; }
</style>
  </defs>
  <g
     id="onboard">
    <rect
       style="opacity:0.00100002"
       width="32"
       height="32"
       x="0"
       y="0"
       id="rect4044" />
    <path
       id="External"
       class="st0  ColorScheme-Highlight "
       d="m 5,4 h 22.285714 v 18 c 0,2.357143 -1.928571,4.285714 -4.285714,4.285714 H 5 Z"
       style="fill:currentColor;fill-opacity:1;stroke-width:0.428571" />
    <path
       id="External-s"
       class="st1  ColorScheme-Text "
       d="m 16.742857,15.742857 z m 8.828572,-3.171428 v 10.285714 c 0,1.885714 -1.542858,3.428571 -3.428572,3.428571 H 6.714286 V 28 h 15.428571 c 2.828572,0 5.142857,-2.314286 5.142857,-5.142857 V 12.571429 Z"
       sodipodi:nodetypes="cccccccccccssccsscc"
       style="fill:currentColor;fill-opacity:1;stroke-width:0.428571" />
    <path
       d="m 19.7,15.3 c 2.040286,0 3.700005,-1.682143 3.700005,-3.75 V 9.05 C 23.400005,6.982143 21.740286,5.3 19.7,5.3 17.659714,5.3 16,6.982143 16,9.05 v 2.5 c 0,2.067857 1.659714,3.75 3.7,3.75 z M 17.4,8.925233 C 17.4,7.056767 19.019667,6.7 19.7,6.7 20.380333,6.7 22,7.18117 22,9.05 v 2.5 C 22,13.181852 20.38033,13.9 19.699997,13.9 19.019664,13.9 17.4,13.181534 17.4,11.55 Z"
       id="path4448-36"
       style="fill:currentColor;fill-opacity:1;stroke-width:0.0886883"
       sodipodi:nodetypes="ssssssssssssss"
       class="ColorScheme-Text" />
    <path
       d="m 7.4,15.3 h 1.481478 v 10 H 7.4 Z"
       id="path4762-7"
       style="fill:currentColor;fill-opacity:1;stroke-width:0.0529101"
       class="ColorScheme-Text" />
    <path
       d="M 11.474071,20.855557 H 8.881478 v -1.481486 h 2.592593 c 0.714916,0 1.296299,-0.581371 1.296299,-1.296294 0,-0.714919 -0.581383,-1.2963 -1.296299,-1.2963 H 8.881478 V 15.3 h 2.592593 c 1.531907,0 2.777779,1.245871 2.777779,2.777777 0,1.5319 -1.245872,2.77778 -2.777779,2.77778 z"
       id="path4764-5"
       style="fill:currentColor;fill-opacity:1;stroke-width:0.0529101"
       class="ColorScheme-Text" />
    <path
       d="M 11.785187,25.3 H 8.881529 v -1.481478 h 2.903658 c 0.849683,0 1.54079,-0.6645 1.54079,-1.48148 0,-0.816992 -0.691107,-1.481485 -1.54079,-1.481485 H 8.881529 v -1.481486 h 2.903658 c 1.666663,0 3.02227,1.329158 3.02227,2.962971 0,1.633808 -1.356028,2.962958 -3.02227,2.962958 z"
       id="path4766-3"
       style="fill:currentColor;fill-opacity:1;stroke-width:0.0529101"
       class="ColorScheme-Text" />
  </g>
  <g
     id="22-22-onboard"
     transform="translate(32,9.9999962)">
    <rect
       style="opacity:0.00100002"
       width="22"
       height="22"
       x="0"
       y="0"
       id="rect4039" />
    <path
       id="External-3"
       class="st0  ColorScheme-Highlight "
       d="m 3.55,3 h 14.857142 v 12 c 0,1.571429 -1.285713,2.857143 -2.857142,2.857143 h -12 z"
       style="fill:currentColor;fill-opacity:1;stroke-width:0.285714" />
    <path
       id="External-s-6"
       class="st1  ColorScheme-Text "
       d="m 11.378571,10.828571 z m 5.885714,-2.114285 v 6.857143 c 0,1.257142 -1.028571,2.285714 -2.285714,2.285714 H 4.692857 V 19 h 10.285714 c 1.885714,0 3.428571,-1.542857 3.428571,-3.428571 V 8.714286 Z"
       sodipodi:nodetypes="cccccccccccssccsscc"
       style="fill:currentColor;fill-opacity:1;stroke-width:0.285714" />
    <path
       d="m 12.57,10.5 c 1.224166,0 2.22,-1.009288 2.22,-2.249999 v -1.5 C 14.79,5.509289 13.794166,4.5 12.57,4.5 c -1.224166,0 -2.22,1.009289 -2.22,2.250001 v 1.5 C 10.35,9.490712 11.345834,10.5 12.57,10.5 Z M 11.19,6.675141 C 11.19,5.554059 12.161794,5.34 12.57,5.34 c 0.408207,0 1.38,0.288702 1.38,1.410001 v 1.5 C 13.95,9.229111 12.978204,9.66 12.569997,9.66 12.161793,9.66 11.19,9.228926 11.19,8.250001 Z"
       id="path4448-3-5"
       style="fill:currentColor;fill-opacity:1;stroke-width:0.0532123"
       sodipodi:nodetypes="ssssssssssssss"
       class="ColorScheme-Text " />
    <path
       d="m 6.75,10.619999 h 0.888886 v 5.999999 H 6.75 Z"
       id="path4762-6-6"
       style="fill:currentColor;fill-opacity:1;stroke-width:0.0317461"
       class="ColorScheme-Text " />
    <path
       d="M 9.194443,13.953332 H 7.638886 v -0.88889 h 1.555557 c 0.428945,0 0.777779,-0.348823 0.777779,-0.777776 0,-0.428953 -0.348834,-0.77778 -0.777779,-0.77778 H 7.638886 v -0.888888 h 1.555557 c 0.919143,0 1.66667,0.747523 1.66667,1.666667 0,0.919139 -0.747527,1.666667 -1.66667,1.666667 z"
       id="path4764-7-2"
       style="fill:currentColor;fill-opacity:1;stroke-width:0.0317461"
       class="ColorScheme-Text " />
    <path
       d="M 9.381108,16.619998 H 7.638917 v -0.888884 h 1.742191 c 0.509813,0 0.924478,-0.398702 0.924478,-0.88889 0,-0.490195 -0.414664,-0.88889 -0.924478,-0.88889 H 7.638917 v -0.888891 h 1.742191 c 0.999998,0 1.813358,0.797494 1.813358,1.777782 0,0.980285 -0.81361,1.777773 -1.813358,1.777773 z"
       id="path4766-5-9"
       style="fill:currentColor;fill-opacity:1;stroke-width:0.0317461"
       class="ColorScheme-Text " />
  </g>
</svg>
