<?xml version="1.0" encoding="UTF-8" standalone="no"?>
<svg
   width="32"
   height="32"
   version="1.1"
   id="svg78"
   sodipodi:docname="quota.svg"
   inkscape:version="1.2.2 (b0a8486541, 2022-12-01)"
   xmlns:inkscape="http://www.inkscape.org/namespaces/inkscape"
   xmlns:sodipodi="http://sodipodi.sourceforge.net/DTD/sodipodi-0.dtd"
   xmlns="http://www.w3.org/2000/svg"
   xmlns:svg="http://www.w3.org/2000/svg">
  <sodipodi:namedview
     id="namedview80"
     pagecolor="#cccccc"
     bordercolor="#000000"
     borderopacity="1"
     inkscape:pageshadow="2"
     inkscape:pageopacity="0"
     inkscape:pagecheckerboard="0"
     showgrid="false"
     inkscape:zoom="5.656854"
     inkscape:cx="-4.8613593"
     inkscape:cy="8.7504468"
     inkscape:window-width="1920"
     inkscape:window-height="1002"
     inkscape:window-x="0"
     inkscape:window-y="0"
     inkscape:window-maximized="1"
     inkscape:current-layer="svg78"
     showguides="false"
     inkscape:lockguides="true"
     inkscape:showpageshadow="true"
     inkscape:deskcolor="#808080">
    <inkscape:grid
       type="xygrid"
       id="grid1005"
       originx="32.08668"
       originy="13.57367" />
  </sodipodi:namedview>
  <defs
     id="l4k1">
    <style
       id="current-color-scheme"
       type="text/css">.ColorScheme-Background { color:#181818; }
.ColorScheme-ButtonBackground { color:#343434; }
.ColorScheme-Highlight { color:#cdd8e5; }
.ColorScheme-Text { 
    color:#eff0f1;
}
.ColorScheme-ViewBackground { color:#242424; }
.ColorScheme-NegativeText { color:#f44336; }
.ColorScheme-PositiveText { color:#4caf50; }
.ColorScheme-NeutralText { color:#ff9800; }
</style>
  </defs>
  <g
     transform="matrix(1.5,0,0,1.5,164.08668,17.57397)"
     id="g70" />
  <g
     id="quota">
    <rect
       style="opacity:0.00100002"
       width="32"
       height="32"
       x="0"
       y="0"
       id="rect35" />
    <path
       id="Inbox"
       class="st0  ColorScheme-Text "
       d="m 32,16 -0.9,-2 h -2.2 l 0.9,2 H 22 v 2 c 0,1.1 -0.9,2 -2,2 h -8 c -1.1,0 -2,-0.9 -2,-2 V 16 H 0 v 10 h 27 c 2.75,0 5,-2.25 5,-5 z"
       style="clip-rule:evenodd;fill:currentColor;fill-opacity:1;fill-rule:evenodd;stroke-width:0.5" />
    <path
       id="Inbox-s"
       class="st1  ColorScheme-Highlight "
       d="M 2.2,16 H 0 L 4.25,6.4 C 4.9,4.95 6.3,4 7.95,4 H 24.1 c 1.6,0 3.05,0.95 3.7,2.4 l 3.3,7.6 h -2.2 l -3,-6.75 C 25.6,6.5 24.9,6 24.05,6 H 7.95 C 7.15,6 6.45,6.5 6.1,7.2 Z M 30,16 v 6 c 0,2.199999 -1.8,4 -4,4 H 2 v 2 h 24 c 3.3,0 6,-2.7 6,-6 v -6 z"
       style="fill:currentColor;fill-opacity:1;stroke-width:0.5" />
  </g>
  <g
     id="22-22-quota">
    <rect
       style="opacity:0.00100002"
       width="22"
       height="22"
       x="0"
       y="-22"
       id="rect12" />
    <path
       id="Inbox-36"
       class="st0  ColorScheme-Text "
       d="m 21.633333,-11 -0.6,-1.333333 h -1.466666 l 0.6,1.333333 h -5.2 v 1.333333 c 0,0.733334 -0.6,1.333334 -1.333333,1.333334 H 8.3 c -0.7333333,0 -1.3333333,-0.6 -1.3333333,-1.333334 V -11 H 0.3 v 6.666667 h 18 c 1.833334,0 3.333333,-1.5 3.333333,-3.333334 z"
       style="clip-rule:evenodd;fill:currentColor;fill-opacity:1;fill-rule:evenodd;stroke-width:0.333333" />
    <path
       id="Inbox-s-7"
       class="st1  ColorScheme-Highlight "
       d="M 1.7666667,-11 H 0.3 l 2.8333333,-6.4 C 3.5666667,-18.366667 4.5,-19 5.6,-19 h 10.766667 c 1.066667,0 2.033333,0.633333 2.466667,1.6 l 2.199999,5.066667 h -1.466666 l -2,-4.5 c -0.2,-0.5 -0.666667,-0.833334 -1.233333,-0.833334 H 5.6 c -0.5333333,0 -1,0.333334 -1.2333333,0.8 z M 20.3,-11 v 4 c 0,1.466666 -1.2,2.666667 -2.666666,2.666667 H 1.6333333 V -3 H 17.633334 c 2.2,0 3.999999,-1.8 3.999999,-4 v -4 z"
       style="fill:currentColor;fill-opacity:1;stroke-width:0.333333" />
  </g>
</svg>
