<?xml version="1.0" encoding="UTF-8" standalone="no"?>
<svg
   width="32"
   height="32"
   version="1.1"
   id="svg1404"
   sodipodi:docname="ring.svg"
   inkscape:version="1.2.2 (b0a8486541, 2022-12-01)"
   xmlns:inkscape="http://www.inkscape.org/namespaces/inkscape"
   xmlns:sodipodi="http://sodipodi.sourceforge.net/DTD/sodipodi-0.dtd"
   xmlns="http://www.w3.org/2000/svg"
   xmlns:svg="http://www.w3.org/2000/svg">
    <style
       id="current-color-scheme"
       type="text/css">.ColorScheme-Text { color:#eff0f1; }
.ColorScheme-Highlight { color:#cdd8e5; }
</style>
  <sodipodi:namedview
     id="namedview1406"
     pagecolor="#ffffff"
     bordercolor="#000000"
     borderopacity="1"
     inkscape:showpageshadow="2"
     inkscape:pageopacity="0.0"
     inkscape:pagecheckerboard="0"
     inkscape:deskcolor="#cccccc"
     showgrid="false"
     inkscape:zoom="10.429825"
     inkscape:cx="13.375105"
     inkscape:cy="9.0605547"
     inkscape:window-width="1920"
     inkscape:window-height="1002"
     inkscape:window-x="0"
     inkscape:window-y="0"
     inkscape:window-maximized="1"
     inkscape:current-layer="svg1404">
    <inkscape:grid
       type="xygrid"
       id="grid1730"
       originx="0"
       originy="0" />
  </sodipodi:namedview>
  <defs
     id="l4k1">
    <style
       type="text/css"
       id="current-color-scheme" />
  </defs>
  <g
     id="ring-kde">
    <rect
       style="opacity:0.00100002"
       width="32"
       height="32"
       x="0"
       y="0"
       id="rect1394" />
    <path
       id="External"
       class="st0  ColorScheme-Highlight "
       d="m 5,4 h 22.285714 v 18 c 0,2.357143 -1.928571,4.285714 -4.285714,4.285714 H 5 Z"
       style="fill:currentColor;fill-opacity:1;stroke-width:0.428571" />
    <path
       id="External-s"
       class="st1  ColorScheme-Text "
       d="m 16.742857,15.742857 z m 8.828572,-3.171428 v 10.285714 c 0,1.885714 -1.542858,3.428571 -3.428572,3.428571 H 6.7142859 V 28 H 22.142857 c 2.828572,0 5.142857,-2.314286 5.142857,-5.142857 V 12.571429 Z"
       sodipodi:nodetypes="cccccccccccssccsscc"
       style="fill:currentColor;fill-opacity:1;stroke-width:0.428571" />
    <path
       inkscape:connector-curvature="0"
       style="stroke-width:0.393918;fill-opacity:0.6;fill:currentColor;"
       id="path6313-36"
       d="M 9.99611,9.960766 8.8323311,12.03923 c -0.775864,1.385642 12.6623539,9.385642 13.4382119,8.000001 L 23.434322,17.96077 C 24.210185,16.575128 10.771959,8.57512 9.99611,9.960766 Z"
       class="ColorScheme-Text" />
    <path
       inkscape:connector-curvature="0"
       style="stroke-width:0.393918;fill-opacity:0.6;fill:currentColor;"
       id="path6309-7"
       d="m 22.270543,9.960766 1.163779,2.078464 C 24.210185,13.424872 10.771959,21.424872 9.99611,20.039231 L 8.8323311,17.96077 C 8.0564671,16.575128 21.494685,8.57512 22.270543,9.960766 Z"
       class="ColorScheme-Text" />
    <path
       inkscape:connector-curvature="0"
       style="stroke-width:0.393918;fill-opacity:1;fill:currentColor;"
       id="rect5354-53"
       d="m 14.969541,7 h 2.327568 c 1.551721,0 1.551721,16 0,16 h -2.327568 c -1.551701,0 -1.551701,-16 0,-16 z"
       class="ColorScheme-Text" />
  </g>
  <g
     id="22-22-ring-kde"
     transform="translate(32,10)">
    <rect
       style="opacity:0.00100002"
       width="22"
       height="22"
       x="0"
       y="0"
       id="rect1399" />
    <path
       id="External-3"
       class="st0  ColorScheme-Highlight"
       d="m 3.5,3 h 14.857143 v 12 c 0,1.571429 -1.285714,2.857143 -2.857142,2.857143 H 3.5 Z"
       style="fill:currentColor;fill-opacity:1;stroke-width:0.285714" />
    <path
       id="External-s-6"
       class="st1  ColorScheme-Text"
       d="m 11.328571,10.828571 z m 5.885714,-2.114285 v 6.857143 c 0,1.257142 -1.028572,2.285714 -2.285715,2.285714 H 4.642857 V 19 h 10.285715 c 1.885713,0 3.42857,-1.542857 3.42857,-3.428571 V 8.714286 Z"
       sodipodi:nodetypes="cccccccccccssccsscc"
       style="fill:currentColor;fill-opacity:1;stroke-width:0.285714" />
    <path
       inkscape:connector-curvature="0"
       style="stroke-width:0.295438;fill-opacity:0.6;fill:currentColor;"
       id="path6313-5"
       d="m 6.3970778,6.72057 -0.872829,1.558856 c -0.581904,1.039235 9.4967592,7.039233 10.0786522,6 l 0.87284,-1.558852 C 17.057633,11.681339 6.9789668,5.681339 6.3970778,6.72057 Z"
       class="ColorScheme-Text" />
    <path
       inkscape:connector-curvature="0"
       style="stroke-width:0.295438;fill-opacity:0.6;fill:currentColor;"
       id="path6309-62"
       d="m 15.602901,6.72057 0.87284,1.558856 c 0.581892,1.039235 -9.4967742,7.039233 -10.0786632,6 L 5.5242488,12.720574 C 4.9423448,11.681339 15.021008,5.681339 15.602901,6.72057 Z"
       class="ColorScheme-Text" />
    <path
       inkscape:connector-curvature="0"
       style="stroke-width:0.295438;fill-opacity:1;fill:currentColor;"
       id="rect5354-9"
       d="m 10.127149,4.5 h 1.745678 c 1.163797,0 1.163797,12 0,12 h -1.745678 c -1.1637682,0 -1.1637682,-12 0,-12 z"
       class="ColorScheme-Text" />
  </g>
</svg>
