<?xml version="1.0" encoding="UTF-8" standalone="no"?>
<svg
   width="32"
   height="32"
   version="1.1"
   id="svg1404"
   sodipodi:docname="ring.svg"
   inkscape:version="1.2.2 (b0a8486541, 2022-12-01)"
   xmlns:inkscape="http://www.inkscape.org/namespaces/inkscape"
   xmlns:sodipodi="http://sodipodi.sourceforge.net/DTD/sodipodi-0.dtd"
   xmlns="http://www.w3.org/2000/svg"
   xmlns:svg="http://www.w3.org/2000/svg">
  <style
     id="style1089">.ColorScheme-Background { color:#000000; }
.ColorScheme-Highlight { color:#cdd8e5; }
.ColorScheme-Text { color:#eff0f1; }
</style>
  <g
     id="22-22-ring-kde">
    <rect
       style="opacity:0.00100002"
       width="22"
       height="22"
       x="32"
       y="10"
       id="rect1399" />
    <path
       id="External-3"
       class="st0    ColorScheme-Text"
       d="m 35.5,13 h 14.857142 v 12 c 0,1.571429 -1.285713,2.857143 -2.857142,2.857143 h -12 z"
       style="stroke-width:0.285714;fill-opacity:1;fill:currentColor" />
    <path
       id="External-s-6"
       class="st1  ColorScheme-Highlight"
       d="m 43.328571,20.828571 z m 5.885714,-2.114285 v 6.857143 c 0,1.257142 -1.028571,2.285714 -2.285714,2.285714 H 36.642857 V 29 h 10.285714 c 1.885714,0 3.428571,-1.542857 3.428571,-3.428571 v -6.857143 z"
       sodipodi:nodetypes="cccccccccccssccsscc"
       style="stroke-width:0.285714;fill-opacity:1;fill:currentColor;" />
    <path
       inkscape:connector-curvature="0"
       style="stroke-width:0.295439;fill-opacity:0.60000002;fill:currentColor;"
       id="path6313-3-5"
       d="m 38.397086,17.220569 -0.872833,1.558862 c -0.581896,1.039229 9.496765,7.039229 10.078662,6 l 0.872832,-1.558862 c 0.581896,-1.039229 -9.496773,-7.039229 -10.078661,-6 z"
       class="ColorScheme-Background" />
    <path
       inkscape:connector-curvature="0"
       style="stroke-width:0.295439;fill-opacity:0.60000002;fill:currentColor;"
       id="path6309-6-6"
       d="m 47.602915,17.220569 0.872832,1.558862 c 0.581896,1.039229 -9.496774,7.039229 -10.078662,6 l -0.872832,-1.558862 c -0.581896,-1.039229 9.496765,-7.039229 10.078662,-6 z"
       class="ColorScheme-Background" />
    <path
       inkscape:connector-curvature="0"
       style="stroke-width:0.295439;fill-opacity:1;fill:currentColor;"
       id="rect5354-5-2"
       d="m 42.12716,15 h 1.745679 c 1.163791,0 1.163791,12 0,12 H 42.12716 c -1.163775,0 -1.163775,-12 0,-12 z"
       class="ColorScheme-Background" />
  </g>
  <g
     id="ring-kde">
    <rect
       style="opacity:0.00100002"
       width="32"
       height="32"
       x="0"
       y="0"
       id="rect1394" />
    <path
       id="External"
       class="st0    ColorScheme-Text"
       d="m 5,4 h 22.285714 v 18 c 0,2.357143 -1.928571,4.285714 -4.285714,4.285714 H 5 Z"
       style="stroke-width:0.428571;fill-opacity:1;fill:currentColor" />
    <path
       id="External-s"
       class="st1  ColorScheme-Highlight"
       d="m 16.742857,15.742857 z m 8.828572,-3.171428 v 10.285714 c 0,1.885714 -1.542858,3.428571 -3.428572,3.428571 H 6.714286 V 28 h 15.428571 c 2.828572,0 5.142857,-2.314286 5.142857,-5.142857 V 12.571429 Z"
       sodipodi:nodetypes="cccccccccccssccsscc"
       style="stroke-width:0.428571;fill-opacity:1;fill:currentColor;" />
    <path
       inkscape:connector-curvature="0"
       style="stroke-width:0.492398;fill-opacity:0.60000002;fill:currentColor;"
       id="path6313-36"
       d="m 8.445144,9.20096 -1.454731,2.59808 c -0.969819,1.732055 15.827954,11.73205 16.797776,9.999996 L 25.242917,19.20096 C 26.212741,17.468905 9.414964,7.468905 8.445144,9.20096 Z"
       class="ColorScheme-Background" />
    <path
       inkscape:connector-curvature="0"
       style="stroke-width:0.492398;fill-opacity:0.60000002;fill:currentColor;"
       id="path6309-7"
       d="m 23.788189,9.20096 1.454728,2.59808 C 26.212741,13.531095 9.414964,23.53109 8.445144,21.799036 L 6.990413,19.20096 c -0.969819,-1.732055 15.827954,-11.732055 16.797776,-10 z"
       class="ColorScheme-Background" />
    <path
       inkscape:connector-curvature="0"
       style="stroke-width:0.492398;fill-opacity:1;fill:currentColor;"
       id="rect5354-53"
       d="m 14.661937,5.5 h 2.909458 c 1.939641,0 1.939641,20 0,20 h -2.909458 c -1.939636,0 -1.939636,-20 0,-20 z"
       class="ColorScheme-Background" />
  </g>
  <sodipodi:namedview
     id="namedview1406"
     pagecolor="#ffffff"
     bordercolor="#000000"
     borderopacity="1"
     inkscape:showpageshadow="2"
     inkscape:pageopacity="0.0"
     inkscape:pagecheckerboard="0"
     inkscape:deskcolor="#cccccc"
     showgrid="false"
     inkscape:zoom="10.429825"
     inkscape:cx="22.819175"
     inkscape:cy="16.826744"
     inkscape:window-width="1920"
     inkscape:window-height="1002"
     inkscape:window-x="0"
     inkscape:window-y="0"
     inkscape:window-maximized="1"
     inkscape:current-layer="svg1404">
    <inkscape:grid
       type="xygrid"
       id="grid1730"
       originx="0"
       originy="0" />
  </sodipodi:namedview>
  <defs
     id="l4k1">
    <style
       type="text/css"
       id="current-color-scheme" />
  </defs>
</svg>
