<?xml version="1.0" encoding="UTF-8" standalone="no"?>
<svg
   viewBox="0 0 22 22.000017"
   id="svg"
   version="1.1"
   width="22"
   height="22.000017"
   sodipodi:docname="software-updates.svg"
   inkscape:version="1.2 (dc2aedaf03, 2022-05-15)"
   xmlns:inkscape="http://www.inkscape.org/namespaces/inkscape"
   xmlns:sodipodi="http://sodipodi.sourceforge.net/DTD/sodipodi-0.dtd"
   xmlns="http://www.w3.org/2000/svg"
   xmlns:svg="http://www.w3.org/2000/svg"
   xmlns:rdf="http://www.w3.org/1999/02/22-rdf-syntax-ns#"
   xmlns:cc="http://creativecommons.org/ns#"
   xmlns:dc="http://purl.org/dc/elements/1.1/">
  <sodipodi:namedview
     id="namedview1444"
     pagecolor="#ffffff"
     bordercolor="#666666"
     borderopacity="1.0"
     inkscape:showpageshadow="2"
     inkscape:pageopacity="0.0"
     inkscape:pagecheckerboard="0"
     inkscape:deskcolor="#d1d1d1"
     showgrid="false"
     inkscape:zoom="5.3636364"
     inkscape:cx="52.669491"
     inkscape:cy="-5.5"
     inkscape:window-width="1920"
     inkscape:window-height="1000"
     inkscape:window-x="0"
     inkscape:window-y="0"
     inkscape:window-maximized="1"
     inkscape:current-layer="svg"
     inkscape:lockguides="false">
    <inkscape:grid
       type="xygrid"
       id="grid2517"
       originx="0"
       originy="-29.999929" />
  </sodipodi:namedview>
  <defs
     id="defs81">
    <style
       id="current-color-scheme"
       type="text/css">.ColorScheme-Text { color:#eff0f1; }
.ColorScheme-Background { color:#EFF0F1; }
.ColorScheme-Highlight { color:#3DAEE6; }
.ColorScheme-ViewText { color:#7B7C7E; }
.ColorScheme-ViewBackground { color:#FCFCFC; }
.ColorScheme-ViewHover { color:#3DAEE6; }
.ColorScheme-ViewFocus { color:#1E92FF; }
.ColorScheme-ButtonText { color:#7B7C7E; }
.ColorScheme-ButtonBackground { color:#EFF0F1; }
.ColorScheme-ButtonHover { color:#3DAEE6; }
.ColorScheme-ButtonFocus { color:#1E92FF; }
</style>
  </defs>
  <metadata
     id="metadata34">
    <rdf:RDF>
      <cc:Work
         rdf:about="">
        <dc:format>image/svg+xml</dc:format>
        <dc:type
           rdf:resource="http://purl.org/dc/dcmitype/StillImage" />
      </cc:Work>
    </rdf:RDF>
  </metadata>
  <g
     id="software-updates-inactive"
     transform="translate(60,-1.7382813e-5)">
    <rect
       y="-29.999931"
       x="-60"
       height="22.000017"
       width="22"
       id="rect7997"
       style="opacity:0.01;fill:#fdbc4b;fill-opacity:0.00392157;stroke:none" />
    <path
       id="Upload"
       class="st0  ColorScheme-Text"
       d="m -58,-17.857057 h 16.875 v -1.142857 H -40 v 4 c 0,1.571429 -1.265625,2.857143 -2.8125,2.857143 H -58 Z"
       style="fill:currentColor;fill-opacity:0.4;stroke-width:0.283473" />
    <path
       id="Upload-s"
       class="st1  ColorScheme-Text"
       d="m -49.5625,-15.571342 v -9.257143 l -3.15,3.2 -0.7875,-0.8 4.5,-4.571429 4.5,4.571429 -0.7875,0.8 -3.15,-3.2 v 9.257143 z m 8.4375,-2.285715 v 3.428572 c 0,1.257143 -1.0125,2.285714 -2.25,2.285714 h -13.5 v 1.142857 h 13.5 c 1.85625,0 3.375,-1.542857 3.375,-3.428571 v -3.428572 z"
       style="fill:currentColor;fill-opacity:1;stroke-width:0.283473" />
  </g>
  <g
     id="software-updates-security"
     transform="translate(0,1.7382812e-5)">
    <rect
       style="opacity:0.01;fill:#fdbc4b;fill-opacity:0.00392157;stroke:none"
       id="rect8039"
       width="22"
       height="22.000017"
       x="30"
       y="-29.999983" />
    <path
       id="Upload-3"
       class="st0"
       d="m 32,-17.857108 h 16.875 v -1.142857 H 50 v 4 c 0,1.571429 -1.265625,2.857143 -2.8125,2.857143 H 32 Z"
       style="fill:#fdbc4b;fill-opacity:1;stroke-width:0.283473" />
    <path
       id="Upload-s-6"
       class="st1  ColorScheme-Text"
       d="m 40.4375,-15.571393 v -9.257143 l -3.15,3.2 -0.7875,-0.8 4.5,-4.571429 4.5,4.571429 -0.7875,0.8 -3.15,-3.2 v 9.257143 z m 8.4375,-2.285715 v 3.428572 c 0,1.257143 -1.0125,2.285714 -2.25,2.285714 h -13.5 v 1.142857 h 13.5 c 1.85625,0 3.375,-1.542857 3.375,-3.428571 v -3.428572 z"
       style="fill:currentColor;fill-opacity:1;stroke-width:0.283473" />
    <path
       id="path4191"
       d="m 41,-24.000035 c 0,1 -2,1 -2,1 v 2.999999 c 0,1 1,1 2,2 1,-1 2,-1 2,-2 v -2.999999 c 0,0 -2,0 -2,-1 z"
       style="fill:#fdbc4b;fill-opacity:1;fill-rule:evenodd;stroke:none;stroke-width:1px;stroke-linecap:butt;stroke-linejoin:miter;stroke-opacity:1"
       inkscape:connector-curvature="0" />
  </g>
  <g
     id="software-updates-release"
     transform="translate(0,1.7382812e-5)">
    <rect
       style="opacity:0.01;fill:#fdbc4b;fill-opacity:0.00392157;stroke:none"
       id="rect8088"
       width="22"
       height="22.000017"
       x="0"
       y="-1.7382812e-05" />
    <path
       id="Upload-35"
       class="st0"
       d="M 2,12.142857 H 18.875 V 11 H 20 v 4 c 0,1.571429 -1.265625,2.857143 -2.8125,2.857143 H 2 Z"
       style="fill:#2ecc71;fill-opacity:1;stroke-width:0.283473" />
    <path
       id="Upload-s-62"
       class="st1  ColorScheme-Text"
       d="M 10.4375,14.428572 V 5.171428 l -3.15,3.2 L 6.5,7.571428 11,3 l 4.5,4.571428 -0.7875,0.8 -3.15,-3.2 v 9.257144 z m 8.4375,-2.285715 v 3.428572 c 0,1.257143 -1.0125,2.285714 -2.25,2.285714 H 3.125 V 19 h 13.5 C 18.48125,19 20,17.457143 20,15.571429 v -3.428572 z"
       style="fill:currentColor;fill-opacity:1;stroke-width:0.283473" />
  </g>
  <g
     id="software-updates-additional"
     transform="translate(60,-1.7382813e-5)">
    <rect
       y="-1.7382812e-05"
       x="0"
       height="22.000017"
       width="22"
       id="rect8152"
       style="opacity:0.01;fill:#fdbc4b;fill-opacity:0.00392157;stroke:none" />
    <path
       id="Upload-2"
       class="st0"
       d="M 2,12.142857 H 18.875 V 11 H 20 v 4 c 0,1.571429 -1.265625,2.857143 -2.8125,2.857143 H 2 Z"
       style="fill:#00ccff;stroke-width:0.283473" />
    <path
       id="Upload-s-7"
       class="st1  ColorScheme-Text"
       d="M 10.4375,14.428572 V 5.171428 l -3.15,3.2 L 6.5,7.571428 11,3 l 4.5,4.571428 -0.7875,0.8 -3.15,-3.2 v 9.257144 z m 8.4375,-2.285715 v 3.428572 c 0,1.257143 -1.0125,2.285714 -2.25,2.285714 H 3.125 V 19 h 13.5 C 18.48125,19 20,17.457143 20,15.571429 v -3.428572 z"
       style="fill:currentColor;fill-opacity:1;stroke-width:0.283473" />
  </g>
  <g
     id="software-updates-important"
     transform="translate(0,1.7382812e-5)">
    <rect
       style="opacity:0.01;fill:#fdbc4b;fill-opacity:0.00392157;stroke:none"
       id="rect8071"
       width="22"
       height="22.000017"
       x="60"
       y="-30" />
    <path
       id="Upload-7"
       class="st0"
       d="m 62,-17.857126 h 16.875 v -1.142857 H 80 v 4 c 0,1.571429 -1.265625,2.857143 -2.8125,2.857143 H 62 Z"
       style="fill:#ff0000;fill-opacity:1;stroke-width:0.283473" />
    <path
       id="Upload-s-5"
       class="st1  ColorScheme-Text"
       d="m 70.4375,-15.571411 v -9.257144 l -3.15,3.2 -0.7875,-0.8 4.5,-4.571428 4.5,4.571428 -0.7875,0.8 -3.15,-3.2 v 9.257144 z m 8.4375,-2.285715 v 3.428572 c 0,1.257143 -1.0125,2.285714 -2.25,2.285714 h -13.5 v 1.142857 h 13.5 c 1.85625,0 3.375,-1.542857 3.375,-3.428571 v -3.428572 z"
       style="fill:currentColor;fill-opacity:1;stroke-width:0.283473" />
    <path
       inkscape:connector-curvature="0"
       id="path4202"
       d="m 71,-24.000035 3,5 h -6 z"
       style="fill:#ff0000;fill-opacity:1;fill-rule:evenodd;stroke:none;stroke-width:1px;stroke-linecap:butt;stroke-linejoin:miter;stroke-opacity:1" />
  </g>
  <g
     id="software-updates-updates"
     transform="translate(30)">
    <rect
       style="opacity:0.01;fill:#fdbc4b;fill-opacity:0.00392157;stroke:none"
       id="rect8131"
       width="22"
       height="22.000017"
       x="0"
       y="0" />
    <path
       id="Upload-9"
       class="st0  ColorScheme-Text"
       d="M 2,12.142857 H 18.875 V 11 H 20 v 4 c 0,1.571429 -1.265625,2.857143 -2.8125,2.857143 H 2 Z"
       style="fill:currentColor;fill-opacity:1;stroke-width:0.283473" />
    <path
       id="Upload-s-1"
       class="st1"
       d="M 10.4375,14.428572 V 5.171428 l -3.15,3.2 L 6.5,7.571428 11,3 l 4.5,4.571428 -0.7875,0.8 -3.15,-3.2 v 9.257144 z m 8.4375,-2.285715 v 3.428572 c 0,1.257143 -1.0125,2.285714 -2.25,2.285714 H 3.125 V 19 h 13.5 C 18.48125,19 20,17.457143 20,15.571429 v -3.428572 z"
       style="fill:#2ecc71;fill-opacity:1;stroke-width:0.283473" />
  </g>
</svg>
