<?xml version="1.0" encoding="UTF-8" standalone="no"?>
<!-- Created with Inkscape (http://www.inkscape.org/) -->

<svg
   width="32mm"
   height="32mm"
   viewBox="0 0 32 32"
   version="1.1"
   id="svg802"
   inkscape:version="1.2 (dc2aedaf03, 2022-05-15)"
   sodipodi:docname="start.svg"
   xmlns:inkscape="http://www.inkscape.org/namespaces/inkscape"
   xmlns:sodipodi="http://sodipodi.sourceforge.net/DTD/sodipodi-0.dtd"
   xmlns="http://www.w3.org/2000/svg"
   xmlns:svg="http://www.w3.org/2000/svg">
  <style
     id="current-color-scheme"
     type="text/css">.ColorScheme-Text { color:#eff0f1; }
.ColorScheme-Highlight { color:#cdd8e5; }
</style>
  <sodipodi:namedview
     id="namedview804"
     pagecolor="#ffffff"
     bordercolor="#666666"
     borderopacity="1.0"
     inkscape:showpageshadow="2"
     inkscape:pageopacity="0.0"
     inkscape:pagecheckerboard="0"
     inkscape:deskcolor="#d1d1d1"
     inkscape:document-units="mm"
     showgrid="false"
     inkscape:zoom="3.2007905"
     inkscape:cx="164.49062"
     inkscape:cy="97.007286"
     inkscape:window-width="1920"
     inkscape:window-height="1000"
     inkscape:window-x="0"
     inkscape:window-y="0"
     inkscape:window-maximized="1"
     inkscape:current-layer="layer1" />
  <defs
     id="defs799" />
  <g
     inkscape:label="Layer 1"
     inkscape:groupmode="layer"
     id="layer1">
    <g
       id="start-here-kde">
      <rect
         style="opacity:0.00100002;fill:#000000;fill-opacity:1;stroke:none;stroke-width:3.22818;stroke-linecap:round;stroke-linejoin:round;stroke-miterlimit:4;stroke-dasharray:none;stroke-dashoffset:0;stroke-opacity:1"
         y="0"
         x="0"
         height="32"
         width="32"
         id="rect860" />
      <path
         style="fill:currentColor;fill-opacity:1;stroke-width:1.0621"
         d="M 17.090765,4 12.72713,4.626078 v 14.961223 l 4.363635,-1.110783 V 12.696413 L 21.454407,19.510557 25.818044,17.9595 20.363503,11.755278 25.820177,5.0360562 21.586517,4 17.090765,10.781829 Z M 8.2058242,8.0573836 c -0.1031811,0 -0.2064,0.0381 -0.2855055,0.113098 L 6.2051161,9.796262 c -0.1582488,0.150002 -0.1201512,0.364298 0,0.543273 l 1.7748549,2.641644 c -0.1314898,0.258739 -0.245367,0.525197 -0.3409134,0.797743 -0.00416,0.01172 -0.010961,0.0226 -0.01474,0.03432 L 4.404833,14.491828 C 4.186338,14.537848 4,14.663419 4,14.875556 v 1.015872 1.015862 c 0,0.212137 0.186368,0.337705 0.404833,0.383726 l 3.2194582,0.678586 c 0.00718,0.02003 0.018142,0.03858 0.025701,0.05858 0.093014,0.264756 0.2033008,0.523767 0.3302552,0.775528 l -1.7748549,2.639622 c -0.1201512,0.178976 -0.1582488,0.393269 0,0.543273 l 1.7151988,1.625781 c 0.1582488,0.150006 0.412766,0.150006 0.5710224,0 l 2.7826663,-1.68031 c 0.273562,0.126104 0.555386,0.235385 0.843753,0.327175 0.0189,0.0063 0.03628,0.01606 0.05541,0.02222 l 0.713779,3.049601 c 0,0.212137 0.181039,0.383723 0.404829,0.383723 h 2.422583 c 0.223823,0 0.356296,-0.17664 0.404832,-0.383723 l 0.713779,-3.142503 c 0.327949,-0.116863 0.646276,-0.256596 0.952422,-0.418059 l 2.716615,1.841878 c 0.158249,0.150006 0.41277,0.150006 0.571022,0 l 1.715201,-1.62578 c 0.158253,-0.150006 0.120151,-0.364298 0,-0.543274 l -1.033382,-1.486428 -0.108623,0.03837 c -0.245707,0.0875 -0.52235,-0.0033 -0.658379,-0.216094 l -1.086913,-1.696467 c -0.905382,2.052764 -3.043559,3.495934 -5.537643,3.495934 -3.313708,0 -6.0000002,-2.546249 -6.0000002,-5.687205 0,-2.410257 1.5848732,-4.465334 3.8181852,-5.293382 V 9.4650664 l -0.0083,0.03636 c -0.02419,0.0078 -0.0463,0.02022 -0.0703,0.02827 -0.284523,0.08957 -0.562783,0.1961456 -0.833084,0.3190976 L 8.4916335,8.1705046 c -0.079143,-0.075 -0.1823244,-0.113099 -0.2855055,-0.113099 z"
         id="path10-7-7-6-3"
         class="ColorScheme-Highlight" />
      <path
         id="Power-s-5-2-6"
         class="st1  ColorScheme-Text"
         d="m 27.999864,17.142612 v 0 h -1.636361 v 0 c 0,5.157259 -5.468183,9.306332 -10.9091,9.306332 v 1.551058 c 6.340918,0 12.54546,-4.847051 12.545461,-10.85739 z"
         style="fill:currentColor;fill-opacity:1;stroke-width:0.398283"
         sodipodi:nodetypes="ccccccc" />
    </g>
    <g
       id="22-22-start-here-kde">
      <rect
         style="opacity:0.00100002;vector-effect:none;fill:#000000;fill-opacity:1;stroke:none;stroke-width:2.71574;stroke-linecap:round;stroke-linejoin:round;stroke-miterlimit:4;stroke-dasharray:none;stroke-dashoffset:0;stroke-opacity:1"
         y="10.000001"
         x="32"
         height="22"
         width="22"
         id="rect849" />
      <path
         style="fill:currentColor;fill-opacity:1;stroke-width:0.708064"
         d="m 43.727267,13.000001 -2.909088,0.417385 v 9.974149 l 2.909088,-0.740522 V 18.79761 l 2.909094,4.542762 2.909093,-1.034038 -3.636362,-4.136148 3.637783,-4.479481 -2.822441,-0.690704 -2.997167,4.521219 z m -5.923293,2.704922 c -0.06879,0 -0.137589,0.0254 -0.190341,0.0754 l -1.143467,1.083854 c -0.105503,0.100003 -0.08011,0.242866 0,0.362182 l 1.18324,1.761095 c -0.08767,0.172491 -0.16358,0.350131 -0.227273,0.531828 -0.0028,0.0078 -0.0072,0.01506 -0.0099,0.02289 l -2.146324,0.452391 C 35.124235,20.025243 35,20.108957 35,20.250382 v 0.67724 0.677241 c 0,0.141425 0.124235,0.225137 0.269887,0.255817 l 2.146307,0.452391 c 0.0047,0.01337 0.01221,0.02572 0.01705,0.03905 0.062,0.176505 0.135528,0.349178 0.220169,0.517019 l -1.183238,1.759748 c -0.08011,0.119316 -0.105504,0.262179 0,0.362182 l 1.143466,1.083854 c 0.105503,0.100003 0.275177,0.100003 0.380682,0 l 1.855112,-1.120207 c 0.18237,0.08407 0.370258,0.156923 0.5625,0.218117 0.01262,0.0042 0.02429,0.01071 0.03693,0.01481 l 0.475852,2.033067 c 0,0.141426 0.120684,0.255816 0.269886,0.255816 h 1.615055 c 0.149208,0 0.237523,-0.117759 0.269889,-0.255816 l 0.475852,-2.095002 c 0.218625,-0.07791 0.430851,-0.171064 0.634947,-0.278706 l 1.811078,1.227919 c 0.105501,0.100004 0.27518,0.100004 0.38068,0 l 1.143468,-1.083854 c 0.105502,-0.100003 0.0801,-0.242865 0,-0.362182 l -0.688922,-0.990952 -0.07242,0.02558 c -0.163815,0.05833 -0.348233,-0.0022 -0.438919,-0.144064 L 45.60088,22.388474 c -0.603588,1.36851 -2.02904,2.330623 -3.691762,2.330623 -2.209139,0 -4,-1.697499 -4,-3.79147 0,-1.606838 1.056581,-2.976889 2.545455,-3.528921 v -0.755331 l -0.0057,0.02424 c -0.01605,0.0052 -0.03087,0.01349 -0.04687,0.01885 -0.189683,0.05971 -0.375188,0.130763 -0.55539,0.212731 l -1.852281,-1.11886 c -0.05276,-0.05 -0.121547,-0.0754 -0.190342,-0.0754 z"
         id="path10-7-7"
         class="ColorScheme-Highlight" />
      <path
         id="Power-s-5"
         class="st1  ColorScheme-Text"
         d="m 51,21.761742 v 0 h -1.090908 v 0 c 0,3.438173 -3.645455,6.204222 -7.272733,6.204222 v 1.034037 C 46.863637,29.000001 51,25.768635 51,21.761742 Z"
         style="fill:currentColor;fill-opacity:1;stroke-width:0.265523"
         sodipodi:nodetypes="ccccccc" />
    </g>
  </g>
</svg>
