<?xml version="1.0" encoding="UTF-8" standalone="no"?>
<!-- Created with Inkscape (http://www.inkscape.org/) -->

<svg
   width="32"
   height="32"
   viewBox="0 0 32 32"
   version="1.1"
   id="SVGRoot"
   sodipodi:docname="vlc.svg"
   inkscape:version="1.2 (dc2aedaf03, 2022-05-15)"
   xmlns:inkscape="http://www.inkscape.org/namespaces/inkscape"
   xmlns:sodipodi="http://sodipodi.sourceforge.net/DTD/sodipodi-0.dtd"
   xmlns="http://www.w3.org/2000/svg"
   xmlns:svg="http://www.w3.org/2000/svg">
  <style
     id="current-color-scheme"
     type="text/css">.ColorScheme-Highlight {
    color:#cdd8e5;
}
.ColorScheme-Text { color:#eff0f1; }
</style>
  <sodipodi:namedview
     id="namedview854"
     pagecolor="#ffffff"
     bordercolor="#666666"
     borderopacity="1.0"
     inkscape:showpageshadow="2"
     inkscape:pageopacity="0.0"
     inkscape:pagecheckerboard="0"
     inkscape:deskcolor="#d1d1d1"
     inkscape:document-units="px"
     showgrid="true"
     inkscape:zoom="13.455443"
     inkscape:cx="28.687275"
     inkscape:cy="16.164462"
     inkscape:window-width="1920"
     inkscape:window-height="1000"
     inkscape:window-x="0"
     inkscape:window-y="0"
     inkscape:window-maximized="1"
     inkscape:current-layer="layer1">
    <inkscape:grid
       type="xygrid"
       id="grid1340"
       originx="47"
       originy="-5" />
  </sodipodi:namedview>
  <defs
     id="defs849" />
  <g
     inkscape:label="Layer 1"
     inkscape:groupmode="layer"
     id="layer1"
     transform="translate(47,-5)">
    <g
       id="vlc">
      <rect
         style="opacity:0.00100002"
         width="32"
         height="32"
         x="-47"
         y="5"
         id="rect7" />
      <path
         id="Wifi"
         class="st0  ColorScheme-Highlight "
         d="m -38.525609,23.541819 c 2.293667,3.153294 5.36204,4.281589 8.729045,4.143181 3.367002,-0.138409 6.401328,-1.517569 8.526847,-4.852526 L -18.5,26.64023 c -1.256599,2.057859 -3.044761,3.497877 -5.079245,4.53077 C -26,32.4 -27.585171,32.504495 -29.689538,32.591 -31.793923,32.6775 -34,32.4 -35.826722,31.573 c -2.039203,-0.923195 -3.32794,-2.055186 -5.274287,-4.003706 z m 1.145151,-1.762781 c 0.995372,1.368413 2.196414,2.183151 3.473303,2.865962 1.278099,0.744038 2.674123,0.854093 4.063001,0.797 1.388901,-0.0571 2.728573,-0.279426 4.017825,-1.129 1.24715,-0.847843 2.404192,-1.69842 3.344861,-3.146418 l -2.769724,-3.807752 c -1.186044,1.825734 -2.84813,2.690608 -4.699996,2.766732 -1.851845,0.07614 -3.556759,-0.650341 -4.81178,-2.375729 z m 3.762646,-5.791983 c 0.476038,0.654458 1.033873,1.183003 1.67233,1.524408 0.638449,0.341407 1.273318,0.499134 1.946729,0.47145 0.67341,-0.02768 1.301158,-0.23731 1.925315,-0.63062 0.624188,-0.393311 1.160626,-0.966838 1.610495,-1.659355 l -3.678527,-5.057173 z m -8.670437,13.346749 9.815574,-15.109528 -1.211751,-1.665892 L -43.5,27.66791 Z"
         style="fill:currentColor;fill-opacity:1;stroke-width:0.507828;enable-background:new"
         sodipodi:nodetypes="csccsssccccscccscccscccccccccc" />
      <path
         id="Wifi-s"
         class="st1  ColorScheme-Text "
         d="m -19.756599,28.698089 c 1.341574,1.844381 0,0 0,0 v 0 0 0 0 0 0 0 c 0,0 0.846406,-1.489481 1.255391,-2.119044 m -6.939267,-12.460017 -2.466783,-3.39128 c -1.341573,-1.8443816 -3.488041,-1.7561457 -4.755904,0.195501 l -2.1676,3.336687 1.21295,1.727119 2.1676,-3.336688 c 0.65438,-1.007301 1.706552,-1.050554 2.39899,-0.09862 l 2.466773,3.391284 z m -10.534248,1.964913 -2.617486,4.029206 1.211751,1.665891 2.61749,-4.029205 z m -3.762636,5.791985 -2.61749,4.029208 1.211752,1.665891 2.617488,-4.029206 z"
         style="fill:currentColor;fill-opacity:1;stroke-width:0.507828"
         sodipodi:nodetypes="cccccccccccscccsscccccccccccc" />
    </g>
    <g
       id="22-22-vlc">
      <rect
         style="opacity:0.00100002"
         width="22"
         height="22"
         x="-15"
         y="15"
         id="rect2" />
      <path
         id="Wifi-3-3-7"
         class="st0  ColorScheme-Highlight"
         d="m -9.1887065,28.004052 c 1.581422,2.174112 3.696983,2.952041 6.0184425,2.856612 2.32146,-0.09543 4.413546,-1.046323 5.879034,-3.345687 l 1.909647,2.625347 c -0.866393,1.418838 -2.099283,2.411692 -3.502004,3.123844 -1.669046,0.847363 -2.761979,0.91941 -4.212884,0.979053 -1.450917,0.05964 -2.9719485,-0.13169 -4.2314255,-0.701884 -1.405976,-0.636519 -2.294525,-1.416996 -3.6364795,-2.760449 z m 0.789551,-1.215391 c 0.686282,0.943485 1.514369,1.505225 2.39475,1.976005 0.881215,0.512994 1.8437355,0.588874 2.8013295,0.54951 0.957611,-0.03937 1.881279,-0.192657 2.770185,-0.778415 0.859876,-0.584566 1.657625,-1.171016 2.306191,-2.169372 l -1.909651,-2.625343 c -0.817744,1.258795 -1.963708,1.855102 -3.240521,1.907588 -1.276797,0.0525 -2.4522905,-0.448393 -3.3175945,-1.638002 z m 2.594244,-3.993417 c 0.328215,0.451231 0.712828,0.815649 1.1530265,1.051038 0.440193,0.235391 0.877919,0.34414 1.342219,0.325052 0.464298,-0.01909 0.897112,-0.163618 1.327453,-0.434795 0.43036,-0.271178 0.800221,-0.666609 1.110393,-1.144081 l -2.536246,-3.486786 z m -5.9780355,9.202227 6.7675765,-10.417616 -0.83547,-1.148589 -6.7675765,10.417615 z"
         style="fill:currentColor;fill-opacity:1;stroke-width:0.350134;enable-background:new"
         sodipodi:nodetypes="csccsssccccscccscccscccccccccc" />
      <path
         id="Wifi-s-6-6-5"
         class="st1  ColorScheme-Text"
         d="m 3.752024,31.559162 c 0.92498,1.271652 0,0 0,0 v 0 0 0 0 0 0 0 c 0,0 0.583575,-1.026957 0.865559,-1.461024 m -4.784438,-8.590849 -1.700782,-2.338198 c -0.924979,-1.271651 -2.404912,-1.210815 -3.2790685,0.134793 l -1.494503,2.300557 0.836297,1.190803 1.4945015,-2.300558 c 0.451178,-0.694507 1.176623,-0.724329 1.654041,-0.068 l 1.700773,2.3382 z m -7.2630835,1.354755 -1.804687,2.77803 0.83547,1.148587 1.804689,-2.778029 z m -2.5942375,3.993419 -1.804689,2.778031 0.83547,1.148588 1.8046885,-2.77803 z"
         style="fill:currentColor;fill-opacity:1;stroke-width:0.350134"
         sodipodi:nodetypes="cccccccccccscccsscccccccccccc" />
    </g>
  </g>
</svg>
