<?xml version="1.0" encoding="UTF-8" standalone="no"?>
<svg
   id="window"
   viewBox="0 0 22 22"
   version="1.1"
   sodipodi:docname="window.svg"
   width="22"
   height="22"
   inkscape:version="1.2 (dc2aedaf03, 2022-05-15)"
   xmlns:inkscape="http://www.inkscape.org/namespaces/inkscape"
   xmlns:sodipodi="http://sodipodi.sourceforge.net/DTD/sodipodi-0.dtd"
   xmlns="http://www.w3.org/2000/svg"
   xmlns:svg="http://www.w3.org/2000/svg"
   xmlns:rdf="http://www.w3.org/1999/02/22-rdf-syntax-ns#"
   xmlns:cc="http://creativecommons.org/ns#"
   xmlns:dc="http://purl.org/dc/elements/1.1/">
  <metadata
     id="metadata28">
    <rdf:RDF>
      <cc:Work
         rdf:about="">
        <dc:format>image/svg+xml</dc:format>
        <dc:type
           rdf:resource="http://purl.org/dc/dcmitype/StillImage" />
      </cc:Work>
    </rdf:RDF>
  </metadata>
  <defs
     id="defs26" />
  <sodipodi:namedview
     pagecolor="#b2b2b2"
     bordercolor="#666666"
     borderopacity="1"
     objecttolerance="10"
     gridtolerance="10"
     guidetolerance="10"
     inkscape:pageopacity="0"
     inkscape:pageshadow="2"
     inkscape:window-width="1920"
     inkscape:window-height="1000"
     id="namedview24"
     showgrid="false"
     inkscape:zoom="6.3398551"
     inkscape:cx="-23.738713"
     inkscape:cy="49.764544"
     inkscape:window-x="0"
     inkscape:window-y="0"
     inkscape:window-maximized="1"
     inkscape:current-layer="window"
     inkscape:document-rotation="0"
     showguides="false"
     inkscape:pagecheckerboard="0"
     inkscape:lockguides="true"
     inkscape:showpageshadow="2"
     inkscape:deskcolor="#b2b2b2">
    <inkscape:grid
       type="xygrid"
       id="grid872"
       originx="0"
       originy="0" />
  </sodipodi:namedview>
  <style
     id="current-color-scheme"
     type="text/css">.ColorScheme-Highlight { color:#cdd8e5; }
.ColorScheme-Text { color:#eff0f1; }
</style>
  <g
     id="window-list"
     transform="translate(-264,-539.36218)">
    <path
       id="rect3004"
       d="m 286,561.36218 h 32 v 32 h -32 z"
       opacity="0" />
    <path
       id="rect3008"
       d="m 290,565.3622 v 10 h 10 v -10 z m 1,1 h 8 v 8 h -8 z"
       class="ColorScheme-Text "
       style="fill-opacity:1;fill:currentColor;" />
    <path
       id="rect3010"
       d="m 304,565.3622 v 10 h 10 v -10 z m 1,1 h 8 v 8 h -8 z"
       class="ColorScheme-Text"
       style="fill-opacity:1;fill:currentColor;" />
    <path
       id="rect3012"
       d="m 290,579.3622 v 10 h 10 v -10 z m 1,1 h 8 v 8 h -8 z"
       class="ColorScheme-Text"
       style="fill-opacity:1;fill:currentColor;" />
    <path
       id="rect3014"
       d="m 304,579.3622 v 10 h 10 v -10 z m 1,1 h 8 v 8 h -8 z"
       class="ColorScheme-Text"
       style="fill-opacity:1;fill:currentColor;" />
  </g>
  <g
     id="window-pin">
    <path
       id="rect838"
       d="M 0,0 H 22 V 22 H 0 Z"
       fill="none" />
    <path
       id="Tack"
       class="st0  ColorScheme-Highlight"
       d="M 19.2,8.720625 13.479375,3 12.036564,4.442811 13.099689,5.505936 8.7965641,9.8090611 C 7.606875,8.619375 5.176875,9.125625 3.9871891,10.315311 l 3.6196859,3.569064 -1.4175,1.4175 0.70875,0.70875 1.4175,-1.4175 3.569064,3.594375 c 1.189686,-1.189689 1.695936,-3.619689 0.50625,-4.809375 L 16.694064,9.075 17.048439,9.429375 c 0.405,0.4050001 1.037811,0.4050001 1.442811,0 z"
       style="stroke-width:0.253125;fill-opacity:1.0;fill:currentColor;" />
    <path
       id="Tack-s"
       class="st1  ColorScheme-Text"
       d="m 16.694064,7.6575 1.797186,1.797186 c -0.405,0.4050001 -1.037811,0.4050001 -1.442811,0 L 16.694064,9.075 l -4.303125,4.303125 -0.70875,-0.70875 z M 7.5815641,13.884375 11.884689,18.1875 c 0.227805,-0.227804 0.430311,-0.50625 0.6075,-0.81 L 8.315625,13.175625 Z M 4.72125,18.1875 7.6575,15.25125 6.94875,14.5425 4.0125,17.47875 3,19.2 Z"
       style="stroke-width:0.253125;fill-opacity:1;fill:currentColor;" />
  </g>
  <g
     id="window-unpin">
    <path
       id="rect838-6"
       d="M 54,0 H 76 V 22 H 54 Z"
       fill="none" />
    <path
       id="Tack-3"
       class="st0  ColorScheme-Highlight"
       d="M 73.2,8.720625 67.479375,3 66.036564,4.442811 67.099689,5.505936 62.796564,9.8090609 C 61.606875,8.619375 59.176875,9.125625 57.987189,10.315311 l 3.619686,3.569064 -1.4175,1.4175 0.70875,0.70875 1.4175,-1.4175 3.569064,3.594375 c 1.189686,-1.189689 1.695936,-3.619689 0.50625,-4.809375 L 70.694064,9.075 71.048439,9.429375 c 0.405,0.405 1.037811,0.405 1.442811,0 z"
       style="stroke-width:0.253125;fill-opacity:1.0;fill:currentColor;" />
    <path
       id="Tack-s-6"
       class="st1  ColorScheme-Text"
       d="m 70.694064,7.6575 1.797186,1.7971859 c -0.405,0.405 -1.037811,0.405 -1.442811,0 L 70.694064,9.075 l -4.303125,4.303125 -0.70875,-0.70875 z m -9.1125,6.226875 4.303125,4.303125 c 0.227805,-0.227804 0.430311,-0.50625 0.6075,-0.81 L 62.315625,13.175625 Z M 58.72125,18.1875 61.6575,15.25125 60.94875,14.5425 58.0125,17.47875 57,19.2 Z"
       style="stroke-width:0.253125;fill-opacity:1;fill:currentColor;" />
  </g>
  <g
     id="16-16-window-pin">
    <path
       id="rect847"
       d="m 21.999994,6 h 16 v 16 h -16 z"
       fill="none" />
    <path
       id="Tack-6"
       class="st0  ColorScheme-Highlight"
       d="m 35.599997,12.355001 -3.954989,-3.955 -0.997494,0.9974988 0.734989,0.7350002 -2.974989,2.975 c -0.822506,-0.822499 -2.502506,-0.472499 -3.325011,0.35 l 2.502505,2.467501 -0.98,0.98 0.49,0.49 0.98,-0.98 2.467495,2.485 c 0.822505,-0.822501 1.172505,-2.502501 0.35,-3.325 l 2.975011,-2.975 0.244989,0.245 c 0.28,0.28 0.717494,0.28 0.997494,0 z"
       style="stroke-width:0.175;fill-opacity:1.0;fill:currentColor;" />
    <path
       id="Tack-s-7"
       class="st1  ColorScheme-Text"
       d="m 33.867514,11.620001 1.242483,1.242499 c -0.28,0.28 -0.717494,0.28 -0.997494,0 l -0.244989,-0.262499 -2.975011,2.975 -0.49,-0.49 z m -6.3,4.305 2.974989,2.975 c 0.157472,-0.157494 0.297494,-0.35 0.42,-0.56 l -2.887495,-2.905 z m -1.977517,2.975 2.03,-2.03 -0.49,-0.49 -2.03,2.03 -0.7,1.19 z"
       style="stroke-width:0.175;fill-opacity:1;fill:currentColor;" />
  </g>
  <g
     id="16-16-window-unpin"
     transform="translate(38,6)">
    <path
       id="rect847-9"
       d="M 0,0 H 16 V 16 H 0 Z"
       fill="none" />
    <path
       id="Tack-5"
       class="st0  ColorScheme-Highlight"
       d="M 13.6,6.355 9.645,2.4 8.6475,3.397499 l 0.735,0.735 -2.975,2.975 C 5.585,6.285 3.905,6.635 3.0825,7.457499 L 5.585,9.925 l -0.98,0.98 0.49,0.49 0.98,-0.98 2.4675,2.485 C 9.365,12.077499 9.715,10.397499 8.8925,9.575 l 2.975,-2.975 0.245,0.245 c 0.28,0.28 0.7175,0.28 0.9975,0 z"
       style="stroke-width:0.175;fill-opacity:1.0;fill:currentColor;" />
    <path
       id="Tack-s-3"
       class="st1  ColorScheme-Text"
       d="M 11.8675,5.62 13.11,6.862499 c -0.28,0.28 -0.7175,0.28 -0.9975,0 L 11.8675,6.6 8.8925,9.575 8.4025,9.085 Z m -6.3,4.305 2.975,2.975 C 8.7,12.742506 8.84,12.55 8.9625,12.34 L 6.075,9.435 Z M 3.59,12.9 5.62,10.87 5.13,10.38 3.1,12.41 2.4,13.6 Z"
       style="stroke-width:0.175;fill-opacity:1;fill:currentColor;" />
  </g>
  <g
     transform="translate(-20.589055,32)"
     id="22-22-window-close"
     style="fill:#d3dae3;fill-opacity:1">
    <rect
       id="rect18"
       y="0"
       x="0"
       height="22"
       width="22"
       style="opacity:0.00100002;fill:#d3dae3;fill-opacity:1" />
    <g
       id="g24"
       transform="matrix(1.7493122,0,0,1.7499488,-107.95048,-909.47286)"
       style="fill:#d3dae3;fill-opacity:1">
      <g
         id="g22"
         transform="translate(19,-242)"
         style="fill:#d3dae3;fill-opacity:1">
        <path
           id="path20"
           d="m 45.571203,764.57141 h 0.857142 c 0.0089,-1.1e-4 0.01782,-4e-4 0.02679,0 0.21853,0.01 0.437032,0.11021 0.589286,0.26785 l 1.955357,1.95536 1.982143,-1.95536 c 0.227678,-0.19757 0.382861,-0.26185 0.589285,-0.26785 h 0.857143 v 0.85714 c 0,0.24555 -0.02943,0.47199 -0.214285,0.64286 l -1.955357,1.95535 1.928571,1.92858 c 0.161304,0.16128 0.241064,0.38867 0.241071,0.61607 v 0.85714 h -0.857143 c -0.2274,-10e-6 -0.454788,-0.0798 -0.616071,-0.24107 l -1.955357,-1.95536 -1.955357,1.95536 c -0.161288,0.1613 -0.388684,0.24107 -0.616076,0.24107 h -0.857142 v -0.85714 c -3e-6,-0.22739 0.07977,-0.45479 0.241071,-0.61607 l 1.955357,-1.92858 -1.955357,-1.95535 c -0.180636,-0.16683 -0.259851,-0.40222 -0.241071,-0.64286 z"
           style="fill-opacity:1;fill:currentColor;"
           class="ColorScheme-Text" />
      </g>
    </g>
  </g>
  <g
     transform="translate(1.4109445,53.999998)"
     id="16-16-window-close"
     style="fill:#d3dae3;fill-opacity:1">
    <rect
       id="rect27"
       y="-16"
       x="0"
       height="16"
       width="16"
       style="opacity:0.00100002;fill:#d3dae3;fill-opacity:1" />
    <g
       id="g33"
       transform="matrix(1.2495087,0,0,1.2499635,-76.964626,-665.48065)"
       style="fill:#d3dae3;fill-opacity:1">
      <g
         id="g31"
         transform="translate(19,-242)"
         style="fill:#d3dae3;fill-opacity:1">
        <path
           id="path29"
           d="m 45.000045,763.99995 h 0.999997 c 0.0103,-10e-5 0.02083,-3.7e-4 0.0312,0 0.254951,0.009 0.509869,0.12866 0.687499,0.3126 l 2.281251,2.2812 2.3125,-2.2812 c 0.265626,-0.2306 0.446671,-0.3056 0.687501,-0.3126 h 0.999999 v 1 c 0,0.28658 -0.03427,0.55072 -0.249999,0.75 l -2.281252,2.28129 2.250003,2.25 c 0.188185,0.18819 0.281241,0.45347 0.281248,0.71874 v 1.00001 h -0.999993 c -0.2653,-10e-6 -0.530586,-0.0925 -0.71875,-0.28124 l -2.281252,-2.28122 -2.281251,2.28122 c -0.188161,0.18818 -0.453456,0.28124 -0.718748,0.28124 h -0.999999 v -1.00001 c -3e-6,-0.26526 0.09305,-0.53055 0.28126,-0.71874 l 2.281251,-2.25 -2.281251,-2.28129 c -0.210734,-0.1945 -0.303168,-0.4692 -0.28126,-0.75 z"
           style="stroke-width:1.25;fill-opacity:1;fill:currentColor;"
           class="ColorScheme-Text" />
      </g>
    </g>
  </g>
  <g
     id="window-close"
     transform="translate(-52.589055,22)"
     style="fill:#d3dae3;fill-opacity:1">
    <rect
       id="rect36"
       style="opacity:0.00100002;fill:#d3dae3;fill-opacity:1"
       y="0"
       x="0"
       height="32"
       width="32" />
    <g
       id="g46"
       transform="matrix(1.7493122,0,0,1.7499488,-102.95048,-903.47286)"
       style="opacity:0.2;fill:#d3dae3;fill-opacity:1">
      <g
         id="g44"
         transform="translate(19,-242)"
         style="fill:#d3dae3;fill-opacity:1" />
    </g>
    <g
       id="g52"
       style="fill:#d3dae3;fill-opacity:1"
       transform="matrix(1.7493122,0,0,1.7499488,-102.95048,-904.47286)">
      <g
         id="g50"
         style="fill:#d3dae3;fill-opacity:1"
         transform="translate(19,-242)">
        <path
           id="path48"
           style="stroke-width:1.5;fill-opacity:1;fill:currentColor;"
           d="m 43.857588,762.85718 h 1.285713 c 0.01335,-1.6e-4 0.02673,-6e-4 0.04019,0 0.327795,0.015 0.655548,0.16532 0.883929,0.40178 l 2.933035,2.93304 2.973214,-2.93304 c 0.341516,-0.29636 0.574291,-0.39278 0.883927,-0.40178 h 1.285714 v 1.28571 c 0,0.36833 -0.04415,0.70799 -0.321427,0.96429 l -2.933035,2.93303 2.892856,2.89287 c 0.241956,0.24192 0.361596,0.583 0.361606,0.9241 v 1.28571 h -1.285714 c -0.3411,-10e-6 -0.682182,-0.1197 -0.924106,-0.3616 l -2.933035,-2.93304 -2.933035,2.93304 c -0.241932,0.24195 -0.583026,0.3616 -0.924114,0.3616 h -1.285713 v -1.28571 c -4e-6,-0.34108 0.119655,-0.68218 0.361607,-0.9241 l 2.933034,-2.89287 -2.933034,-2.93303 c -0.270954,-0.25024 -0.389777,-0.60333 -0.361607,-0.96429 z"
           class="ColorScheme-Text" />
      </g>
    </g>
  </g>
</svg>
