<?xml version="1.0" encoding="UTF-8" standalone="no"?>
<svg
   width="136.53334"
   height="136.53334"
   id="svg5048"
   version="1.1"
   inkscape:version="1.2 (dc2aedaf03, 2022-05-15)"
   sodipodi:docname="suspend.svg"
   viewBox="0 0 128 128"
   xmlns:inkscape="http://www.inkscape.org/namespaces/inkscape"
   xmlns:sodipodi="http://sodipodi.sourceforge.net/DTD/sodipodi-0.dtd"
   xmlns="http://www.w3.org/2000/svg"
   xmlns:svg="http://www.w3.org/2000/svg"
   xmlns:rdf="http://www.w3.org/1999/02/22-rdf-syntax-ns#"
   xmlns:cc="http://creativecommons.org/ns#"
   xmlns:dc="http://purl.org/dc/elements/1.1/">
  <defs
     id="defs5050">
    <filter
       id="filter4004-4"
       inkscape:label="Colorize"
       inkscape:menu="Color"
       inkscape:menu-tooltip="Blend image or object with a flood color and set lightness and contrast"
       x="0"
       y="0"
       width="1"
       height="1"
       color-interpolation-filters="sRGB">
      <feColorMatrix
         id="feColorMatrix4006-0"
         values="1"
         in="SourceGraphic"
         type="saturate"
         result="result2" />
      <feFlood
         id="feFlood4008-2"
         flood-color="rgb(250,247,247)"
         flood-opacity="1"
         result="result1" />
      <feBlend
         id="feBlend4010-1"
         in2="result2"
         mode="multiply"
         in="result1"
         result="result3" />
      <feComposite
         id="feComposite4012-3"
         in2="SourceGraphic"
         operator="in"
         result="result4" />
    </filter>
    <style
       id="current-color-scheme"
       type="text/css">      .ColorScheme-Text {
        color:#31363b;
      }
      .ColorScheme-Background{
        color:#eff0f1;
      }
      .ColorScheme-ViewText {
        color:#31363b;
      }
      .ColorScheme-ViewBackground{
        color:#fcfcfc;
      }
      .ColorScheme-ViewHover {
        color:#3daee9;
      }
      .ColorScheme-ViewFocus{
        color:#3daee9;
      }
      .ColorScheme-ButtonText {
        color:#31363b;
      }
      .ColorScheme-ButtonBackground{
        color:#eff0f1;
      }
      .ColorScheme-ButtonHover {
        color:#3daee9;
      }
      .ColorScheme-ButtonFocus{
        color:#3daee9;
      }</style>
  </defs>
  <sodipodi:namedview
     id="base"
     pagecolor="#b2b2b2"
     bordercolor="#000000"
     borderopacity="1"
     inkscape:pageopacity="0.12941176"
     inkscape:pageshadow="2"
     inkscape:zoom="4"
     inkscape:cx="72.125"
     inkscape:cy="66.125"
     inkscape:document-units="px"
     inkscape:current-layer="layer1"
     showgrid="true"
     inkscape:window-width="1920"
     inkscape:window-height="1000"
     inkscape:window-x="0"
     inkscape:window-y="0"
     inkscape:window-maximized="1"
     fit-margin-top="0"
     fit-margin-left="0"
     fit-margin-right="0"
     fit-margin-bottom="0"
     inkscape:snap-bbox="true"
     inkscape:document-rotation="0"
     inkscape:pagecheckerboard="0"
     inkscape:lockguides="true"
     inkscape:showpageshadow="2"
     inkscape:deskcolor="#b2b2b2">
    <inkscape:grid
       type="xygrid"
       id="grid3001"
       empspacing="4"
       visible="true"
       enabled="true"
       snapvisiblegridlinesonly="true"
       color="#0101ff"
       opacity="0.01960784"
       empcolor="#0000ff"
       empopacity="0.03921569"
       originx="0"
       originy="0"
       spacingx="1"
       spacingy="1" />
  </sodipodi:namedview>
  <metadata
     id="metadata5053">
    <rdf:RDF>
      <cc:Work
         rdf:about="">
        <dc:format>image/svg+xml</dc:format>
        <dc:type
           rdf:resource="http://purl.org/dc/dcmitype/StillImage" />
      </cc:Work>
    </rdf:RDF>
  </metadata>
  <g
     inkscape:label="Layer 1"
     inkscape:groupmode="layer"
     id="layer1"
     transform="translate(-6.129729,-913.75296)">
    <path
       id="Zoom"
       class="st0"
       d="m 85.334428,1028.4986 v 0 c 8.889242,-2.0007 17.252282,-6.1726 24.594242,-12.3878 24.58709,-20.81176 26.60738,-56.24912 4.52822,-79.42691 -22.07912,-23.17768 -59.67133,-25.08219 -84.258416,-4.26863 -24.587033,20.81349 -26.607325,56.25095 -4.528218,79.42694 13.186142,13.8422 32.010274,20.0042 50.468267,18.3352 v 0 0 0 z m -46.004691,-28.218 c -15.179394,-15.93451 -13.768655,-40.67955 3.13492,-54.98887 16.903628,-14.3093 43.15335,-12.97947 58.332743,2.95525 15.17939,15.9347 13.76872,40.67974 -3.13491,54.98882 -16.903645,14.3078 -43.15336,12.9779 -58.332753,-2.9552 z"
       sodipodi:nodetypes="ccssssccccccsssss"
       style="fill:#5e81ac;fill-opacity:1;stroke-width:2.22808" />
    <path
       id="Zoom-s"
       class="st1"
       d="m 71.975487,950.57346 c -8.432801,-0.42667 -16.88651,2.36179 -23.209256,7.70893 l 6.138211,6.43726 c 9.398679,-7.94841 23.993906,-7.20973 32.433907,1.64159 l 6.835401,-5.78067 c -5.677791,-5.95453 -13.76541,-9.58033 -22.198263,-10.00711 z m 58.373553,45.89108 -0.27841,0.016 0.27947,-0.135 -0.40961,0.043 0.10131,0.085 0.29013,0.054 z"
       sodipodi:nodetypes="ccccccccccccc"
       style="fill:#eff0f1;fill-opacity:1;stroke-width:2.22885" />
    <path
       d="m 79.231847,995.26064 -8.341068,-0.1307 11.712412,-15.18334 c 1.002204,-1.31354 1.238421,-3.13506 0.612762,-4.69961 -0.645397,-1.56479 -2.035287,-2.57795 -3.585387,-2.60221 L 62.80545,972.38134 c -2.223069,-0.0378 -4.052693,1.91929 -4.096106,4.37461 -0.04267,2.45544 1.716395,4.46567 3.93941,4.50042 l 8.341173,0.13068 -11.712469,15.18349 c -1.002253,1.3136 -1.238362,3.135 -0.612809,4.69926 0.645609,1.565 2.03528,2.578 3.585433,2.6023 l 16.825067,0.2635 c 2.22312,0.038 4.052799,-1.9194 4.096162,-4.37446 0.04267,-2.4553 -1.736934,-4.466 -3.939525,-4.5005 z"
       id="path4-3-3-4"
       style="fill:#eff0f1;fill-opacity:1;stroke-width:0.214376" />
    <path
       id="Power-s-5-2-4"
       class="st1"
       d="m 129.00864,984.70084 v 0.49067 l -8.14293,-0.49067 v 0 c 0,25.30256 -27.21118,45.66036 -54.286506,45.66036 v 7.6104 c 31.553996,0 62.429436,-23.7824 62.429436,-53.27076 z"
       style="fill:#eff0f1;fill-opacity:1;stroke-width:1.96804"
       sodipodi:nodetypes="ccccccc" />
  </g>
</svg>
