<?xml version="1.0" encoding="UTF-8" standalone="no"?>
<svg
   height="16.5pt"
   viewBox="0 0 16.5 16.5"
   width="16.5pt"
   version="1.1"
   id="svg28"
   sodipodi:docname="busywidget.svg"
   inkscape:version="1.1.2 (0a00cf5339, 2022-02-04)"
   xmlns:inkscape="http://www.inkscape.org/namespaces/inkscape"
   xmlns:sodipodi="http://sodipodi.sourceforge.net/DTD/sodipodi-0.dtd"
   xmlns="http://www.w3.org/2000/svg"
   xmlns:svg="http://www.w3.org/2000/svg"
   xmlns:rdf="http://www.w3.org/1999/02/22-rdf-syntax-ns#"
   xmlns:cc="http://creativecommons.org/ns#"
   xmlns:dc="http://purl.org/dc/elements/1.1/">
  <metadata
     id="metadata34">
    <rdf:RDF>
      <cc:Work
         rdf:about="">
        <dc:format>image/svg+xml</dc:format>
        <dc:type
           rdf:resource="http://purl.org/dc/dcmitype/StillImage" />
      </cc:Work>
    </rdf:RDF>
  </metadata>
  <defs
     id="defs941" />
  <sodipodi:namedview
     inkscape:document-rotation="0"
     pagecolor="#ffffff"
     bordercolor="#666666"
     borderopacity="1"
     objecttolerance="10"
     gridtolerance="10"
     guidetolerance="10"
     inkscape:pageopacity="0"
     inkscape:pageshadow="2"
     inkscape:window-width="1920"
     inkscape:window-height="1007"
     id="namedview30"
     showgrid="false"
     inkscape:zoom="14.71875"
     inkscape:cx="11.244161"
     inkscape:cy="11.346072"
     inkscape:window-x="0"
     inkscape:window-y="0"
     inkscape:window-maximized="1"
     inkscape:current-layer="g3167"
     inkscape:pagecheckerboard="0"
     inkscape:document-units="pt"
     inkscape:lockguides="true">
    <inkscape:grid
       type="xygrid"
       id="grid2810" />
  </sodipodi:namedview>
  <g
     id="g3167">
    <g
       id="busywidget">
      <path
         d="m 8.25,3.5804327 c 0.334533,0 0.606754,-0.2722206 0.606754,-0.6067543 V 2.106754 C 8.856754,1.77222 8.584533,1.5 8.25,1.5 7.915466,1.5 7.643245,1.77222 7.643245,2.106754 v 0.8669244 c 0,0.3345337 0.272221,0.6067543 0.606755,0.6067543 z M 8.038753,2.106754 c 0,-0.116489 0.09476,-0.211246 0.211247,-0.211246 0.116489,0 0.211246,0.09476 0.211246,0.211246 v 0.8669244 c 0,0.1164895 -0.09476,0.2112465 -0.211246,0.2112465 -0.11649,0 -0.211247,-0.094757 -0.211247,-0.2112465 z m 0,0"
         id="path2"
         style="fill:#eff0f1;fill-opacity:1;stroke-width:0.0263672" />
      <path
         d="m 8.25,12.919567 c -0.334534,0 -0.606755,0.27222 -0.606755,0.606754 v 0.866924 C 7.643245,14.727779 7.915466,15 8.25,15 8.584533,15 8.856754,14.727779 8.856754,14.393245 v -0.866924 c 0,-0.334534 -0.272221,-0.606754 -0.606754,-0.606754 z m 0.211246,1.473678 c 0,0.11649 -0.09476,0.211247 -0.211246,0.211247 -0.11649,0 -0.211247,-0.09476 -0.211247,-0.211247 v -0.866924 c 0,-0.116489 0.09476,-0.211246 0.211247,-0.211246 0.116489,0 0.211246,0.09476 0.211246,0.211246 z m 0,0"
         id="path4"
         style="fill:#eff0f1;fill-opacity:1;stroke-width:0.0263672" />
      <path
         d="m 5.086349,3.9839743 c 0.112267,0.194458 0.316612,0.3032226 0.52652,0.3032226 0.102791,0 0.207024,-0.026161 0.302296,-0.081161 C 6.204998,4.0387686 6.304596,3.6669501 6.137329,3.377117 L 5.703918,2.626373 C 5.622858,2.486091 5.491951,2.38567 5.335395,2.343647 5.178943,2.301727 5.015384,2.323257 4.875,2.404317 4.734615,2.485377 4.634193,2.616181 4.592273,2.7727366 4.550353,2.9292918 4.571883,3.0928508 4.652833,3.2332354 Z M 4.974289,2.8751105 c 0.01463,-0.054485 0.04954,-0.1000099 0.09847,-0.1282311 0.03255,-0.018848 0.0687,-0.028427 0.105262,-0.028427 0.01844,0 0.03687,0.00247 0.055,0.00731 0.05459,0.014522 0.100113,0.049541 0.128334,0.098362 L 5.794766,3.5748709 C 5.853066,3.6758078 5.818356,3.8052748 5.717416,3.863468 5.616582,3.921764 5.487115,3.887054 5.428819,3.786117 L 4.995408,3.0353731 c -0.02822,-0.04882 -0.03574,-0.1056747 -0.02111,-0.160263 z m 0,0"
         id="path6"
         style="fill:#eff0f1;fill-opacity:1;stroke-width:0.0263672" />
      <path
         d="m 11.41365,12.516025 c -0.167267,-0.28973 -0.539188,-0.389431 -0.828815,-0.222061 -0.289834,0.167267 -0.389431,0.539085 -0.222165,0.828919 l 0.433411,0.750743 c 0.08106,0.140282 0.211967,0.240704 0.368523,0.282727 0.05222,0.01401 0.105262,0.02091 0.157997,0.02091 0.10516,0 0.208878,-0.0276 0.302399,-0.08157 0.140384,-0.08106 0.240806,-0.211864 0.282726,-0.368419 0.04192,-0.156555 0.02039,-0.320114 -0.06056,-0.460499 z m 0.112061,1.108864 c -0.01463,0.05448 -0.04954,0.10001 -0.09847,0.128231 -0.04892,0.02822 -0.105881,0.03574 -0.160366,0.02111 -0.05448,-0.01452 -0.10001,-0.04954 -0.128231,-0.09836 l -0.433411,-0.750741 c -0.0583,-0.100937 -0.02359,-0.230404 0.07735,-0.288598 0.03317,-0.01916 0.06942,-0.02832 0.105263,-0.02832 0.07303,0 0.144195,0.0379 0.183334,0.105675 l 0.43341,0.750744 c 0.02822,0.04882 0.03574,0.105675 0.02111,0.160263 z m 0,0"
         id="path8"
         style="fill:#eff0f1;fill-opacity:1;stroke-width:0.0263672" />
      <path
         d="m 2.626476,5.7039182 0.750641,0.4334107 c 0.09352,0.05397 0.197342,0.081573 0.302502,0.081573 0.05263,0 0.105777,-0.007 0.157997,-0.020908 C 3.994171,6.1559709 4.124977,6.0555494 4.206035,5.9151647 4.373302,5.6254347 4.273705,5.2536161 3.983974,5.0863493 L 3.23323,4.6528357 C 2.9435,4.4855688 2.571682,4.5852697 2.404312,4.8749998 2.323252,5.0152815 2.301727,5.1788404 2.343752,5.3353956 2.385672,5.4919508 2.486093,5.6228597 2.626478,5.7039182 Z M 2.746879,5.0727537 C 2.785919,5.0050847 2.857086,4.967182 2.930214,4.967182 c 0.03574,0 0.0721,0.00906 0.105262,0.028221 L 3.78622,5.4288137 c 0.100834,0.058296 0.135544,0.1877632 0.07735,0.2885971 -0.02822,0.048923 -0.07385,0.083942 -0.128334,0.098465 -0.05449,0.014626 -0.111443,0.00711 -0.160366,-0.021114 L 2.824126,5.3613512 c -0.04882,-0.028221 -0.08384,-0.073746 -0.09836,-0.128334 -0.01463,-0.054485 -0.0071,-0.1113396 0.02111,-0.1602631 z m 0,0"
         id="path10"
         style="fill:#eff0f1;fill-opacity:1;stroke-width:0.0263672" />
      <path
         d="m 13.873523,10.796081 -0.75064,-0.43341 c -0.140385,-0.08095 -0.303944,-0.102585 -0.460499,-0.06066 -0.156555,0.04202 -0.287361,0.142444 -0.36842,0.282829 -0.167267,0.28973 -0.06767,0.661549 0.222061,0.828815 l 0.750744,0.433514 c 0.09527,0.055 0.199505,0.08116 0.302399,0.08116 0.209804,0 0.41415,-0.108867 0.526417,-0.303325 0.08106,-0.140282 0.102584,-0.303841 0.06067,-0.460396 -0.04192,-0.156554 -0.142347,-0.287463 -0.282732,-0.368522 z m -0.120403,0.631165 c -0.05819,0.100834 -0.18766,0.135544 -0.288597,0.07735 l -0.750744,-0.43341 c -0.100834,-0.0583 -0.135544,-0.187763 -0.07735,-0.288597 0.02822,-0.04892 0.07385,-0.08394 0.128334,-0.09847 0.01813,-0.0048 0.03667,-0.0073 0.055,-0.0073 0.03656,0 0.07272,0.0096 0.105366,0.02843 l 0.750743,0.43341 c 0.04882,0.02822 0.08384,0.07375 0.09836,0.128334 0.01463,0.05448 0.0071,0.11134 -0.02111,0.160263 z m 0,0"
         id="path12"
         style="fill:#eff0f1;fill-opacity:1;stroke-width:0.0263672" />
      <path
         d="m 3.580433,8.2499997 c 0,-0.3345337 -0.272221,-0.6067543 -0.606755,-0.6067543 H 2.106754 C 1.77222,7.6432454 1.5,7.915466 1.5,8.2499997 1.5,8.5845334 1.77222,8.856754 2.106754,8.856754 h 0.866924 c 0.334534,0 0.606755,-0.2722206 0.606755,-0.6067543 z m -1.684925,0 c 0,-0.1164894 0.09476,-0.2112465 0.211246,-0.2112465 h 0.866924 c 0.11649,0 0.211247,0.094757 0.211247,0.2112465 0,0.1164894 -0.09476,0.2112465 -0.211247,0.2112465 H 2.106754 c -0.116489,0 -0.211246,-0.094757 -0.211246,-0.2112465 z m 0,0"
         id="path14"
         style="fill:#eff0f1;fill-opacity:1;stroke-width:0.0263672" />
      <path
         d="m 14.393245,7.6432454 h -0.866924 c -0.334534,0 -0.606754,0.2721176 -0.606754,0.6067543 0,0.3346367 0.27222,0.6067543 0.606754,0.6067543 h 0.866924 C 14.727779,8.856754 15,8.5845334 15,8.2499997 15,7.915466 14.727779,7.6432454 14.393245,7.6432454 Z m 0,0.8180008 h -0.866924 c -0.116489,0 -0.211246,-0.094757 -0.211246,-0.2112465 0,-0.1164894 0.09476,-0.2112465 0.211246,-0.2112465 h 0.866924 c 0.11649,0 0.211247,0.094757 0.211247,0.2112465 0,0.1164894 -0.09476,0.2112465 -0.211247,0.2112465 z m 0,0"
         id="path16"
         style="fill:#eff0f1;fill-opacity:1;stroke-width:0.0263672" />
      <path
         d="m 3.837616,10.302006 c -0.156556,-0.04192 -0.320114,-0.02039 -0.460499,0.06066 l -0.750744,0.43341 c -0.28973,0.16737 -0.389328,0.539189 -0.222061,0.828919 0.08106,0.140384 0.211864,0.240806 0.368419,0.282726 0.05232,0.01401 0.105366,0.02091 0.158101,0.02091 0.105056,0 0.208877,-0.0276 0.302398,-0.08157 L 3.983871,11.41365 C 4.124256,11.33259 4.224678,11.201786 4.2667,11.045231 4.30862,10.888675 4.28709,10.725117 4.20604,10.584835 4.12498,10.44445 3.994176,10.344028 3.837621,10.302006 Z m 0.04697,0.640846 c -0.01452,0.05448 -0.04954,0.100113 -0.09836,0.128231 l -0.750744,0.433513 c -0.04892,0.02812 -0.105777,0.03564 -0.160366,0.02111 -0.05448,-0.01462 -0.10001,-0.04964 -0.128231,-0.09846 -0.0583,-0.100834 -0.02359,-0.230404 0.07735,-0.288597 l 0.750744,-0.433411 c 0.03255,-0.01885 0.0687,-0.02843 0.105263,-0.02843 0.01833,0 0.03677,0.0025 0.055,0.0073 0.05448,0.01452 0.100112,0.04954 0.128334,0.09836 0.02812,0.04892 0.03564,0.105881 0.02101,0.160366 z m 0,0"
         id="path18"
         style="fill:#eff0f1;fill-opacity:1;stroke-width:0.0263672" />
      <path
         d="m 12.662384,6.197994 c 0.05232,0.013905 0.105365,0.020908 0.1581,0.020908 0.105057,0 0.208877,-0.027603 0.302399,-0.081573 l 0.750743,-0.4334108 c 0.28973,-0.1673698 0.389328,-0.5391883 0.222061,-0.8289184 -0.08106,-0.1403847 -0.211864,-0.2408066 -0.368419,-0.2827263 -0.156658,-0.04192 -0.320114,-0.020393 -0.460499,0.060562 l -0.750641,0.4335136 c -0.140384,0.080955 -0.240806,0.2118644 -0.282829,0.3684196 -0.04192,0.1565552 -0.02039,0.3201141 0.06067,0.4603958 0.08106,0.1403847 0.211865,0.2408066 0.36842,0.2828293 z m -0.04697,-0.6408462 c 0.01452,-0.054485 0.04954,-0.1001129 0.09836,-0.1282311 l 0.750744,-0.4335136 c 0.03255,-0.018745 0.0687,-0.028324 0.105366,-0.028324 0.01833,0 0.03677,0.00237 0.055,0.00721 0.05448,0.014626 0.10001,0.049644 0.128231,0.098465 0.0583,0.1008339 0.02359,0.2304039 -0.07735,0.2885971 l -0.750743,0.4334106 c -0.04882,0.028221 -0.105778,0.03574 -0.160263,0.021114 -0.05449,-0.014523 -0.100113,-0.049542 -0.128334,-0.098362 -0.02812,-0.048923 -0.03564,-0.1058807 -0.02101,-0.160366 z m 0,0"
         id="path20"
         style="fill:#eff0f1;fill-opacity:1;stroke-width:0.0263672" />
      <path
         d="m 5.915268,12.293964 c -0.28973,-0.167267 -0.661652,-0.06767 -0.828919,0.222061 l -0.433411,0.750744 c -0.08106,0.140385 -0.102584,0.303841 -0.06067,0.460499 0.04192,0.156555 0.142342,0.287361 0.282727,0.368419 0.09352,0.05397 0.197239,0.08157 0.302398,0.08157 0.05273,0 0.105778,-0.0069 0.158101,-0.02091 0.156555,-0.04202 0.287361,-0.142342 0.368419,-0.282727 l 0.433411,-0.750737 c 0.167267,-0.289834 0.06767,-0.661549 -0.222061,-0.828919 z m -0.120507,0.631165 -0.43341,0.750743 c -0.02822,0.04882 -0.07375,0.08384 -0.128231,0.09836 -0.05459,0.01463 -0.111443,0.0071 -0.160366,-0.02111 -0.04892,-0.02822 -0.08384,-0.07375 -0.09847,-0.128231 -0.01452,-0.05448 -0.0071,-0.111443 0.02111,-0.160366 l 0.43341,-0.750744 c 0.03914,-0.06767 0.11031,-0.105572 0.183335,-0.105572 0.03584,0 0.0721,0.0092 0.105262,0.02822 0.100937,0.0583 0.135647,0.187763 0.07735,0.2887 z m 0,0"
         id="path22"
         style="fill:#eff0f1;fill-opacity:1;stroke-width:0.0263672" />
      <path
         d="M 11.625,2.404312 C 11.484615,2.323252 11.321159,2.301727 11.164604,2.343642 11.008048,2.385662 10.87714,2.486086 10.796081,2.626471 L 10.36267,3.377112 c -0.167266,0.2898331 -0.06767,0.6616516 0.222165,0.8289184 0.09527,0.055103 0.199401,0.081264 0.302295,0.081264 0.209908,-1.03e-4 0.414253,-0.1088676 0.52652,-0.3033256 l 0.433411,-0.7507439 c 0.08106,-0.1403846 0.102585,-0.3038406 0.06066,-0.4603957 -0.04192,-0.1566587 -0.142342,-0.2874647 -0.282726,-0.3685227 z m -0.120404,0.6311645 -0.43341,0.7507439 c -0.0583,0.1008339 -0.187764,0.1355438 -0.288598,0.077351 -0.100936,-0.058296 -0.135646,-0.1877632 -0.07735,-0.2887001 l 0.43341,-0.7506409 c 0.02822,-0.048923 0.07375,-0.083942 0.128232,-0.098465 0.01823,-0.00484 0.03667,-0.00731 0.0551,-0.00731 0.03656,0 0.07272,0.00958 0.105262,0.028427 0.04892,0.028221 0.08384,0.073746 0.09846,0.1282311 0.01463,0.054588 0.0071,0.1114425 -0.02111,0.160366 z m 0,0"
         id="path24"
         style="fill:#eff0f1;fill-opacity:1;stroke-width:0.0263672" />
      <path
         d="M 10.32388,7.377233 C 10.21176,7.110327 10.04629,6.870122 9.84347,6.661935 9.63528,6.453749 9.39508,6.293596 9.12817,6.181524 8.85054,6.064048 8.55697,6 8.25268,6 7.94839,6 7.65482,6.06405 7.37723,6.181486 7.11033,6.293606 6.87012,6.459078 6.66194,6.661897 6.45375,6.870084 6.2936,7.110289 6.18152,7.377195 6.06405,7.654824 6,7.948392 6,8.252683 6,8.556975 6.064,8.850542 6.18149,9.128134 6.29361,9.395039 6.45908,9.635245 6.6619,9.8434313 6.87008,10.051618 7.11029,10.211771 7.37719,10.323842 7.65479,10.441281 7.94839,10.5 8.25265,10.5 8.55694,10.5 8.8505,10.44128 9.1281,10.323842 9.395,10.211723 9.63521,10.046251 9.84339,9.8434313 10.05158,9.635245 10.21173,9.395039 10.3238,9.128134 c 0.11744,-0.277592 0.17616,-0.571197 0.17616,-0.875451 8e-5,-0.304291 -0.0586,-0.597859 -0.17609,-0.87545 z"
         id="path67"
         style="fill:#cdd8e5;fill-opacity:0.40392157;stroke-width:0.00953234" />
      <rect
         y="-16.5"
         x="-16.5"
         height="16.5"
         width="16.5"
         id="rect3978"
         style="fill:#566060;fill-opacity:0;stroke:none;stroke-width:0.75"
         transform="matrix(0,-1,-1,0,0,0)" />
    </g>
  </g>
</svg>
