<?xml version="1.0" encoding="UTF-8" standalone="no"?>
<svg
   id="svg4306"
   width="22"
   height="22"
   version="1.1"
   style="enable-background:new"
   sodipodi:docname="keepabove.svg"
   inkscape:version="1.2 (dc2aedaf03, 2022-05-15)"
   xmlns:inkscape="http://www.inkscape.org/namespaces/inkscape"
   xmlns:sodipodi="http://sodipodi.sourceforge.net/DTD/sodipodi-0.dtd"
   xmlns="http://www.w3.org/2000/svg"
   xmlns:svg="http://www.w3.org/2000/svg"
   xmlns:rdf="http://www.w3.org/1999/02/22-rdf-syntax-ns#"
   xmlns:cc="http://creativecommons.org/ns#"
   xmlns:dc="http://purl.org/dc/elements/1.1/">
  <g
     id="pressed-inactive-center"
     transform="translate(44,22)">
    <rect
       style="opacity:0.00100002;fill:#000000;fill-opacity:1;fill-rule:nonzero;stroke:none;stroke-width:2;stroke-linecap:round;stroke-linejoin:round;stroke-miterlimit:4;stroke-dasharray:none;stroke-opacity:1"
       y="0"
       x="0"
       height="22"
       width="22"
       id="rect4266-3-6-5" />
    <rect
       width="16.797199"
       height="16.797194"
       rx="5.3985996"
       ry="5.3869562"
       x="2.6013999"
       y="2.601402"
       id="rect3000-9-3-5-7-9"
       style="color:#000000;display:inline;overflow:visible;visibility:visible;fill:#a3be8c;fill-opacity:0.8;stroke:#000405;stroke-width:1.2028;stroke-opacity:0.01;marker:none;enable-background:accumulate" />
    <path
       d="m 17.040631,16.451998 a 0.48279725,0.48278859 0 0 1 -0.341176,-0.141622 l -5.69379,-5.693683 -5.6937899,5.693683 A 0.48279725,0.48278859 0 0 1 4.6295223,15.628042 L 10.664497,9.5931859 a 0.48279725,0.48278859 0 0 1 0.682339,0 l 6.034968,6.0348561 a 0.48279725,0.48278859 0 0 1 -0.341173,0.823956 z"
       id="path4-3-3-3"
       style="fill:#000405;fill-opacity:1;stroke-width:0.160928;enable-background:new" />
    <path
       d="M 17.040634,11.627997 A 0.48279778,0.48278848 0 0 1 16.699458,11.486373 L 11.005657,5.7926904 5.3118627,11.486373 A 0.48279778,0.48278848 0 0 1 4.6295092,10.804041 L 10.664492,4.769184 a 0.48279778,0.48278848 0 0 1 0.682336,0 l 6.034979,6.034857 a 0.48279778,0.48278848 0 0 1 -0.341173,0.823956 z"
       id="path4-36-5-6"
       style="fill:#000405;fill-opacity:1;stroke-width:0.160929;enable-background:new" />
  </g>
  <g
     id="hover-inactive-center"
     transform="translate(22,22)">
    <rect
       id="rect4266-3-67"
       width="22"
       height="22"
       x="0"
       y="0"
       style="opacity:0.00100002;fill:#000000;fill-opacity:1;fill-rule:nonzero;stroke:none;stroke-width:2;stroke-linecap:round;stroke-linejoin:round;stroke-miterlimit:4;stroke-dasharray:none;stroke-opacity:1" />
    <rect
       width="16.797211"
       height="16.797194"
       rx="5.3986053"
       ry="5.3869557"
       x="2.6013951"
       y="2.6014023"
       id="rect3000-9-3-5-7-9-9"
       style="color:#000000;display:inline;overflow:visible;visibility:visible;fill:#a3be8c;fill-opacity:0.6;stroke:#000405;stroke-width:1.20279;stroke-opacity:0.01;marker:none;enable-background:accumulate" />
    <path
       d="M 17.140635,16.451999 A 0.4827972,0.48278849 0 0 1 16.799457,16.310377 L 11.105665,10.616694 5.4118758,16.310377 A 0.4827972,0.48278849 0 0 1 4.7295231,15.628043 L 10.764497,9.5931869 a 0.4827972,0.48278849 0 0 1 0.682341,0 l 6.034969,6.0348561 a 0.4827972,0.48278849 0 0 1 -0.341172,0.823956 z"
       id="path4-3-3-3-2"
       style="fill:#001723;fill-opacity:1;stroke-width:0.160927;enable-background:new" />
    <path
       d="M 17.140632,11.627997 A 0.48279731,0.48278887 0 0 1 16.799454,11.486376 L 11.10566,5.7926903 5.4118703,11.486376 A 0.48279731,0.48278887 0 0 1 4.7295177,10.804042 L 10.764495,4.7691835 a 0.48279731,0.48278887 0 0 1 0.682334,0 l 6.034979,6.0348585 a 0.48279731,0.48278887 0 0 1 -0.341176,0.823955 z"
       id="path4-36-5-6-0"
       style="fill:#001723;fill-opacity:1;stroke-width:0.160929;enable-background:new" />
  </g>
  <g
     id="hover-center"
     transform="translate(22)">
    <rect
       style="opacity:0.00100002;fill:#000000;fill-opacity:1;fill-rule:nonzero;stroke:none;stroke-width:2;stroke-linecap:round;stroke-linejoin:round;stroke-miterlimit:4;stroke-dasharray:none;stroke-opacity:1"
       y="0"
       x="0"
       height="22"
       width="22"
       id="rect4266-3" />
    <rect
       width="16.797211"
       height="16.797197"
       rx="5.3986053"
       ry="5.3869567"
       x="2.6013951"
       y="2.6014018"
       id="rect3000-9-3-5-7-61"
       style="color:#000000;display:inline;overflow:visible;visibility:visible;fill:#a3be8c;fill-opacity:0.960022;stroke:#4e4e7e;stroke-width:1.20279;stroke-opacity:0.01;marker:none;enable-background:accumulate" />
    <path
       d="M 17.140634,16.451998 A 0.48279724,0.48278853 0 0 1 16.799458,16.310376 L 11.105667,10.616693 5.4118758,16.310376 A 0.48279724,0.48278853 0 0 1 4.729523,15.628042 l 6.034976,-6.0348561 a 0.48279724,0.48278853 0 0 1 0.682339,0 l 6.034969,6.0348561 a 0.48279724,0.48278853 0 0 1 -0.341173,0.823956 z"
       id="path4-3-3-8"
       style="fill:#001723;fill-opacity:1;stroke-width:0.160928;enable-background:new" />
    <path
       d="M 17.140632,11.628 A 0.48279751,0.48278875 0 0 1 16.799456,11.486378 L 11.10566,5.7926921 5.4118697,11.486378 A 0.48279751,0.48278875 0 0 1 4.7295171,10.804044 L 10.764496,4.7691854 a 0.48279751,0.48278875 0 0 1 0.682332,0 l 6.03498,6.0348586 A 0.48279751,0.48278875 0 0 1 17.140632,11.628 Z"
       id="path4-36-5-7"
       style="fill:#001723;fill-opacity:1;stroke-width:0.160928;enable-background:new" />
  </g>
  <metadata
     id="metadata28">
    <rdf:RDF>
      <cc:Work
         rdf:about="">
        <dc:format>image/svg+xml</dc:format>
        <dc:type
           rdf:resource="http://purl.org/dc/dcmitype/StillImage" />
      </cc:Work>
    </rdf:RDF>
  </metadata>
  <defs
     id="defs26" />
  <sodipodi:namedview
     inkscape:document-rotation="0"
     pagecolor="#ffffff"
     bordercolor="#666666"
     borderopacity="1"
     objecttolerance="10"
     gridtolerance="10"
     guidetolerance="10"
     inkscape:pageopacity="0"
     inkscape:pageshadow="2"
     inkscape:window-width="1920"
     inkscape:window-height="1000"
     id="namedview24"
     showgrid="true"
     inkscape:zoom="11.313709"
     inkscape:cx="36.01825"
     inkscape:cy="31.422056"
     inkscape:window-x="0"
     inkscape:window-y="0"
     inkscape:window-maximized="1"
     inkscape:current-layer="svg4306"
     inkscape:snap-bbox="true"
     inkscape:bbox-nodes="true"
     inkscape:lockguides="false"
     showguides="false"
     inkscape:pagecheckerboard="0"
     inkscape:showpageshadow="2"
     inkscape:deskcolor="#d1d1d1">
    <inkscape:grid
       type="xygrid"
       id="grid853"
       originx="0"
       originy="0" />
  </sodipodi:namedview>
  <style
     type="text/css"
     id="current-color-scheme">.ColorScheme-Highlight { color:#5e81ac; }
</style>
  <g
     id="inactive-center">
    <rect
       style="opacity:0.00100002;fill:#000000;fill-opacity:1;fill-rule:nonzero;stroke:none;stroke-width:2;stroke-linecap:round;stroke-linejoin:round;stroke-miterlimit:4;stroke-dasharray:none;stroke-opacity:1"
       y="22"
       x="0"
       height="22"
       width="22"
       id="rect4266-9" />
    <rect
       width="16.797211"
       height="16.797197"
       rx="5.3986053"
       ry="5.3869576"
       x="2.6013951"
       y="24.6014"
       id="rect3000-9-3-5-7"
       style="color:#000000;display:inline;overflow:visible;visibility:visible;fill:#006499;fill-opacity:0.01;stroke:#000405;stroke-width:1.20279;stroke-opacity:0.317647;marker:none;enable-background:accumulate" />
    <path
       d="M 17.040637,38.451998 A 0.48279738,0.48278849 0 0 1 16.699459,38.310377 L 11.005662,32.616698 5.3118722,38.310377 A 0.48279738,0.48278849 0 0 1 4.6295207,37.628042 L 10.66449,31.59319 a 0.48279738,0.48278849 0 0 1 0.682348,0 l 6.034969,6.034852 a 0.48279738,0.48278849 0 0 1 -0.34117,0.823956 z"
       id="path4-3-3"
       style="enable-background:new;stroke-width:0.160927;fill-opacity:1;fill:currentColor;"
       class="ColorScheme-Highlight" />
    <path
       d="M 17.040636,33.628 A 0.48279614,0.48278851 0 0 1 16.699457,33.486383 L 11.005675,27.792701 5.3119015,33.486383 A 0.48279614,0.48278851 0 0 1 4.6295513,32.804044 l 6.0349517,-6.034851 a 0.48279614,0.48278851 0 0 1 0.682351,0 l 6.034953,6.034851 A 0.48279614,0.48278851 0 0 1 17.040636,33.628 Z"
       id="path4-36-5"
       style="enable-background:new;stroke-width:0.160927;fill-opacity:1;fill:currentColor;"
       class="ColorScheme-Highlight" />
  </g>
  <g
     id="pressed-center"
     transform="translate(44)">
    <rect
       id="rect4266-3-6"
       width="22"
       height="22"
       x="0"
       y="0"
       style="opacity:0.00100002;fill:#000000;fill-opacity:1;fill-rule:nonzero;stroke:none;stroke-width:2;stroke-linecap:round;stroke-linejoin:round;stroke-miterlimit:4;stroke-dasharray:none;stroke-opacity:1" />
    <rect
       width="16.797211"
       height="16.797197"
       rx="5.3986053"
       ry="5.3869567"
       x="2.6013951"
       y="2.6014018"
       id="rect3000-9-3-5-7-1"
       style="color:#000000;display:inline;overflow:visible;visibility:visible;fill:#c5e5a9;fill-opacity:1;stroke:#000405;stroke-width:1.20279;stroke-opacity:0.01;marker:none;enable-background:accumulate" />
    <path
       d="M 17.040631,16.452 A 0.48279713,0.48278855 0 0 1 16.699458,16.310379 L 11.005667,10.616694 5.3118791,16.310379 A 0.48279713,0.48278855 0 0 1 4.6295269,15.628044 L 10.6645,9.5931878 a 0.48279713,0.48278855 0 0 1 0.682338,0 l 6.034969,6.0348562 A 0.48279713,0.48278855 0 0 1 17.040631,16.452 Z"
       id="path4-3-3-27"
       style="fill:#000405;fill-opacity:1;stroke-width:0.160929;enable-background:new" />
    <path
       d="M 17.040632,11.628 A 0.48279708,0.48278855 0 0 1 16.699457,11.486379 L 11.005666,5.7926941 5.3118803,11.486379 A 0.48279708,0.48278855 0 0 1 4.629528,10.804044 l 6.034973,-6.0348563 a 0.48279708,0.48278855 0 0 1 0.682338,0 l 6.034968,6.0348563 A 0.48279708,0.48278855 0 0 1 17.040632,11.628 Z"
       id="path4-36-5-0"
       style="fill:#000405;fill-opacity:1;stroke-width:0.160928;enable-background:new" />
  </g>
  <g
     id="active-center">
    <rect
       id="rect4266"
       width="22"
       height="22"
       x="0"
       y="0"
       style="opacity:0.00100002;fill:#000000;fill-opacity:1;fill-rule:nonzero;stroke:none;stroke-width:2;stroke-linecap:round;stroke-linejoin:round;stroke-miterlimit:4;stroke-dasharray:none;stroke-opacity:1" />
    <rect
       width="16.797211"
       height="16.797197"
       rx="5.3986053"
       ry="5.3869567"
       x="2.6013951"
       y="2.6014018"
       id="rect3000-9-3-5-7-0"
       style="color:#000000;display:inline;overflow:visible;visibility:visible;fill:#006499;fill-opacity:0.01;stroke:#000405;stroke-width:1.20279;stroke-opacity:0.317647;marker:none;enable-background:accumulate" />
    <path
       d="M 17.040634,16.452 A 0.4827982,0.48278855 0 0 1 16.699456,16.310378 L 11.00565,10.616694 5.3118557,16.310378 A 0.4827982,0.48278855 0 0 1 4.6295016,15.628047 L 10.664483,9.5931893 a 0.4827982,0.48278855 0 0 1 0.682344,0 L 17.38181,15.628047 A 0.4827982,0.48278855 0 0 1 17.040634,16.452 Z"
       id="path4-3-3-6"
       style="fill:#ffffff;fill-opacity:1;stroke-width:0.160927;enable-background:new" />
    <path
       d="M 17.04063,11.628 A 0.48279693,0.48278841 0 0 1 16.699455,11.486378 L 11.005663,5.7926957 5.3118823,11.486378 A 0.48279693,0.48278841 0 0 1 4.6295301,10.804043 L 10.664497,4.7691897 a 0.48279693,0.48278841 0 0 1 0.682343,0 l 6.034966,6.0348533 A 0.48279693,0.48278841 0 0 1 17.04063,11.628 Z"
       id="path4-36-5-2"
       style="fill:#ffffff;fill-opacity:1;stroke-width:0.160927;enable-background:new" />
  </g>
</svg>
