<?xml version="1.0" encoding="UTF-8" standalone="no"?>
<svg
   width="32"
   height="32"
   version="1.1"
   id="svg986"
   sodipodi:docname="jami.svg"
   inkscape:version="1.2.1 (9c6d41e410, 2022-07-14)"
   xmlns:inkscape="http://www.inkscape.org/namespaces/inkscape"
   xmlns:sodipodi="http://sodipodi.sourceforge.net/DTD/sodipodi-0.dtd"
   xmlns="http://www.w3.org/2000/svg"
   xmlns:svg="http://www.w3.org/2000/svg">
  <style
     id="current-color-scheme"
     type="text/css">.ColorScheme-Text { color:#eff0f1; }
.ColorScheme-Highlight { color:#cdd8e5; }
</style>
  <sodipodi:namedview
     id="namedview988"
     pagecolor="#b2b2b2"
     bordercolor="#000000"
     borderopacity="1"
     inkscape:showpageshadow="2"
     inkscape:pageopacity="0"
     inkscape:pagecheckerboard="0"
     inkscape:deskcolor="#cccccc"
     showgrid="false"
     inkscape:zoom="10.429825"
     inkscape:cx="25.695541"
     inkscape:cy="20.182505"
     inkscape:window-width="1920"
     inkscape:window-height="1008"
     inkscape:window-x="0"
     inkscape:window-y="0"
     inkscape:window-maximized="1"
     inkscape:current-layer="svg986">
    <inkscape:grid
       type="xygrid"
       id="grid1519"
       originx="32"
       originy="10" />
  </sodipodi:namedview>
  <defs
     id="Dexy" />
  <g
     id="jami">
    <rect
       style="opacity:0.00100002"
       width="32"
       height="32"
       x="0"
       y="0"
       id="rect976" />
    <path
       id="External"
       class="st0  ColorScheme-Highlight"
       d="m 5,4 h 22.285714 v 18 c 0,2.357143 -1.928571,4.285714 -4.285714,4.285714 H 5 Z"
       style="stroke-width:0.428571;fill-opacity:0.40392157;fill:#cdd8e5" />
    <path
       id="External-s"
       class="st1"
       d="m 16.742857,15.742857 z m 8.828572,-3.171428 v 10.285714 c 0,1.885714 -1.542858,3.428571 -3.428572,3.428571 H 6.714286 V 28 h 15.428571 c 2.828572,0 5.142857,-2.314286 5.142857,-5.142857 V 12.571429 Z"
       sodipodi:nodetypes="cccccccccccssccsscc"
       style="stroke-width:0.428571;fill-opacity:1;fill:#eff0f1" />
    <path
       style="stroke-width:0.593009;fill-opacity:1;fill:#eff0f1"
       d="M 14.751171,7.100001 C 14.198781,7.098421 13.840877,8.9245444 13.665802,11.328745 11.79913,10.471924 10.222827,9.9013846 9.5574696,9.9615744 9.4052765,9.9753121 9.300504,10.021676 9.2497688,10.104426 l -1.2175903,1.985472 c -0.2737742,0.446503 1.2344447,1.656624 3.3642995,3.008904 -2.1323582,1.353463 -3.6382875,2.564317 -3.3642995,3.011117 l 1.2175903,1.985476 c 0.2731917,0.445547 2.1315732,-0.176877 4.4328592,-1.234359 0.18593,2.404766 0.552237,4.232034 1.104611,4.233207 l 2.461627,0.0058 c 0.552557,0.0016 0.910362,-1.825676 1.085368,-4.230975 2.293529,1.052766 4.143502,1.671019 4.416038,1.22655 l 1.217589,-1.985473 c 0.273985,-0.446836 -1.231937,-1.657696 -3.364299,-3.011161 2.129845,-1.352271 3.638075,-2.562401 3.364299,-3.0089 L 22.750272,10.104428 C 22.699553,10.021708 22.594765,9.9753453 22.442561,9.961577 21.775051,9.901184 20.19085,10.475043 18.316215,11.336565 18.130222,8.9329193 17.765001,7.1067619 17.212797,7.1055822 Z m 0.185101,0.5714221 2.092626,0.00586 c 0.03549,0.056894 0.08446,0.1393358 0.139429,0.2946401 0.132396,0.3742641 0.261498,0.9772593 0.362993,1.7075709 0.07931,0.5705049 0.14022,1.2361039 0.189908,1.9352529 -0.559282,0.266467 -1.136963,0.555899 -1.721208,0.858228 -0.58965,-0.305118 -1.172759,-0.597521 -1.73685,-0.866058 0.04669,-0.700536 0.1046,-1.367216 0.181508,-1.9386036 0.09824,-0.7298166 0.224036,-1.3321272 0.35458,-1.705337 0.05387,-0.1541324 0.102243,-0.2348949 0.137014,-0.2912934 z M 9.6920878,10.538584 c 0.068514,4.05e-4 0.1622982,0.0023 0.3281422,0.03454 0.406997,0.08064 1.024507,0.27896 1.745257,0.563603 0.559405,0.220934 1.196354,0.504257 1.858246,0.812492 -0.03437,0.59794 -0.05929,1.218785 -0.07217,1.856005 -0.554887,0.317286 -1.093049,0.6349 -1.604635,0.949764 -0.622285,-0.390302 -1.207903,-0.771887 -1.695955,-1.121594 -0.6221603,-0.445791 -1.1132658,-0.85 -1.3918784,-1.142843 C 8.7423006,12.367795 8.6902641,12.28476 8.6559625,12.228276 Z m 12.6158582,0 1.036104,1.689706 c -0.03436,0.05651 -0.08634,0.13952 -0.203139,0.262278 -0.278609,0.292837 -0.769726,0.697046 -1.391871,1.142843 -0.48806,0.349707 -1.073681,0.731285 -1.695981,1.121636 -0.513704,-0.316159 -1.054548,-0.634534 -1.611841,-0.953107 -0.01574,-0.634209 -0.04242,-1.250751 -0.07934,-1.845969 0.667278,-0.311026 1.309168,-0.596643 1.872666,-0.81919 0.720754,-0.284642 1.338262,-0.48299 1.74526,-0.563602 0.165846,-0.03282 0.259646,-0.03423 0.32814,-0.03455 z m -8.085633,1.689706 c 0.374956,0.180825 0.76052,0.372879 1.147868,0.570309 -0.400282,0.212636 -0.799334,0.430295 -1.194746,0.650661 0.0113,-0.414607 0.02641,-0.82463 0.04689,-1.22097 z m 3.542201,0.0074 c 0.02201,0.392772 0.03864,0.799053 0.05169,1.209812 -0.392723,-0.218792 -0.788863,-0.435056 -1.186338,-0.646198 0.382862,-0.195154 0.763827,-0.384658 1.134651,-0.563614 z m -1.764494,0.891716 c 0.302458,0.158431 0.604557,0.315797 0.906285,0.479907 0.311724,0.169549 0.617761,0.343535 0.924314,0.516735 0.0071,0.327135 0.0149,0.653922 0.01559,0.983247 0.0012,0.323716 -0.005,0.644922 -0.0095,0.966506 -0.308491,0.174336 -0.616558,0.349429 -0.930316,0.520086 -0.301717,0.164103 -0.603824,0.32147 -0.906287,0.479904 -0.302452,-0.158434 -0.604554,-0.315801 -0.906286,-0.479904 -0.311724,-0.169554 -0.61776,-0.343543 -0.924312,-0.516739 -0.0071,-0.327137 -0.01491,-0.653922 -0.01558,-0.983246 -0.0012,-0.323715 0.005,-0.644926 0.0095,-0.966506 0.308496,-0.174337 0.616553,-0.349429 0.930313,-0.520083 0.301724,-0.16411 0.603827,-0.321477 0.90629,-0.479908 z m 2.45202,1.350427 c 0.358566,0.207957 0.712834,0.416489 1.051717,0.622768 -0.337714,0.205552 -0.690854,0.413293 -1.048126,0.620527 0.004,-0.41549 0.0025,-0.827827 -0.0041,-1.243295 z m -4.907638,0.0029 c -0.0041,0.415491 -0.0025,0.827828 0.0041,1.243295 -0.358578,-0.207958 -0.71285,-0.416488 -1.051733,-0.622764 0.337702,-0.205555 0.690849,-0.413298 1.048114,-0.620531 z m -1.597426,0.966406 c 0.515004,0.316957 1.053075,0.635992 1.611839,0.955349 0.01576,0.633059 0.04255,1.248436 0.07934,1.842614 -0.667272,0.31102 -1.309169,0.596643 -1.872668,0.819186 -0.720745,0.284324 -1.338259,0.482684 -1.745256,0.563289 -0.165843,0.03286 -0.2596413,0.03421 -0.3281424,0.03456 L 8.6559912,17.971868 c 0.034326,-0.05651 0.086345,-0.13952 0.2031308,-0.262277 0.2786104,-0.292835 0.7697235,-0.697045 1.391881,-1.142842 0.487903,-0.349598 1.07388,-0.730291 1.695972,-1.120524 z m 8.106083,0 c 0.622087,0.390232 1.208063,0.770926 1.695981,1.120525 0.622144,0.445796 1.113266,0.85001 1.391871,1.142841 0.116793,0.122757 0.168826,0.205797 0.203139,0.262278 l -1.036104,1.689392 c -0.06845,-4.17e-4 -0.162293,-0.0023 -0.328145,-0.03455 -0.406992,-0.08065 -1.024504,-0.27897 -1.745254,-0.563614 -0.559406,-0.22093 -1.196353,-0.504247 -1.858242,-0.81249 0.03431,-0.597244 0.05927,-1.217315 0.07216,-1.853772 0.556207,-0.317985 1.091887,-0.635314 1.604635,-0.95088 z m -2.228459,1.3002 c -0.01131,0.41617 -0.0263,0.827641 -0.04689,1.225432 -0.37651,-0.181576 -0.763709,-0.374229 -1.152681,-0.572538 0.40322,-0.214158 0.801275,-0.430886 1.199558,-0.652894 z m -3.640759,0.0047 c 0.395594,0.220423 0.790739,0.435767 1.191147,0.648431 -0.384496,0.19602 -0.767079,0.386142 -1.13946,0.565842 -0.02208,-0.394224 -0.03863,-0.801956 -0.0517,-1.214273 z m 1.816179,0.978409 c 0.590965,0.305827 1.171554,0.593612 1.736847,0.862711 -0.04671,0.700955 -0.104559,1.368021 -0.181509,1.93971 -0.09824,0.729818 -0.224034,1.332131 -0.354579,1.705339 -0.05389,0.154129 -0.102245,0.234897 -0.137016,0.291292 l -2.092631,-0.0062 c -0.03549,-0.05677 -0.08444,-0.13919 -0.139419,-0.294495 -0.132397,-0.37426 -0.261502,-0.977261 -0.362997,-1.707566 -0.07933,-0.570747 -0.140201,-1.236731 -0.189911,-1.936299 0.560274,-0.266946 1.135892,-0.551995 1.721215,-0.854895 z"
       id="path978-3" />
  </g>
  <g
     id="22-22-jami">
    <rect
       style="opacity:0.00100002"
       width="22"
       height="22"
       x="32"
       y="10"
       id="rect981" />
    <path
       id="External-3"
       class="st0  ColorScheme-Highlight"
       d="m 35.5,13 h 14.857143 v 12 c 0,1.571429 -1.285714,2.857143 -2.857143,2.857143 h -12 z"
       style="stroke-width:0.285714;fill-opacity:0.40392157;fill:#cdd8e5" />
    <path
       id="External-s-6"
       class="st1"
       d="m 43.328571,20.828571 z m 5.885715,-2.114285 v 6.857143 c 0,1.257142 -1.028572,2.285714 -2.285715,2.285714 H 36.642857 V 29 h 10.285714 c 1.885715,0 3.428572,-1.542857 3.428572,-3.428571 v -6.857143 z"
       sodipodi:nodetypes="cccccccccccssccsscc"
       style="stroke-width:0.285714;fill-opacity:1;fill:#eff0f1" />
    <path
       style="stroke-width:0.645478;fill-opacity:1;fill:#eff0f1"
       d="m 42.324093,15.500001 c -0.317111,-10e-4 -0.513692,1.291665 -0.601536,2.928363 -1.291788,-0.615844 -2.414403,-1.067222 -2.850141,-1.053427 -0.09263,0.0029 -0.155529,0.02665 -0.183586,0.07202 l -0.673148,1.087605 c -0.159925,0.258549 0.938331,1.068454 2.411356,1.962825 -1.481392,0.898514 -2.571874,1.708203 -2.411356,1.967707 l 0.673148,1.087609 c 0.160614,0.259659 1.468718,-0.230102 3.042842,-0.98141 0.09399,1.63398 0.293964,2.923925 0.610653,2.924703 l 1.333277,0.004 c 0.316776,0.0011 0.513544,-1.289298 0.601537,-2.923478 1.569589,0.748543 2.873454,1.235635 3.033728,0.976526 l 0.673149,-1.087654 c 0.16052,-0.259644 -0.929962,-1.069334 -2.411359,-1.967849 1.47303,-0.894372 2.571283,-1.704275 2.411359,-1.962821 l -0.673149,-1.08779 c -0.02808,-0.04537 -0.09096,-0.06911 -0.183585,-0.07202 -0.436619,-0.01381 -1.562781,0.439245 -2.857957,1.057093 -0.09388,-1.635917 -0.295007,-2.927587 -0.611951,-2.92837 z m 0.345039,0.626199 0.643203,0.0016 c 0.0635,0.212723 0.1318,0.568759 0.184887,1.009488 0.05547,0.460723 0.09779,1.011224 0.126298,1.60273 -0.206784,0.103441 -0.413323,0.214111 -0.623673,0.32346 -0.21274,-0.110592 -0.421106,-0.222581 -0.630182,-0.327137 0.02623,-0.593072 0.06592,-1.145992 0.119786,-1.60761 0.05108,-0.437725 0.117467,-0.789626 0.179681,-1.002164 z m -3.575371,1.911557 c 0.229698,0.05516 0.597028,0.17882 1.033809,0.357652 0.460079,0.188367 0.998175,0.435224 1.567644,0.712866 -0.0072,0.217621 -0.01078,0.439322 -0.0143,0.662822 -0.217133,0.121608 -0.418461,0.242094 -0.627578,0.363756 -0.541097,-0.322135 -1.03859,-0.63372 -1.442648,-0.911832 -0.382497,-0.263283 -0.679009,-0.496082 -0.845014,-0.654274 z m 7.812171,0 0.328117,0.53099 c -0.166006,0.158192 -0.462521,0.390991 -0.84502,0.654274 -0.404056,0.278112 -0.901551,0.589697 -1.442649,0.911832 -0.210443,-0.122439 -0.412926,-0.243824 -0.631483,-0.366201 -0.0047,-0.221255 -0.009,-0.441233 -0.0169,-0.656717 0.571873,-0.278946 1.112334,-0.527446 1.574154,-0.716526 0.436782,-0.178832 0.804113,-0.302523 1.033811,-0.357652 z m -3.906085,1.740658 c 0.11499,0.06085 0.226456,0.112647 0.341134,0.174558 0.109157,0.05892 0.207972,0.119786 0.316393,0.179436 0.002,0.126504 0.0087,0.245508 0.0091,0.372301 2.33e-4,0.123139 -0.0068,0.238458 -0.0074,0.361317 -0.108936,0.05992 -0.208007,0.121442 -0.317695,0.180658 -0.114739,0.06186 -0.226205,0.113691 -0.341193,0.174556 -0.115058,-0.06082 -0.226528,-0.112644 -0.341201,-0.174556 -0.109255,-0.05891 -0.208068,-0.119786 -0.316486,-0.179434 -0.0018,-0.126506 -0.0089,-0.245511 -0.0092,-0.372303 -2.4e-4,-0.123138 0.0069,-0.238454 0.0077,-0.361318 0.108896,-0.05992 0.207965,-0.121436 0.317653,-0.180657 0.114678,-0.06188 0.226142,-0.113692 0.341133,-0.174558 z m -1.949138,1.086391 c 0.206648,0.120169 0.419619,0.238762 0.63409,0.358875 0.0045,0.223772 0.0089,0.446161 0.01691,0.664041 -0.571871,0.278947 -1.112339,0.527448 -1.574157,0.716528 -0.43678,0.178829 -0.804114,0.302522 -1.033812,0.357654 l -0.328107,-0.530986 c 0.166002,-0.158193 0.462517,-0.390998 0.845016,-0.654275 0.403605,-0.277808 0.89965,-0.590083 1.440044,-0.911837 z m 3.898276,0 c 0.540393,0.321754 1.036438,0.634029 1.440044,0.911837 0.382499,0.263277 0.679014,0.496082 0.84502,0.654275 l -0.328117,0.530986 c -0.229695,-0.05519 -0.597023,-0.178826 -1.033806,-0.357654 -0.46008,-0.188366 -0.998172,-0.435219 -1.567647,-0.712867 0.0071,-0.220025 0.01074,-0.444129 0.01432,-0.670142 0.21307,-0.119363 0.424846,-0.237025 0.63018,-0.356435 z m -1.949138,1.068079 c 0.211848,0.110071 0.421994,0.219405 0.630182,0.323475 -0.02624,0.59575 -0.06571,1.151497 -0.119787,1.614935 -0.05109,0.437725 -0.11746,0.789625 -0.17968,1.002162 l -0.643202,-0.002 c -0.06349,-0.21245 -0.131802,-0.568479 -0.184887,-1.009211 -0.05568,-0.46224 -0.09779,-1.015099 -0.126297,-1.608831 0.206225,-0.103132 0.41388,-0.21203 0.623671,-0.321033 z"
       id="path983-6" />
  </g>
</svg>
