<?xml version="1.0" encoding="UTF-8" standalone="no"?>
<svg
   width="32"
   height="32"
   x="0"
   y="0"
   version="1.1"
   id="svg18"
   sodipodi:docname="mellowplayer.svg"
   inkscape:version="1.2.1 (9c6d41e410, 2022-07-14)"
   xmlns:inkscape="http://www.inkscape.org/namespaces/inkscape"
   xmlns:sodipodi="http://sodipodi.sourceforge.net/DTD/sodipodi-0.dtd"
   xmlns="http://www.w3.org/2000/svg"
   xmlns:svg="http://www.w3.org/2000/svg">
  <g
     id="22-22-mellowplayer"
     transform="translate(32,10)">
    <rect
       style="opacity:0.00100002;fill:#d1d5e9;fill-opacity:1"
       width="22"
       height="22"
       x="0"
       y="0"
       id="rect4" />
    <path
       id="External-3"
       class="st0"
       d="m 3.5,3 h 15 v 12.8 c 0,1.67619 -1.298076,3.047623 -2.88461,3.047623 H 3.5 Z"
       style="fill:#cdd8e5;fill-opacity:0.403922;stroke-width:0.2965" />
    <path
       id="External-s-6"
       class="st1"
       d="m 11.403846,10.283811 z m 5.942309,-2.255239 v 7.314289 c 0,1.340952 -1.038466,2.438092 -2.307692,2.438092 H 4.653846 v 1.219046 H 15.038463 C 16.94231,18.999999 18.5,17.354285 18.5,15.342861 V 8.028572 Z"
       sodipodi:nodetypes="cccccccccccssccsscc"
       style="fill:#eff0f1;fill-opacity:1;stroke-width:0.2965" />
    <path
       style="fill:#eff0f1;fill-opacity:1;stroke-width:0.499999"
       d="M 9.142577,5.000009 A 3.6428565,3.6428565 0 0 0 5.5,8.642586 a 3.6428565,3.6428565 0 0 0 0.268556,1.36133 1.9999993,1.9999993 0 0 1 1.731443,-1.003907 1.9999993,1.9999993 0 0 1 0.0053,0 V 6.80274 c 2.2e-4,0 -0.01743,-0.198759 0.138672,-0.277344 0.0379,-0.0191 0.07631,-0.02608 0.111339,-0.02536 0.10497,0.0017 0.186522,0.07027 0.186522,0.07027 L 9.934999,7.755853 A 1.9999993,1.9999993 0 0 1 11.500395,6.999997 1.9999993,1.9999993 0 0 1 12.513091,7.278319 3.6428565,3.6428565 0 0 0 9.142933,5 Z M 8.004881,7.189465 v 3.79687 3.790037 L 11.1582,12.902355 14.385743,10.986334 11.166011,9.070321 Z m 4.995117,0.310544 a 3.499999,3.499999 0 0 0 -0.168948,0.0109 1.9999993,1.9999993 0 0 1 0.668947,1.489252 1.9999993,1.9999993 0 0 1 -0.16113,0.781257 l 1.448237,0.862303 c 0,0 0.212893,0.103633 0.212893,0.353517 0,0.250538 -0.214842,0.33203 -0.214842,0.33203 l -1.456057,0.865235 a 1.9999993,1.9999993 0 0 1 0.170899,0.80566 1.9999993,1.9999993 0 0 1 -0.669921,1.490234 3.499999,3.499999 0 0 0 0.169922,0.01002 3.499999,3.499999 0 0 0 3.499999,-3.5 3.499999,3.499999 0 0 0 -3.499999,-3.500109 z m -4.495117,0.569331 2.405273,1.430668 2.497068,1.486326 -2.503904,1.486326 -2.398437,1.424806 V 10.986334 Z M 5.767583,11.996098 A 3.6428565,3.6428565 0 0 0 5.5,13.35743 3.6428565,3.6428565 0 0 0 9.142577,17.000006 3.6428565,3.6428565 0 0 0 12.515621,14.719732 1.9999993,1.9999993 0 0 1 11.499999,15.000008 1.9999993,1.9999993 0 0 1 9.918942,14.22071 l -2.063473,1.226559 c 0,0 -0.103476,0.09263 -0.237305,0.03319 C 7.465355,15.412119 7.5049,15.238267 7.5049,15.238267 v -2.238285 a 1.9999993,1.9999993 0 0 1 -0.0053,0 1.9999993,1.9999993 0 0 1 -1.732422,-1.0039 z"
       id="path13-3-2" />
    <path
       style="opacity:0.5;fill:#d1d5e9;fill-opacity:1;stroke-width:0.499999"
       d="M 11.499999,7.000008 A 1.9999993,1.9999993 0 0 0 9.934566,7.755869 l 1.487309,0.883791 1.916992,1.141595 a 1.9999993,1.9999993 0 0 0 0.16113,-0.781246 1.9999993,1.9999993 0 0 0 -1.999998,-2.000001 z m -4,2.000001 A 1.9999993,1.9999993 0 0 0 5.5,11.000008 a 1.9999993,1.9999993 0 0 0 1.999999,1.999999 1.9999993,1.9999993 0 0 0 0.0053,0 V 10.986335 9.000009 a 1.9999993,1.9999993 0 0 0 -0.0053,0 z m 5.8291,3.194336 -1.915035,1.137689 -1.495122,0.888675 a 1.9999993,1.9999993 0 0 0 1.581057,0.779298 1.9999993,1.9999993 0 0 0 1.999998,-2.000001 1.9999993,1.9999993 0 0 0 -0.170898,-0.805661 z"
       id="path15-56-9" />
  </g>
  <sodipodi:namedview
     id="namedview20"
     pagecolor="#b2b2b2"
     bordercolor="#000000"
     borderopacity="1"
     inkscape:showpageshadow="2"
     inkscape:pageopacity="0"
     inkscape:pagecheckerboard="0"
     inkscape:deskcolor="#cccccc"
     showgrid="false"
     inkscape:zoom="10.429825"
     inkscape:cx="34.132883"
     inkscape:cy="26.031117"
     inkscape:window-width="1920"
     inkscape:window-height="1008"
     inkscape:window-x="0"
     inkscape:window-y="0"
     inkscape:window-maximized="1"
     inkscape:current-layer="svg18">
    <inkscape:grid
       type="xygrid"
       id="grid1877"
       originx="32"
       originy="10" />
  </sodipodi:namedview>
  <defs
     id="987">
    <style
       type="text/css"
       id="current-color-scheme" />
  </defs>
  <g
     id="mellowplayer">
    <rect
       style="opacity:0.00100002;fill:#d1d5e9;fill-opacity:1"
       width="32"
       height="32"
       x="0"
       y="0"
       id="rect11" />
    <path
       id="External"
       class="st0"
       d="m 5,4 h 22 v 18 c 0,2.357143 -1.903846,4.285714 -4.230769,4.285714 H 5 Z"
       style="fill:#cdd8e5;fill-opacity:0.403922;stroke-width:0.425815" />
    <path
       id="External-s"
       class="st1"
       d="m 16.592308,15.742857 z m 8.715384,-3.171428 v 10.285714 c 0,1.885714 -1.523077,3.428571 -3.384615,3.428571 H 6.692308 V 28 H 21.923077 C 24.715386,28 27,25.685714 27,22.857143 V 12.571429 Z"
       sodipodi:nodetypes="cccccccccccssccsscc"
       style="fill:#eff0f1;fill-opacity:1;stroke-width:0.425815" />
    <path
       style="fill:#eff0f1;fill-opacity:1;stroke-width:0.666671"
       d="M 13.356778,8 A 4.8571422,4.8571422 0 0 0 8.5,12.856778 a 4.8571422,4.8571422 0 0 0 0.358075,1.815094 2.666667,2.666667 0 0 1 2.308596,-1.338543 2.666667,2.666667 0 0 1 0.0061,0 v -2.92968 c 2.94e-4,0 -0.02329,-0.265028 0.184896,-0.36979 0.05061,-0.0255 0.101819,-0.03482 0.148453,-0.03376 0.139958,0.0017 0.248697,0.09379 0.248697,0.09379 l 2.657556,1.580729 a 2.666667,2.666667 0 0 1 2.087196,-1.007804 2.666667,2.666667 0 0 1 1.350259,0.371092 4.8571422,4.8571422 0 0 0 -4.493491,-3.03776 z m -1.516936,2.919265 v 5.062502 5.053389 l 4.204431,-2.498689 4.303392,-2.5547 -4.292975,-2.55469 z M 18.5,11.333329 a 4.666667,4.666667 0 0 0 -0.225268,0.0145 2.666667,2.666667 0 0 1 0.891939,1.985676 2.666667,2.666667 0 0 1 -0.214842,1.041673 l 1.930989,1.149741 c 0,0 0.283853,0.138172 0.283853,0.471357 0,0.334052 -0.286465,0.442704 -0.286465,0.442704 l -1.941395,1.153644 a 2.666667,2.666667 0 0 1 0.22786,1.07422 A 2.666667,2.666667 0 0 1 18.273438,20.65382 4.666667,4.666667 0 0 0 18.5,20.66712 4.666667,4.666667 0 0 0 23.166671,16.000447 4.666667,4.666667 0 0 0 18.5,11.333649 Z M 12.506513,12.09245 15.713547,14 l 3.329428,1.981767 -3.338544,1.981766 -3.197918,1.899758 V 15.981767 Z M 8.856778,17.328128 A 4.8571422,4.8571422 0 0 0 8.5,19.143222 4.8571422,4.8571422 0 0 0 13.356778,24 4.8571422,4.8571422 0 0 0 17.854174,20.959636 2.666667,2.666667 0 0 1 16.5,21.333329 2.666667,2.666667 0 0 1 14.391935,20.294263 l -2.751305,1.635431 c 0,0 -0.137965,0.123479 -0.316417,0.04431 -0.203737,-0.09114 -0.151001,-0.322924 -0.151001,-0.322924 v -2.984368 a 2.666667,2.666667 0 0 1 -0.0061,0 2.666667,2.666667 0 0 1 -2.309894,-1.33854 z"
       id="path13-7" />
    <path
       style="opacity:0.5;fill:#d1d5e9;fill-opacity:1;stroke-width:0.666671"
       d="m 16.5,10.666671 a 2.666667,2.666667 0 0 0 -2.087235,1.007819 l 1.983071,1.17837 2.555993,1.522145 A 2.666667,2.666667 0 0 0 19.166671,13.333329 2.666667,2.666667 0 0 0 16.5,10.666671 Z m -5.333329,2.666658 A 2.666667,2.666667 0 0 0 8.5,16 a 2.666667,2.666667 0 0 0 2.666671,2.666671 2.666667,2.666667 0 0 0 0.0061,0 v -2.684904 -2.648438 a 2.666667,2.666667 0 0 0 -0.0061,0 z m 7.77214,4.259127 -2.553386,1.516923 -1.99349,1.184884 A 2.666667,2.666667 0 0 0 16.5,21.333329 a 2.666667,2.666667 0 0 0 2.666671,-2.666658 2.666667,2.666667 0 0 0 -0.22786,-1.074215 z"
       id="path15-5" />
  </g>
</svg>
