<?xml version="1.0" encoding="UTF-8" standalone="no"?>
<svg
   width="32"
   height="32"
   version="1.1"
   id="svg12"
   sodipodi:docname="vlc.svg"
   inkscape:version="1.1.2 (0a00cf5339, 2022-02-04)"
   xmlns:inkscape="http://www.inkscape.org/namespaces/inkscape"
   xmlns:sodipodi="http://sodipodi.sourceforge.net/DTD/sodipodi-0.dtd"
   xmlns="http://www.w3.org/2000/svg"
   xmlns:svg="http://www.w3.org/2000/svg"
   xmlns:rdf="http://www.w3.org/1999/02/22-rdf-syntax-ns#"
   xmlns:cc="http://creativecommons.org/ns#"
   xmlns:dc="http://purl.org/dc/elements/1.1/">
  <g
     id="22-22-vlc"
     transform="translate(32,10)">
    <rect
       style="opacity:0.00100002"
       width="22"
       height="22"
       x="0"
       y="0"
       id="rect2" />
    <path
       id="Wifi-4-3"
       class="st0"
       d="m 5.942553,10.102528 c 1.3568,1.583698 3.17186,2.505136 5.16358,2.435623 1.991719,-0.06951 3.78665,-1.116946 5.043982,-2.79188 l 1.638399,1.91239 c -0.846755,1.106663 -1.872708,2.004158 -3.004579,2.628379 -1.131872,0.62422 -2.369663,0.975166 -3.614487,1.018612 C 9.924625,15.349102 8.697661,15.084176 7.539056,14.539896 6.380451,13.995616 5.315099,13.171109 4.4191,12.125271 Z M 6.619957,9.217197 c 0.588802,0.687266 1.299268,1.247186 2.054605,1.590119 0.756039,0.373683 1.581847,0.529509 2.403431,0.500834 0.821585,-0.02867 1.61405,-0.24098 2.376695,-0.667667 0.73775,-0.425817 1.422188,-1.003648 1.978627,-1.730883 L 13.794913,6.997209 C 13.093317,7.914159 12.110121,8.502416 11.014677,8.540649 9.91923,8.578879 8.910708,8.060137 8.168309,7.193585 Z M 8.845711,6.308255 c 0.2816,0.328692 0.611585,0.594146 0.989255,0.765612 0.377668,0.171467 0.753224,0.250683 1.151569,0.23678 0.398345,-0.0139 0.769682,-0.119186 1.138907,-0.31672 0.369227,-0.197534 0.686549,-0.48558 0.952671,-0.833388 L 10.902112,3.620645 Z M 3.7168,13.01147 9.523115,5.422925 8.806315,4.586254 3,12.174799 Z"
       style="fill:#cdd8e5;fill-opacity:0.40392157;stroke-width:0.276799;enable-background:new" />
    <path
       id="Wifi-s-8-6"
       class="st1"
       d="m 18.377314,12.345927 c 0.793602,0.926314 0.881383,2.585077 -0.04429,3.509846 -0.31662,0.318796 -0.65884,0.607711 -1.001762,0.865877 -1.88606,1.419907 -4.010978,2.201885 -6.201868,2.27835 l -0.02816,-1.230001 c 2.016617,-0.07038 3.968664,-0.784778 5.682575,-2.106353 0.318729,-0.226546 0.611157,-0.513723 0.903583,-0.8009 0.389902,-0.382904 0.422108,-1.153392 -0.01309,-1.66137 l -0.6144,-0.717147 C 17.303238,12.22954 17.54587,11.944101 17.7878,11.627911 M 13.68294,5.370065 12.223739,3.666842 C 11.430139,2.740528 10.160417,2.784843 9.410433,3.765032 L 8.128205,5.440836 8.84571,6.308257 10.127938,4.632453 c 0.387087,-0.505903 1.009499,-0.527626 1.419098,-0.04953 l 1.459201,1.703223 z m -6.231433,0.986849 -1.548351,2.023613 0.7168,0.83667 1.548352,-2.023612 z m -2.225754,2.908943 -1.548351,2.023612 0.7168,0.836671 1.54835,-2.023612 z"
       style="fill:#eff0f1;fill-opacity:1;stroke-width:0.276799" />
  </g>
  <metadata
     id="metadata18">
    <rdf:RDF>
      <cc:Work
         rdf:about="">
        <dc:format>image/svg+xml</dc:format>
        <dc:type
           rdf:resource="http://purl.org/dc/dcmitype/StillImage" />
      </cc:Work>
    </rdf:RDF>
  </metadata>
  <defs
     id="defs16">
    <linearGradient
       id="l4k1"
       x1="0"
       x2="0"
       y1="0"
       y2="1">
      <stop
         offset="0%"
         style="stop-color:#303b3d; stop-opacity:1"
         id="stop18" />
      <stop
         offset="100%"
         style="stop-color:#bc985d; stop-opacity:1"
         id="stop20" />
    </linearGradient>
  </defs>
  <sodipodi:namedview
     pagecolor="#b2b2b2"
     bordercolor="#000000"
     borderopacity="1"
     objecttolerance="10"
     gridtolerance="10"
     guidetolerance="10"
     inkscape:pageopacity="0"
     inkscape:pageshadow="2"
     inkscape:window-width="1920"
     inkscape:window-height="1007"
     id="namedview14"
     showgrid="false"
     inkscape:zoom="6.9384853"
     inkscape:cx="34.373496"
     inkscape:cy="9.2239152"
     inkscape:window-x="0"
     inkscape:window-y="0"
     inkscape:window-maximized="1"
     inkscape:current-layer="svg12"
     inkscape:lockguides="true"
     inkscape:document-rotation="0"
     inkscape:showpageshadow="false"
     inkscape:pagecheckerboard="0">
    <inkscape:grid
       type="xygrid"
       id="grid868"
       originx="0"
       originy="0" />
  </sodipodi:namedview>
  <g
     id="vlc">
    <rect
       style="opacity:0.00100002"
       width="32"
       height="32"
       x="0"
       y="0"
       id="rect7" />
    <path
       id="Wifi"
       class="st0"
       d="m 8.4138302,14.653792 c 2.0351998,2.375547 4.7577888,3.757705 7.7453688,3.653435 2.987579,-0.104271 5.679975,-1.675419 7.565973,-4.187821 l 2.457599,2.868586 c -1.270133,1.659994 -2.809062,3.006237 -4.506869,3.942568 -1.697807,0.936331 -3.554494,1.46275 -5.42173,1.527919 -1.867235,0.06517 -3.70768,-0.332215 -5.445588,-1.148635 -1.7379072,-0.81642 -3.3359346,-2.05318 -4.679934,-3.621937 z m 1.0161053,-1.327996 c 0.8832025,1.030898 1.9489015,1.870779 3.0819075,2.385178 1.134059,0.560524 2.372771,0.794263 3.605146,0.751251 1.232378,-0.04301 2.421076,-0.36147 3.565043,-1.0015 1.106625,-0.638726 2.133282,-1.505472 2.96794,-2.596325 L 20.19237,9.995814 c -1.052395,1.375424 -2.527189,2.25781 -4.170355,2.315159 -1.64317,0.05735 -3.155953,-0.720767 -4.269552,-2.020595 z M 12.768566,8.9623826 c 0.422401,0.4930384 0.917378,0.8912194 1.483883,1.1484184 0.566502,0.2572 1.129836,0.376024 1.727354,0.35517 0.597517,-0.02085 1.154523,-0.17878 1.70836,-0.475081 0.553841,-0.296301 1.029824,-0.72837 1.429007,-1.2500823 L 15.853168,4.930968 Z M 5.0752002,19.017206 13.784673,7.6343867 12.709473,6.3793808 4,17.762199 Z"
       style="opacity:1;fill:#cdd8e5;fill-opacity:0.403922;stroke-width:0.415199;enable-background:new" />
    <path
       id="Wifi-s"
       class="st1"
       d="m 27.065971,18.01889 c 1.190403,1.389471 1.322075,3.877616 -0.06644,5.26477 -0.474929,0.478194 -0.988259,0.911567 -1.502642,1.298815 C 22.667799,26.712336 19.480422,27.885303 16.194087,28 l -0.04224,-1.845001 c 3.024925,-0.105574 5.952996,-1.177167 8.523862,-3.15953 0.478094,-0.339819 0.916735,-0.770585 1.355375,-1.20135 0.584852,-0.574355 0.633161,-1.730087 -0.01963,-2.492055 l -0.9216,-1.07572 c 0.365005,-0.382034 0.728953,-0.810193 1.091847,-1.284477 M 20.024411,7.5550975 17.83561,5.0002635 C 16.64521,3.610792 14.740627,3.677265 13.615651,5.1475455 l -1.923342,2.5137055 1.076257,1.3011316 1.923342,-2.5137061 c 0.580631,-0.7588543 1.514249,-0.7914388 2.128648,-0.074293 l 2.188801,2.554834 z M 10.677262,9.0353718 8.3547352,12.07079 9.4299355,13.325796 11.752463,10.290378 Z M 7.338631,13.398786 5.0161053,16.434204 6.0913051,17.68921 8.4138302,14.653792 Z"
       style="fill:#eff0f1;fill-opacity:1;stroke-width:0.415199" />
  </g>
</svg>
